<svg xmlns="http://www.w3.org/2000/svg" width="190" height="123.001" viewBox="0 0 190 123.001">
  <g id="Grupo_68323" data-name="Grupo 68323" transform="translate(-285 -406)">
    <g id="Rect치ngulo_10019" data-name="Rect치ngulo 10019" transform="translate(322 422)" fill="#fff" stroke="#707070" stroke-width="1">
      <rect width="116" height="77" rx="8" stroke="none"/>
      <rect x="0.5" y="0.5" width="115" height="76" rx="7.5" fill="none"/>
    </g>
    <g id="Grupo_68322" data-name="Grupo 68322" transform="translate(0 3)">
      <g id="XMLID_47_" transform="translate(319 434.521)">
        <g id="XMLID_1127_" transform="translate(0 -30.583)">
          <path id="XMLID_1148_" d="M118.686,330.373H18.619A8.619,8.619,0,0,1,10,321.754V311.22H127.305v10.534A8.619,8.619,0,0,1,118.686,330.373Z" transform="translate(-7.616 -237.028)" fill="#fa9300"/>
          <g id="XMLID_1128_" transform="translate(0 0)">
            <path id="XMLID_1145_" d="M129.262,97.539a7.172,7.172,0,1,0-7.172,7.172,7.18,7.18,0,0,0,7.172-7.172Zm-9.576,0a2.4,2.4,0,1,1,2.4,2.4A2.406,2.406,0,0,1,119.685,97.539Z" transform="translate(-87.518 -68.832)" fill="#636363"/>
            <path id="XMLID_1141_" d="M111.071,50.2h-3.2a2.384,2.384,0,0,0,0,4.768h3.2a6.241,6.241,0,0,1,6.234,6.234v61.765a6.241,6.241,0,0,1-6.234,6.234H11a6.241,6.241,0,0,1-6.234-6.234V61.207A6.241,6.241,0,0,1,11,54.973h58.26a2.384,2.384,0,1,0,0-4.769H11a11.015,11.015,0,0,0-11,11v61.765a11.015,11.015,0,0,0,11,11H50.943l-6.851,11.989H43.081a11.973,11.973,0,0,0-11.96,11.96,2.384,2.384,0,0,0,2.384,2.384H88.572a2.385,2.385,0,0,0,2.378-2.554,11.974,11.974,0,0,0-11.959-11.79h-1.01L71.13,133.974h39.941a11.015,11.015,0,0,0,11-11V61.207a11.015,11.015,0,0,0-11-11ZM85.777,155.539H36.3a7.2,7.2,0,0,1,6.785-4.807h35.91A7.2,7.2,0,0,1,85.777,155.539Zm-13.288-9.576h-22.9l6.851-11.989h9.2Z" transform="translate(0 -38.245)" fill="#636363"/>
            <circle id="XMLID_1138_" cx="23.93" cy="23.93" r="23.93" transform="translate(64.629 0)" fill="#d44f4a"/>
            <g id="Grupo_68321" data-name="Grupo 68321" transform="translate(9.576 11.434)">
              <path id="XMLID_1135_" d="M341.384,71.842a2.384,2.384,0,0,0,1.17-.307L359.483,62a2.384,2.384,0,0,0,0-4.155l-16.928-9.537A2.384,2.384,0,0,0,339,50.384V69.458A2.385,2.385,0,0,0,341.384,71.842Zm2.384-17.379,9.686,5.457-9.686,5.457Z" transform="translate(-267.75 -48)" fill="#fff"/>
              <path id="XMLID_1134_" d="M203.2,341.388a2.384,2.384,0,1,0,0,4.768h21.546a2.384,2.384,0,1,0,0-4.768Z" transform="translate(-162.512 -271.437)" fill="#636363"/>
              <path id="XMLID_1133_" d="M452.569,342.121a2.384,2.384,0,1,0,3.371,0,2.407,2.407,0,0,0-3.371,0C452.123,342.565,453.013,341.678,452.569,342.121Z" transform="translate(-353.717 -271.471)" fill="#636363"/>
              <path id="XMLID_1132_" d="M412.4,342.121a2.384,2.384,0,1,0,3.371,0,2.409,2.409,0,0,0-3.371,0Z" transform="translate(-323.127 -271.471)" fill="#636363"/>
              <path id="XMLID_1129_" d="M135.913,145.437H68.477a34.115,34.115,0,0,1,18.429-19.048,2.384,2.384,0,0,0-1.878-4.383A38.864,38.864,0,0,0,65.159,141.09,38.866,38.866,0,0,0,45.29,122.006a2.384,2.384,0,0,0-1.878,4.383,34.116,34.116,0,0,1,18.429,19.048H47.335a7.172,7.172,0,0,0,0,14.344h88.577a7.172,7.172,0,1,0,0-14.344Zm0,9.576H47.335a2.4,2.4,0,1,1,0-4.807c29.164,0,35.758,0,88.577,0a2.4,2.4,0,1,1,0,4.807Z" transform="translate(-40.163 -104.214)" fill="#636363"/>
            </g>
          </g>
        </g>
      </g>
      <rect id="Rect치ngulo_10018" data-name="Rect치ngulo 10018" width="190" height="123" transform="translate(285 403)" fill="none"/>
    </g>
  </g>
</svg>
