<svg xmlns="http://www.w3.org/2000/svg" xmlns:xlink="http://www.w3.org/1999/xlink" width="183.07" height="197.356" viewBox="0 0 183.07 197.356">
  <defs>
    <clipPath id="clip-path">
      <rect id="Rectángulo_10115" data-name="Rectángulo 10115" width="168.755" height="191.483" fill="none"/>
    </clipPath>
    <linearGradient id="linear-gradient" x1="0.5" x2="0.5" y2="1" gradientUnits="objectBoundingBox">
      <stop offset="0" stop-color="#fff"/>
      <stop offset="1" stop-color="#f8e2e2"/>
    </linearGradient>
  </defs>
  <g id="Grupo_68378" data-name="Grupo 68378" transform="translate(-911.685 -1629)">
    <g id="Grupo_68371" data-name="Grupo 68371" transform="translate(926 1634.873)">
      <g id="Grupo_68371-2" data-name="Grupo 68371" clip-path="url(#clip-path)">
        <path id="Trazado_139333" data-name="Trazado 139333" d="M168.754,107.107a83.98,83.98,0,1,1,0-.8q0,.4,0,.8" transform="translate(168.755 214.212) rotate(180)" fill="url(#linear-gradient)"/>
        <path id="Trazado_139334" data-name="Trazado 139334" d="M150.139,159.943c-3.192-22.123-19.352-81.919-22.771-86.929-2.754-4.039-10.336-6.3-14.539-7.283-1.739-.405-2.9-.59-2.9-.59l8.158,119.317a84.613,84.613,0,0,0,32.051-24.515" fill="#ed7d2b"/>
        <path id="Trazado_139335" data-name="Trazado 139335" d="M86.946,77.367c-.081.066.066,11.729,10.149,9.221,6.621-1.647,19.393-12.644,16.963-18.107-1.155-2.6-7.625-8.629-11.9-24.523l-1.15.571L81.67,54.15s2.218,6.3,3.884,12.361c1.4,5.083,2.409,9.995,1.392,10.856" fill="#f4a269"/>
        <path id="Trazado_139336" data-name="Trazado 139336" d="M73.373,58.251S102.479,64.826,106.3,46.64s10.144-29.59-8.277-34.559-23.5,1.212-26.248,6.973-5.866,37.017,1.606,39.2" fill="#ffb27d"/>
        <path id="Trazado_139337" data-name="Trazado 139337" d="M96.012,47.281c6.958,2.37,17.6-11.294,20.646-19.255,3.735-9.752-4.844-29.1-27.218-26.277A30.338,30.338,0,0,0,76.786,6.292c-4.9,3.191-17.931,11.462,3.13,20.281,7.919,3.315,10.04,18.644,16.1,20.707" fill="#163560"/>
        <path id="Trazado_139338" data-name="Trazado 139338" d="M85.222,36.225s2.906-5.914,5.6-4.772-1.036,10.686-2.8,10.582-2.8-5.809-2.8-5.809" fill="#ffb27d"/>
        <path id="Trazado_139339" data-name="Trazado 139339" d="M65.327,152.938h0a30.085,30.085,0,0,1,1.351,8.621c.094,6.812-1.9,13.771-4.662,21.2a25.9,25.9,0,0,1-2.406,5.011,84.35,84.35,0,0,0,76.969-14.4q-1.958-6.222-4.284-12.322a27.551,27.551,0,0,1-1.309-14.908c7.06-37.456,4.62-73.355,4.62-73.355-30.906-10.059-66.794-.285-67.48.735-4.844,7.209-10.381,29.125-8.228,49.4,1.264,11.9,3.253,23.069,5.428,30.017" fill="#f99746"/>
        <path id="Trazado_139340" data-name="Trazado 139340" d="M91.941,43.436v.128c-.063,1.806-.063,3.675,0,5.48a75.478,75.478,0,0,0,.774,9.6,46.615,46.615,0,0,0,2.449,9.926,21.261,21.261,0,0,0,4.06,7.155,39.022,39.022,0,0,1-1.931-7.283,77.41,77.41,0,0,1-.967-8.642A84.593,84.593,0,0,0,98,68.445a40.161,40.161,0,0,0,3.417,9.216,43.218,43.218,0,0,1,3.287,4.9c12.376,21.85-18.5,23.654-4.769,46.214a2.584,2.584,0,0,0,.579,1.1c.9.9,2.966,2.191,7.93,2.384a40.731,40.731,0,0,0,6.059-.194,122.861,122.861,0,0,0,19.207-3.8,4.241,4.241,0,0,0,.839-.258,31.481,31.481,0,0,0,7.992-3.416.064.064,0,0,0,.065-.063v0a28.4,28.4,0,0,0,7.025-5.929c2.707-3.158,5.286-7.026,5.673-10.763A28.631,28.631,0,0,1,150.34,123.1c10.185-3.545,16.759-13.725,18.177-25.458,1.032-8.7-1.031-18.564-11.473-26.169-12.375-9.024-25.46-19.98-22.816-29.455C140.41,20.1,122.364-6.451,103.607,1.412a5.7,5.7,0,0,0-1.739,1.22V2.7H101.8c-1.741,1.8-3.355,5.026-4.771,9.087v.064C94.2,20.1,92.2,31.893,91.941,43.43" fill="#163560"/>
        <path id="Trazado_139341" data-name="Trazado 139341" d="M66.679,161.559c.094,6.812-1.9,13.771-4.662,21.2a25.9,25.9,0,0,1-2.406,5.011,84.294,84.294,0,0,0,23.7,3.687c-5.417-18.884-4.8-37.836-4.8-38,4.163-13.013,5.37-29.133-3.1-45.805A57.251,57.251,0,0,0,59.9,122.922c1.264,11.9,3.253,23.069,5.428,30.016a30.119,30.119,0,0,1,1.351,8.621" fill="#ed7d2b"/>
        <path id="Trazado_139342" data-name="Trazado 139342" d="M50.872,184.549c13.048-20.665,36.206-64.489,30.795-79.466-2.32-6.424-6.631-32.387-12.011-31.952-4.9.391-11.934,10.358-13.522,16.645-6.456,25.563-15.262,75.055-22.038,80.73-.744.622-1.611,1.418-2.568,2.351a84.326,84.326,0,0,0,19.344,11.692" fill="#f99746"/>
      </g>
    </g>
    <g id="ordenador" transform="translate(911.685 1629)">
      <path id="Trazado_139343" data-name="Trazado 139343" d="M194.159,322.962l-9.709,5.063-.582,7.6h20.583l-.582-7.6Z" transform="translate(-157.635 -276.884)" fill="#7a8c98"/>
      <path id="Trazado_139344" data-name="Trazado 139344" d="M131.548,390.72a3.148,3.148,0,1,0,0,6.3h27.468a3.148,3.148,0,1,0,0-6.3Z" transform="translate(-110.081 -334.975)" fill="#9facba"/>
      <path id="Trazado_139345" data-name="Trazado 139345" d="M342.1,390.72H338.87a3.148,3.148,0,0,1,0,6.3H342.1a3.148,3.148,0,0,0,0-6.3Z" transform="translate(-290.522 -334.975)" fill="#8d9ca8"/>
      <path id="Trazado_139346" data-name="Trazado 139346" d="M188.2,322.962v1.829l-.248,3.234h19.418l-.248-3.234v-1.829Z" transform="translate(-161.134 -276.884)" fill="#596c76"/>
      <path id="Trazado_139347" data-name="Trazado 139347" d="M84.761,43.633V4.274A4.274,4.274,0,0,0,80.486,0H24.364A4.274,4.274,0,0,0,20.09,4.274V43.633a4.274,4.274,0,0,0,4.274,4.274H80.486A4.274,4.274,0,0,0,84.761,43.633Z" transform="translate(-17.224 0)" fill="#9facba"/>
      <path id="Trazado_139348" data-name="Trazado 139348" d="M442.522,0h-3.234a4.274,4.274,0,0,1,4.274,4.274V43.633a4.274,4.274,0,0,1-4.274,4.274h3.234a4.274,4.274,0,0,0,4.274-4.274V4.274A4.274,4.274,0,0,0,442.522,0Z" transform="translate(-376.613)" fill="#8d9ca8"/>
      <path id="Trazado_139349" data-name="Trazado 139349" d="M54.187,474.87a2.852,2.852,0,0,0-2.852-2.852H2.852a2.852,2.852,0,0,0,0,5.7H51.334a2.852,2.852,0,0,0,2.852-2.852Z" transform="translate(0 -404.674)" fill="#9facba"/>
      <path id="Trazado_139350" data-name="Trazado 139350" d="M358.916,472.018h-3.234a2.852,2.852,0,0,1,0,5.7h3.234a2.852,2.852,0,0,0,0-5.7Z" transform="translate(-304.936 -404.674)" fill="#8d9ca8"/>
      <path id="Trazado_139351" data-name="Trazado 139351" d="M436.031,453.517l-.154-.04a5.736,5.736,0,0,0-4.257,5.541v.676a2.133,2.133,0,0,0,2.133,2.133h4.263a2.133,2.133,0,0,0,2.133-2.133v-.676A5.736,5.736,0,0,0,436.031,453.517Z" transform="translate(-370.039 -388.778)" fill="#7a8c98"/>
      <path id="Trazado_139352" data-name="Trazado 139352" d="M462.095,452.124a5.732,5.732,0,0,0-1.617.233,5.735,5.735,0,0,1,4.117,5.5v.676a2.133,2.133,0,0,1-2.133,2.133H465.7a2.133,2.133,0,0,0,2.133-2.133v-.676A5.734,5.734,0,0,0,462.095,452.124Z" transform="translate(-394.78 -387.618)" fill="#596c76"/>
      <path id="Trazado_139353" data-name="Trazado 139353" d="M106.963,68.934V32.244a1.176,1.176,0,0,0-1.176-1.176H52.333a1.176,1.176,0,0,0-1.176,1.176v36.69a1.176,1.176,0,0,0,1.176,1.176h53.455A1.176,1.176,0,0,0,106.963,68.934Z" transform="translate(-43.858 -26.635)" fill="#eaf6ff"/>
      <path id="Trazado_139354" data-name="Trazado 139354" d="M434.938,31.068H432a1.176,1.176,0,0,1,1.176,1.176v36.69A1.176,1.176,0,0,1,432,70.11h2.94a1.176,1.176,0,0,0,1.176-1.176V32.244A1.176,1.176,0,0,0,434.938,31.068Z" transform="translate(-370.363 -26.635)" fill="#d8ecfe"/>
      <path id="Trazado_139355" data-name="Trazado 139355" d="M127.066,100.166H97.691v18.5a1.911,1.911,0,0,0,1.911,1.911h27.465V100.166Z" transform="translate(-83.753 -85.875)" fill="#6cabca"/>
      <path id="Trazado_139356" data-name="Trazado 139356" d="M127.066,64.4H97.691V60.355A1.911,1.911,0,0,1,99.6,58.444h25.554a1.911,1.911,0,0,1,1.911,1.911V64.4Z" transform="translate(-83.753 -50.106)" fill="#3692bc"/>
      <g id="Grupo_68373" data-name="Grupo 68373" transform="translate(17.217 18.396)">
        <g id="Grupo_68372" data-name="Grupo 68372">
          <path id="Trazado_139357" data-name="Trazado 139357" d="M127.879,131.144h-6.1a1.1,1.1,0,0,1,0-2.2h6.1a1.1,1.1,0,1,1,0,2.2Z" transform="translate(-120.673 -128.939)" fill="#c4e2ff"/>
        </g>
      </g>
      <g id="Grupo_68375" data-name="Grupo 68375" transform="translate(17.217 23.394)">
        <g id="Grupo_68374" data-name="Grupo 68374">
          <path id="Trazado_139358" data-name="Trazado 139358" d="M135.13,166.171H121.775a1.1,1.1,0,0,1,0-2.2H135.13a1.1,1.1,0,0,1,0,2.2Z" transform="translate(-120.673 -163.966)" fill="#c4e2ff"/>
        </g>
      </g>
      <g id="Grupo_68377" data-name="Grupo 68377" transform="translate(17.217 28.391)">
        <g id="Grupo_68376" data-name="Grupo 68376">
          <path id="Trazado_139359" data-name="Trazado 139359" d="M127.879,201.2h-6.1a1.1,1.1,0,1,1,0-2.2h6.1a1.1,1.1,0,0,1,0,2.2Z" transform="translate(-120.673 -198.992)" fill="#c4e2ff"/>
        </g>
      </g>
      <path id="Trazado_139360" data-name="Trazado 139360" d="M282.768,186.663H263.93a1.409,1.409,0,0,1-1.409-1.409V171.617h21.656v13.638A1.409,1.409,0,0,1,282.768,186.663Z" transform="translate(-225.066 -147.132)" fill="#fe99a0"/>
      <path id="Trazado_139361" data-name="Trazado 139361" d="M284.176,145.247H262.52v-2.98a1.409,1.409,0,0,1,1.409-1.409h18.839a1.409,1.409,0,0,1,1.409,1.409v2.98Z" transform="translate(-225.065 -120.761)" fill="#fe646f"/>
      <path id="Trazado_139362" data-name="Trazado 139362" d="M309.381,211.3H298.846a.441.441,0,0,1-.441-.441v-4.326a.441.441,0,0,1,.441-.441h10.535a.441.441,0,0,1,.441.441v4.326A.441.441,0,0,1,309.381,211.3Z" transform="translate(-255.83 -176.692)" fill="#c4e2ff"/>
    </g>
  </g>
</svg>
