<svg xmlns="http://www.w3.org/2000/svg" xmlns:xlink="http://www.w3.org/1999/xlink" width="134.78" height="162.073" viewBox="0 0 134.78 162.073">
  <defs>
    <clipPath id="clip-path">
      <rect id="Rectángulo_10098" data-name="Rectángulo 10098" width="134.78" height="133.334" fill="none"/>
    </clipPath>
    <linearGradient id="linear-gradient" x1="0.5" x2="0.5" y2="1" gradientUnits="objectBoundingBox">
      <stop offset="0" stop-color="#f8e2e2"/>
      <stop offset="1" stop-color="#fff"/>
    </linearGradient>
  </defs>
  <g id="Grupo_68365" data-name="Grupo 68365" transform="translate(-525 -893.262)">
    <g id="Grupo_68355" data-name="Grupo 68355" transform="translate(525 922)">
      <g id="Grupo_68353" data-name="Grupo 68353" clip-path="url(#clip-path)">
        <path id="Trazado_139224" data-name="Trazado 139224" d="M133.332,66.667A66.666,66.666,0,1,1,66.665,0a66.353,66.353,0,0,1,66.667,66.667" fill="url(#linear-gradient)"/>
        <path id="Trazado_139225" data-name="Trazado 139225" d="M167.378,109.109c-.516-.933-6.437-10.808-22.316-3.445,0,0,8.138-2.969,11.172-.266,0,0-7.336-1.525-10.913,1.97s-2.3,12.216-1.088,14.681,7.581,9.175,10.623,8.48a9.241,9.241,0,0,0,3.274-1.652,41.173,41.173,0,0,0-.2,4.8c.241,15.936,12.987,25.181,17.561,21.132,2.933-2.6,6.81,2.69,6.81,2.69l19.394-43.221s-24.7-18.862-34.313-5.172" transform="translate(-116.48 -83.874)" fill="#2c3a64"/>
        <path id="Trazado_139226" data-name="Trazado 139226" d="M289.157,407.181a44.521,44.521,0,0,1-15.562,6.623c-23.988,5.542-33.18-14.732-36.633-28.648a20.615,20.615,0,0,1,8.127-2.5c1.734-.2,3.557-.34,5.067-.415,2.693-2.063,6.707-10.507,7.595-23.617l1.128.3,18.9,5.174s-.866,6.01-1.29,11.69c-.328,4.445-.38,8.692.462,9.732,1.475.32,2.36.529,2.36.529a.05.05,0,0,0,.01.018,121.707,121.707,0,0,1,9.831,21.109" transform="translate(-193.045 -292.162)" fill="#ffb27d"/>
        <path id="Trazado_139227" data-name="Trazado 139227" d="M374.125,365.456s-.869,6-1.29,11.689c-10.71-1.072-15.681-11.27-17.616-16.863Z" transform="translate(-289.385 -293.51)" fill="#ed985f"/>
        <path id="Trazado_139228" data-name="Trazado 139228" d="M347.154,220.358s-24.725,6.078-28.273-9.378-9.129-25.08,6.507-29.614,20.068.657,22.507,5.528,5.6,31.485-.742,33.464" transform="translate(-256.569 -146.332)" fill="#ffb27d"/>
        <path id="Trazado_139229" data-name="Trazado 139229" d="M319.8,163.409c-4.9-3.774-7.564-2.091-8.87-.322-15.269-4.36-21.491,8.663-21.491,8.663a30.292,30.292,0,0,1-5.674,19.653s5.162,1.761,14.977-3.3c3-1.547,5.326-4.46,7.116-7.758a59.386,59.386,0,0,1-7.185,14.447c11.141-8.6,12.187-27.071,12.266-29.016,1.826,1.014,5.488,3.288,7.06,5.977,2.136,3.654,4.544,11.631,6.843,10.816,0,0,2.3-13.5-5.042-19.157" transform="translate(-231.173 -131.274)" fill="#2c3a64"/>
        <path id="Trazado_139230" data-name="Trazado 139230" d="M175.594,485.731a49,49,0,0,0-12.728-4.2.006.006,0,0,1,0,0v0a10.585,10.585,0,0,1-10.08,6.269c-7.214-.132-14.35-8.111-15.044-8.9l-.1-.008c-1.39-.1-16.937-1.208-21.012,1.222-5.356,3.19-12.306,11.772-19.064,22.063a66.732,66.732,0,0,0,73.49,16.209,66.674,66.674,0,0,0,17.678-10.563c-5.055-11.517-10.253-20.84-13.138-22.092" transform="translate(-79.482 -389.861)" fill="#d44f4a"/>
        <path id="Trazado_139231" data-name="Trazado 139231" d="M496.314,361.121s-10.557-19.486-13.243-21.1-15.142-3.276-17.216-3.271a2.54,2.54,0,0,0,1.436,2.11,66.259,66.259,0,0,0,8.644,2.817c1.648.366,3.481,3.643,3.737,4.669s-.383,5.311,1.175,7.8c1.034,1.653,2.855,1.708,4.9,4.163a22.608,22.608,0,0,1,2.559,5.394Z" transform="translate(-379.517 -274.342)" fill="#f4a36c"/>
        <path id="Trazado_139232" data-name="Trazado 139232" d="M513.523,389.189a10.23,10.23,0,0,1-4.027-5.168c-.918-2.431-4.96-5.524-4.96-5.524a4,4,0,0,1,3.693.658c1.49,1.391,5.7,2.46,5.7,2.46Z" transform="translate(-411.029 -308.191)" fill="#f4a36c"/>
        <path id="Trazado_139233" data-name="Trazado 139233" d="M475.178,350.746l-2.709,2.468a3.414,3.414,0,0,0,2.674.031,30.845,30.845,0,0,0,3.849-2.19Z" transform="translate(-384.905 -285.741)" fill="#f4a36c"/>
        <path id="Trazado_139234" data-name="Trazado 139234" d="M501.7,355.15s3.621,1.879,3.932,2.475,2.009,4.271,2.009,4.271,1.685,1.654,2.356.759-.783-6.913-1.6-7.486-6.7-.019-6.7-.019" transform="translate(-408.716 -289.132)" fill="#f4a36c"/>
        <path id="Trazado_139235" data-name="Trazado 139235" d="M600.342,480.593a66.878,66.878,0,0,1-8.442,11.46c-2.922-9.97-5.911-18.926-7.058-22.307l-.018-.051c-.3-.891-.471-1.38-.471-1.38l8.369-1.39.067-.01q3.945,6.947,7.553,13.678" transform="translate(-476.053 -380.38)" fill="#f4a36c"/>
      </g>
    </g>
    <g id="grafico-circular" transform="translate(612.441 893.262)">
      <path id="Trazado_139280" data-name="Trazado 139280" d="M257.255,0a.981.981,0,0,0-.981.981V22.552a.981.981,0,0,0,.981.981h21.571a.981.981,0,0,0,.981-.981A22.578,22.578,0,0,0,257.255,0Z" transform="translate(-232.468)" fill="#ffc200"/>
      <path id="Trazado_139281" data-name="Trazado 139281" d="M35.367,60.932,21.845,43.55V22.314a.981.981,0,0,0-.981-.981C9.51,21.333.274,31.45.274,43.885A22.577,22.577,0,0,0,22.826,66.437a16.753,16.753,0,0,0,12.388-4.146A.98.98,0,0,0,35.367,60.932Z" transform="matrix(1, 0.017, -0.017, 1, -2.231, -17.723)" fill="#bc332e"/>
      <path id="Trazado_139282" data-name="Trazado 139282" d="M298.2,277.333H278.59a.98.98,0,0,0-.763,1.6l12.747,15.78a.981.981,0,0,0,.694.363h.069a.981.981,0,0,0,.669-.263,22.639,22.639,0,0,0,7.175-16.5A.981.981,0,0,0,298.2,277.333Z" transform="translate(-252.823 -249.84)" fill="#fa9300"/>
    </g>
  </g>
</svg>
