<svg xmlns="http://www.w3.org/2000/svg" xmlns:xlink="http://www.w3.org/1999/xlink" width="150" height="150" viewBox="0 0 150 150">
  <defs>
    <linearGradient id="linear-gradient" x1="0.5" x2="0.5" y2="1" gradientUnits="objectBoundingBox">
      <stop offset="0" stop-color="#fff"/>
      <stop offset="1" stop-color="#fee9cc"/>
    </linearGradient>
  </defs>
  <g id="Grupo_70288" data-name="Grupo 70288" transform="translate(-725 -1978)">
    <circle id="Elipse_4467" data-name="Elipse 4467" cx="75" cy="75" r="75" transform="translate(875 2128) rotate(180)" fill="url(#linear-gradient)"/>
    <g id="Grupo_70268" data-name="Grupo 70268" transform="translate(752.235 2015.066)">
      <ellipse id="Elipse_4468" data-name="Elipse 4468" cx="40.5" cy="2.5" rx="40.5" ry="2.5" transform="translate(5.765 83.933)" fill="#a5a5a5"/>
      <g id="Grupo_70267" data-name="Grupo 70267" transform="translate(0 0)">
        <g id="Grupo_58643" data-name="Grupo 58643">
          <path id="Trazado_119637" data-name="Trazado 119637" d="M143.53,140.148H48V87.076A7.076,7.076,0,0,1,55.076,80h81.377a7.076,7.076,0,0,1,7.076,7.076Z" transform="translate(-48 -80)" fill="#463c4b"/>
        </g>
        <g id="Grupo_58644" data-name="Grupo 58644">
          <path id="Trazado_119638" data-name="Trazado 119638" d="M136.453,140.148H48V87.076A7.076,7.076,0,0,1,55.076,80h74.3a7.076,7.076,0,0,1,7.076,7.076Z" transform="translate(-48 -80)" fill="#555a6e"/>
        </g>
        <g id="Grupo_58645" data-name="Grupo 58645" transform="translate(0 60.148)">
          <path id="Trazado_119639" data-name="Trazado 119639" d="M55.076,366.152h81.377a7.076,7.076,0,0,0,7.076-7.076V352H48v7.076A7.076,7.076,0,0,0,55.076,366.152Z" transform="translate(-48 -352)" fill="#a5c3dc"/>
        </g>
        <g id="Grupo_58646" data-name="Grupo 58646" transform="translate(0 60.148)">
          <path id="Trazado_119640" data-name="Trazado 119640" d="M129.377,366.152h-74.3A7.076,7.076,0,0,1,48,359.076V352h88.453v7.076A7.076,7.076,0,0,1,129.377,366.152Z" transform="translate(-48 -352)" fill="#d7e6f0"/>
        </g>
        <g id="Grupo_58647" data-name="Grupo 58647" transform="translate(37.15 74.301)">
          <path id="Trazado_119641" data-name="Trazado 119641" d="M216,416h15.922v7.076H216Z" transform="translate(-216 -416)" fill="#a5c3dc"/>
        </g>
        <g id="Grupo_58648" data-name="Grupo 58648" transform="translate(37.15 77.839)">
          <path id="Trazado_119642" data-name="Trazado 119642" d="M216,432h10.614v3.538H216Z" transform="translate(-216 -432)" fill="#d7e6f0"/>
        </g>
        <g id="Grupo_58649" data-name="Grupo 58649" transform="translate(26.536 81.377)">
          <path id="Trazado_119643" data-name="Trazado 119643" d="M203.381,453.307H168v-1.769A3.538,3.538,0,0,1,171.538,448h28.305a3.538,3.538,0,0,1,3.538,3.538Z" transform="translate(-168 -448)" fill="#d7e6f0"/>
        </g>
        <g id="Grupo_58650" data-name="Grupo 58650" transform="translate(51.303 81.377)">
          <path id="Trazado_119644" data-name="Trazado 119644" d="M290.614,453.307H280v-1.769A3.538,3.538,0,0,1,283.538,448h3.538a3.538,3.538,0,0,1,3.538,3.538Z" transform="translate(-280 -448)" fill="#a5c3dc"/>
        </g>
      </g>
    </g>
    <g id="Grupo_70269" data-name="Grupo 70269" transform="translate(-69)">
      <rect id="Rectángulo_10226" data-name="Rectángulo 10226" width="63" height="63" rx="4" transform="translate(838 1997)" fill="#fff"/>
      <path id="Sustracción_1" data-name="Sustracción 1" d="M1240,11714h-63v-10a4,4,0,0,1,4-4h55a4,4,0,0,1,4,4v10Z" transform="translate(-339 -9703)" fill="#fa9300"/>
      <rect id="Rectángulo_10229" data-name="Rectángulo 10229" width="51" height="31" transform="translate(844 2015)" fill="#d44f4a"/>
      <path id="Polígono_1" data-name="Polígono 1" d="M6.136,1.481a1,1,0,0,1,1.728,0L13.123,10.5a1,1,0,0,1-.864,1.5H1.741a1,1,0,0,1-.864-1.5Z" transform="translate(876 2024) rotate(90)" fill="#fff"/>
      <rect id="Rectángulo_10230" data-name="Rectángulo 10230" width="51" height="2" transform="translate(844 2049)" fill="#fa9300"/>
      <rect id="Rectángulo_10231" data-name="Rectángulo 10231" width="2" height="6" transform="translate(853 2047)" fill="#ffc200"/>
      <rect id="Rectángulo_10232" data-name="Rectángulo 10232" width="34" height="7" transform="translate(844 2001)" fill="#fff"/>
      <circle id="Elipse_4469" data-name="Elipse 4469" cx="4" cy="4" r="4" transform="translate(889 2000)" fill="#fff" opacity="0.47"/>
    </g>
  </g>
</svg>
