<svg xmlns="http://www.w3.org/2000/svg" xmlns:xlink="http://www.w3.org/1999/xlink" width="180" height="197.567" viewBox="0 0 180 197.567">
  <defs>
    <clipPath id="clip-path">
      <rect id="Rectángulo_10113" data-name="Rectángulo 10113" width="170.424" height="197.566" fill="none"/>
    </clipPath>
    <linearGradient id="linear-gradient" x1="0.5" x2="0.5" y2="1" gradientUnits="objectBoundingBox">
      <stop offset="0" stop-color="#fff"/>
      <stop offset="1" stop-color="#f8e2e2"/>
    </linearGradient>
  </defs>
  <g id="Grupo_68379" data-name="Grupo 68379" transform="translate(-505 -1629)">
    <g id="Grupo_68366" data-name="Grupo 68366" transform="translate(505 1629)">
      <g id="Grupo_68366-2" data-name="Grupo 68366" transform="translate(0 0)" clip-path="url(#clip-path)">
        <path id="Trazado_139286" data-name="Trazado 139286" d="M170.424,189.171a85.212,85.212,0,1,1-85.213-85.213,84.811,84.811,0,0,1,85.213,85.213" transform="translate(170.424 301.525) rotate(180)" fill="url(#linear-gradient)"/>
        <path id="Trazado_139287" data-name="Trazado 139287" d="M238.308,263.788l15.629,8.307,13.076-5.033c2.132-3.727,2.159-10.535,1.657-16.385a100.512,100.512,0,0,0-1.514-10.67l-20.694-6.945-7.72-2.586c.031.113,1.137,6.038,1.3,6.9,2.813,15.369-1.731,26.408-1.731,26.408" transform="translate(-181.855 -173.365)" fill="#ffb27d"/>
        <path id="Trazado_139288" data-name="Trazado 139288" d="M66.785,520.383a85.326,85.326,0,0,0,24.387,18.08l-9.591-76.937S65.622,483.793,57.23,508.159a85.526,85.526,0,0,0,9.555,12.223" transform="translate(-43.673 -349.682)" fill="#bc332e"/>
        <path id="Trazado_139289" data-name="Trazado 139289" d="M132.813,444.631a85.335,85.335,0,0,0,80.64,9.208q.581-.234,1.158-.477c-1.216-8.852-2.458-17.7-3.637-25.957-3.183-22.253-5.937-40.251-6.631-42.611a220.725,220.725,0,0,0-12.024-31.6s-35.8-8.04-42.125-5.529c-15.9,6.308-22.267,49.421-23.86,91.95q3.115,2.658,6.478,5.019" transform="translate(-96.407 -262.42)" fill="#d44f4a"/>
        <path id="Trazado_139290" data-name="Trazado 139290" d="M249.651,245.849c4.663,6.449,19.367,11.115,27.118,13.16a100.452,100.452,0,0,0-1.514-10.67l-20.693-6.945c-4.4.347-6.989,1.575-4.911,4.455" transform="translate(-189.954 -181.697)" fill="#fca56b"/>
        <path id="Trazado_139291" data-name="Trazado 139291" d="M236.638,97.392s-31.119,12.945-38.883-6.558-17.009-30.968,2.532-40.058,26.388-3.194,30.562,2.686,13.684,40.061,5.789,43.93" transform="translate(-143.949 -32.651)" fill="#ffb27d"/>
        <path id="Trazado_139292" data-name="Trazado 139292" d="M183.373,16.815s.107,23.993-4.91,23.413-10.639-2.291-9.257,4.817-2.992,19.915-10.093,20.539c-15.229,1.338-35.365-36.2-31.881-43.991,10.056-22.479,71.12-32.452,56.142-4.779" transform="translate(-96.787 1.213)" fill="#163560"/>
        <path id="Trazado_139293" data-name="Trazado 139293" d="M259.842,314.653c-.429-.135-24.835-8.491-27.493-7.334s-5.3,9.844-5.3,9.844l42.13,5.53s-3.857-6.305-9.334-8.04" transform="translate(-173.261 -231.921)" fill="#bc332e"/>
        <path id="Trazado_139294" data-name="Trazado 139294" d="M621.239,422.72s.3-11.928,4.054-16.4,5.723-6.735,9.12-3.993.35,10.253-.987,13.114-3.662,8.226-3.662,8.226Z" transform="translate(-474.073 -303.597)" fill="#ffb27d"/>
        <path id="Trazado_139295" data-name="Trazado 139295" d="M292.115,626.205A84.537,84.537,0,0,0,307,621.749q.581-.234,1.158-.477c-1.216-8.852-2.458-17.7-3.637-25.957-14.264-24.728-28.555-15.973-55.6-28.1,0,0,6.962,30.966,43.2,58.995" transform="translate(-189.95 -430.33)" fill="#bc332e"/>
        <path id="Trazado_139296" data-name="Trazado 139296" d="M284.34,480.385q1.206-.627,2.388-1.291a85.528,85.528,0,0,0,21.237-16.843c.611-.667,1.208-1.347,1.8-2.033,6.888-20.781,8.68-48.722,8.68-48.722s-3.325-5.3-11.386-4.775c0,0-19.732,34.192-21.628,35.408-4.732,3.035-26.438-38.7-38.995-48.081s-25.313-7.457-25.313-7.457-51.7,48.466,63.22,93.795" transform="translate(-159.89 -292.373)" fill="#d44f4a"/>
      </g>
    </g>
    <g id="grafico" transform="translate(550.523 1629)">
      <path id="Trazado_139316" data-name="Trazado 139316" d="M129.291,111.714h-51.1A5.186,5.186,0,0,1,73,106.528V36.091a5.186,5.186,0,0,1,5.186-5.186h51.1a5.186,5.186,0,0,1,5.186,5.186v70.437A5.186,5.186,0,0,1,129.291,111.714Z" transform="translate(0 -25.714)" fill="#f78e36"/>
      <path id="Trazado_139317" data-name="Trazado 139317" d="M408.157,30.905v80.809a5.186,5.186,0,0,0,5.181-5.191V36.1A5.186,5.186,0,0,0,408.157,30.905Z" transform="translate(-278.861 -25.714)" fill="#f86f1b"/>
      <path id="Trazado_139318" data-name="Trazado 139318" d="M103.843,131.566V62.483a.672.672,0,0,1,.672-.672h49.772a.672.672,0,0,1,.672.672v69.083a.672.672,0,0,1-.672.672H104.515A.672.672,0,0,1,103.843,131.566Z" transform="translate(-25.662 -51.429)" fill="#f3f3f3"/>
      <path id="Trazado_139319" data-name="Trazado 139319" d="M183.131,5.191H148.869a1.038,1.038,0,0,1-1.038-1.038V1.038A1.038,1.038,0,0,1,148.869,0h34.262a1.038,1.038,0,0,1,1.038,1.038V4.153A1.038,1.038,0,0,1,183.131,5.191Z" transform="translate(-62.262 0)" fill="#a9dbf5"/>
      <path id="Trazado_139320" data-name="Trazado 139320" d="M332.274,0h-5.191a1.038,1.038,0,0,1,1.038,1.038V4.153a1.038,1.038,0,0,1-1.038,1.038h5.191a1.038,1.038,0,0,0,1.038-1.038V1.038A1.038,1.038,0,0,0,332.274,0Z" transform="translate(-211.405)" fill="#88c3e0"/>
      <path id="Trazado_139321" data-name="Trazado 139321" d="M197.083,23.405a1.26,1.26,0,0,0-1.26,1.26,8.093,8.093,0,0,1-8.084,8.084h-7.96a8.093,8.093,0,0,1-8.084-8.084,1.26,1.26,0,1,0-2.52,0,10.616,10.616,0,0,0,10.6,10.6h7.96a10.616,10.616,0,0,0,10.6-10.6A1.26,1.26,0,0,0,197.083,23.405Z" transform="translate(-80.021 -19.474)" fill="#43809f"/>
      <g id="Grupo_68369" data-name="Grupo 68369" transform="translate(88.165 51.133)">
        <path id="Trazado_139322" data-name="Trazado 139322" d="M173.666,386.914H163.284v-9a1.384,1.384,0,0,1,1.384-1.384h7.614a1.384,1.384,0,0,1,1.384,1.384v9Z" transform="translate(-163.284 -364.419)" fill="#7be492"/>
        <path id="Trazado_139323" data-name="Trazado 139323" d="M198,376.531h-3.807v10.382h5.191v-9A1.384,1.384,0,0,0,198,376.531Z" transform="translate(-188.998 -364.418)" fill="#45d987"/>
        <path id="Trazado_139324" data-name="Trazado 139324" d="M297.287,361.2H286.9V347.01a1.384,1.384,0,0,1,1.384-1.384H295.9a1.384,1.384,0,0,1,1.384,1.384V361.2Z" transform="translate(-266.141 -338.704)" fill="#f78e36"/>
        <path id="Trazado_139325" data-name="Trazado 139325" d="M321.618,345.626h-3.807V361.2H323V347.01A1.384,1.384,0,0,0,321.618,345.626Z" transform="translate(-291.855 -338.704)" fill="#f86f1b"/>
        <path id="Trazado_139326" data-name="Trazado 139326" d="M235.476,326.914H225.094V305.8a1.384,1.384,0,0,1,1.384-1.384h7.614a1.384,1.384,0,0,1,1.384,1.384v21.111Z" transform="translate(-214.712 -304.419)" fill="#29cef6"/>
        <path id="Trazado_139327" data-name="Trazado 139327" d="M259.807,304.419H256v22.5h5.191V305.8A1.384,1.384,0,0,0,259.807,304.419Z" transform="translate(-240.427 -304.419)" fill="#22b5ed"/>
      </g>
      <path id="Trazado_139328" data-name="Trazado 139328" d="M159.63,148.58a7.96,7.96,0,1,1-7.96-7.96v7.96Z" transform="translate(-58.834 -117)" fill="#ffc328"/>
      <path id="Trazado_139329" data-name="Trazado 139329" d="M199.059,148.58h-7.288a.672.672,0,0,1-.672-.672V140.62A7.959,7.959,0,0,1,199.059,148.58Z" transform="translate(-98.262 -117)" fill="#43809f"/>
      <path id="Trazado_139330" data-name="Trazado 139330" d="M287.617,153.642a7.96,7.96,0,1,1-6.145-13.021v7.96Z" transform="translate(-166.833 -117.001)" fill="#ffc328"/>
      <g id="Grupo_68370" data-name="Grupo 68370" transform="translate(84.506 23.62)">
        <path id="Trazado_139331" data-name="Trazado 139331" d="M328.861,148.58a7.933,7.933,0,0,1-1.815,5.061l-5.9-4.86a.672.672,0,0,1-.245-.519V140.62A7.959,7.959,0,0,1,328.861,148.58Z" transform="translate(-290.767 -140.62)" fill="#43809f"/>
        <path id="Trazado_139332" data-name="Trazado 139332" d="M178.705,430.842H142.76a1.26,1.26,0,1,0,0,2.52h35.945a1.26,1.26,0,1,0,0-2.52Z" transform="translate(-141.5 -382.094)" fill="#43809f"/>
      </g>
    </g>
  </g>
</svg>
