<svg xmlns="http://www.w3.org/2000/svg" xmlns:xlink="http://www.w3.org/1999/xlink" width="135" height="162.738" viewBox="0 0 135 162.738">
  <defs>
    <linearGradient id="linear-gradient" x1="0.5" x2="0.5" y2="1" gradientUnits="objectBoundingBox">
      <stop offset="0" stop-color="#f8e2e2"/>
      <stop offset="1" stop-color="#f8e2e2"/>
    </linearGradient>
    <clipPath id="clip-path">
      <rect id="Rectángulo_10099" data-name="Rectángulo 10099" width="135" height="135" fill="url(#linear-gradient)"/>
    </clipPath>
    <linearGradient id="linear-gradient-2" x1="0.5" x2="0.5" y2="1" gradientUnits="objectBoundingBox">
      <stop offset="0" stop-color="#f8e2e2"/>
      <stop offset="1" stop-color="#fff"/>
    </linearGradient>
  </defs>
  <g id="Grupo_68364" data-name="Grupo 68364" transform="translate(-0.271 0)">
    <g id="Grupo_68358" data-name="Grupo 68358" transform="translate(0.271 27.739)">
      <g id="Grupo_68357" data-name="Grupo 68357" transform="translate(0 0)" clip-path="url(#clip-path)">
        <path id="Trazado_139236" data-name="Trazado 139236" d="M0,67.438A67.437,67.437,0,1,0,67.438,0,67.12,67.12,0,0,0,0,67.438" transform="translate(-0.097 0.22)" fill="url(#linear-gradient-2)"/>
        <path id="Trazado_139237" data-name="Trazado 139237" d="M124.493,173.294a67.545,67.545,0,0,1-10.521,9.108q-.735.515-1.486,1.008a39.656,39.656,0,0,1-7.858-1.894c-.183.128-35.372-19.671-52.718-29.222-26-3.7-14.271-66.406,1.63-74.756,6.24-3.277,15.735-3.72,17.277-3.927,18.459-2.481,29.568,24.341,30.222,32.468,1.2,14.98,9.129,17.264,20.283,26.646,9.391,7.9,13.681,16.335,14.595,24.065a67.563,67.563,0,0,1-11.424,16.5" transform="translate(-8.007 -59.46)" fill="#233862"/>
        <path id="Trazado_139238" data-name="Trazado 139238" d="M324.036,334.127c-.081.041,8.2,3.808,14.181,1.833,5.625-1.853,10.579-10.321,10.5-10.334-2.441-.354-4.923-2.762-5.616-17.033l-1.081.272-18.177,4.594s.719,5.759,1.016,11.2c.251,4.571.2,8.922-.822,9.465" transform="translate(-274.653 -250.519)" fill="#ffb27d"/>
        <path id="Trazado_139239" data-name="Trazado 139239" d="M356.837,319.983s0,1.185.679,6.542c10.28-2.593,14.813-6,18.01-9.9Z" transform="translate(-307.648 -257.043)" fill="#ed975d"/>
        <path id="Trazado_139240" data-name="Trazado 139240" d="M329.152,166.026s24.037,3.914,26.244-11.093,6.8-24.608-8.458-27.741-19.085,2.154-21.039,6.983-2.942,30.446,3.254,31.851" transform="translate(-283.84 -102.36)" fill="#ffb27d"/>
        <path id="Trazado_139241" data-name="Trazado 139241" d="M289.616,116.285s10.916,17.231,20.661,21.312,14.532,2.009,14.532,2.009a41.043,41.043,0,0,1-5.588-15.748,7.389,7.389,0,0,0-4.564-5.938c-6.993-2.8-20.519-7.217-25.041-1.635" transform="translate(-244.328 -92.083)" fill="#233862"/>
        <path id="Trazado_139242" data-name="Trazado 139242" d="M441.247,116.831s-6.4,3.28-9.033,6.354c-2.543,2.967-5.48,11.016-5.27,14.631,0,0-3.156-17.324,3.418-23.28,6.971-6.315,10.885,2.294,10.885,2.294" transform="translate(-386.37 -90.963)" fill="#233862"/>
        <path id="Trazado_139243" data-name="Trazado 139243" d="M274.847,446.621a67.342,67.342,0,0,1-58.028-3.761q-2.145-1.2-4.19-2.556-.026-1.786-.054-3.687c-.358-23.832,20.106-45.036,20.106-45.036s.7,10.154,21.1-1.959c.723-.429,9.818,11.48,17.552,26.14,8.529,16.184,6.189,19.611,3.785,29.685-.095.4-.186.79-.275,1.176" transform="translate(-182.422 -316.347)" fill="#fa9300"/>
        <path id="Trazado_139244" data-name="Trazado 139244" d="M465.855,451.448l-.088-.048a67.283,67.283,0,0,1-10.133-6.967q-2.512-2.087-4.812-4.409c3.3-12.078,6.428-23.547,7.457-27.323,2.466-9.04,23.349-12.58,23.349-12.58l-7.561,26s-3.918,13.08-8.213,25.325" transform="translate(-431.37 -324.887)" fill="#fa9300"/>
        <path id="Trazado_139245" data-name="Trazado 139245" d="M149.148,439.338a67.292,67.292,0,0,1-10.751,6.14q-2.34,1.064-4.774,1.951c-5.371-8.476-11.649-18.213-11.649-20.741,0-4.581-7.429-37.019-7.429-37.019s20.919,1.223,27.79,10.805c4.023,5.611,9.692,18.835,14.15,32.92a67.46,67.46,0,0,1-7.337,5.945" transform="translate(-43.183 -316.395)" fill="#fa9300"/>
      </g>
    </g>
    <g id="idea" transform="translate(-2.512 0)">
      <path id="Trazado_139267" data-name="Trazado 139267" d="M120.833,119.547a16.379,16.379,0,0,0-4.946-7.564A19.87,19.87,0,0,1,108.76,96.71a20.077,20.077,0,1,1,33.02,15.273,15.608,15.608,0,0,0-5.091,7.564Z" transform="translate(-105.977 -76.61)" fill="#ffc200"/>
      <path id="Trazado_139268" data-name="Trazado 139268" d="M208.94,240.68h-1.309l5.818-21.674h-.436a2.872,2.872,0,0,1-2.036-.873,1.406,1.406,0,0,0-2.037,0,2.485,2.485,0,0,1-3.782,0,1.321,1.321,0,0,0-1.018-.436,1.572,1.572,0,0,0-1.018.436,2.641,2.641,0,0,1-2.036.873h-.436l5.673,21.674h-1.309l-5.964-22.692c0-.291,0-.582.291-.727a.639.639,0,0,1,.727.145,1.257,1.257,0,0,0,.873.436,1.934,1.934,0,0,0,1.164-.436,2.485,2.485,0,0,1,3.782,0,1.406,1.406,0,0,0,2.036,0,2.345,2.345,0,0,1,1.891-.873h0a2.345,2.345,0,0,1,1.891.873,1.652,1.652,0,0,0,1.164.436,1.037,1.037,0,0,0,.873-.436.64.64,0,0,1,.727-.145.531.531,0,0,1,.291.727Z" transform="translate(-184.193 -197.453)" fill="#fff"/>
      <g id="Grupo_68361" data-name="Grupo 68361" transform="translate(14.856 42.791)">
        <path id="Trazado_139269" data-name="Trazado 139269" d="M231.952,489.6a4.856,4.856,0,0,1-9.019,0Z" transform="translate(-219.442 -476.072)" fill="#344a5e"/>
        <path id="Trazado_139270" data-name="Trazado 139270" d="M201.018,404.073h10.619a2.607,2.607,0,0,0,2.618-2.618V390.4H198.4v11.055A2.608,2.608,0,0,0,201.018,404.073Z" transform="translate(-198.4 -390.399)" fill="#344a5e"/>
      </g>
      <g id="Grupo_68362" data-name="Grupo 68362" transform="translate(13.401 45.119)">
        <path id="Trazado_139271" data-name="Trazado 139271" d="M188.267,410.667h15.71a1.614,1.614,0,0,0,1.6-1.6h0a1.614,1.614,0,0,0-1.6-1.6h-15.71a1.614,1.614,0,0,0-1.6,1.6h0A1.614,1.614,0,0,0,188.267,410.667Z" transform="translate(-186.667 -407.467)" fill="#415a6b"/>
        <path id="Trazado_139272" data-name="Trazado 139272" d="M188.267,448h15.71a1.614,1.614,0,0,0,1.6-1.6h0a1.614,1.614,0,0,0-1.6-1.6h-15.71a1.614,1.614,0,0,0-1.6,1.6h0A1.614,1.614,0,0,0,188.267,448Z" transform="translate(-186.667 -439.71)" fill="#415a6b"/>
      </g>
    </g>
  </g>
</svg>
