<?xml version="1.0" encoding="utf-8"?>
<!-- Generator: Adobe Illustrator 26.0.1, SVG Export Plug-In . SVG Version: 6.00 Build 0)  -->
<svg version="1.1" id="Capa_1" xmlns="http://www.w3.org/2000/svg" xmlns:xlink="http://www.w3.org/1999/xlink" x="0px" y="0px"
	 viewBox="0 0 505 506.9" style="enable-background:new 0 0 505 506.9;" xml:space="preserve">
<style type="text/css">
	.st0{fill:url(#Trazado_155921_00000054956412069081444770000017079357907705255824_);}
	.st1{enable-background:new    ;}
	.st2{fill:#607B82;}
	.st3{clip-path:url(#SVGID_00000018236916888814191570000014254839826491228860_);}
	.st4{fill:#E8E8E8;}
	.st5{clip-path:url(#SVGID_00000111912134079570784490000009707960657839724176_);}
	.st6{fill:#F5F5F5;}
	.st7{clip-path:url(#SVGID_00000047743243956707803710000017524060810051881654_);}
	.st8{fill:#FA9300;}
	.st9{clip-path:url(#SVGID_00000138553624986663628510000010886632672857887874_);}
	.st10{fill:#932420;}
	.st11{clip-path:url(#SVGID_00000119815841976140459490000003651011105714568110_);}
	.st12{fill:#D44F4A;}
	.st13{fill:#FFFFFF;}
</style>
<g id="Grupo_70309" transform="translate(-810 -3306)">
	<g id="Grupo_69424" transform="translate(0 801)">
		
			<linearGradient id="Trazado_155921_00000018205504931356607140000012511899040423765170_" gradientUnits="userSpaceOnUse" x1="1530.7262" y1="138.313" x2="1530.7227" y2="137.3135" gradientTransform="matrix(402 0 0 152.236 -614288 -18296.6172)">
			<stop  offset="0" style="stop-color:#FFF8E3"/>
			<stop  offset="1" style="stop-color:#FFFDFD"/>
		</linearGradient>
		<path id="Trazado_155921" style="fill:url(#Trazado_155921_00000018205504931356607140000012511899040423765170_);" d="
			M824.4,2578.9h477.3V2751H1081c0,0-9.7,8.6-16,8.6c-4.5,0-16.4-8.6-16.4-8.6H824.4V2578.9z"/>
		<g class="st1">
			<path class="st2" d="M973.9,2665.7c0,0.8-0.3,1.4-0.8,1.9s-1.2,0.7-2,0.7s-1.5-0.2-2-0.7s-0.8-1.1-0.8-1.9c0-0.8,0.3-1.4,0.8-1.9
				s1.2-0.7,2-0.7s1.5,0.2,2,0.7S973.9,2664.9,973.9,2665.7z M969,2671h4.2l0.6,17.5h-5.3L969,2671z"/>
			<path class="st2" d="M985.8,2682.2h-5.2v-25.3h5.2V2682.2z"/>
			<path class="st2" d="M995,2663.4l0.2,2.1c1.3-1.6,3.1-2.5,5.4-2.5c2.4,0,4.1,1,5,2.9c1.3-1.9,3.2-2.9,5.7-2.9
				c2,0,3.6,0.6,4.6,1.8s1.5,3,1.5,5.4v12h-5v-12c0-1.1-0.2-1.9-0.6-2.3c-0.4-0.5-1.2-0.7-2.2-0.7c-1.5,0-2.6,0.7-3.1,2.2v13h-5v-12
				c0-1.1-0.2-1.9-0.6-2.4s-1.2-0.7-2.2-0.7c-1.4,0-2.5,0.6-3.1,1.8v13.3h-5v-18.8h4.4V2663.4z"/>
			<path class="st2" d="M1038.1,2672.9c0,2.9-0.7,5.2-2,7c-1.3,1.7-3.1,2.6-5.3,2.6c-1.9,0-3.4-0.7-4.6-2v8.9h-5v-26.1h4.7l0.2,1.8
				c1.2-1.5,2.8-2.2,4.8-2.2c2.3,0,4.1,0.9,5.4,2.6c1.3,1.7,1.9,4.1,1.9,7.1L1038.1,2672.9L1038.1,2672.9z M1033.1,2672.6
				c0-1.8-0.3-3.1-0.9-4.1s-1.5-1.4-2.7-1.4c-1.6,0-2.7,0.6-3.3,1.8v7.7c0.6,1.2,1.7,1.9,3.3,1.9
				C1031.9,2678.5,1033.1,2676.5,1033.1,2672.6z"/>
			<path class="st2" d="M1040.4,2672.6c0-1.9,0.4-3.5,1.1-5s1.8-2.6,3.1-3.4c1.4-0.8,2.9-1.2,4.7-1.2c2.5,0,4.6,0.8,6.2,2.3
				c1.6,1.6,2.5,3.7,2.7,6.3v1.3c0,2.9-0.8,5.2-2.4,6.9s-3.8,2.6-6.5,2.6s-4.9-0.9-6.5-2.6c-1.6-1.7-2.4-4.1-2.4-7.1L1040.4,2672.6
				L1040.4,2672.6z M1045.4,2673c0,1.8,0.3,3.2,1,4.1c0.7,0.9,1.6,1.4,2.9,1.4c1.2,0,2.2-0.5,2.9-1.4c0.7-0.9,1-2.4,1-4.5
				c0-1.8-0.3-3.1-1-4.1s-1.6-1.4-2.9-1.4c-1.2,0-2.2,0.5-2.9,1.4C1045.8,2669.5,1045.4,2670.9,1045.4,2673z"/>
			<path class="st2" d="M1071.9,2668.1c-0.7-0.1-1.3-0.1-1.8-0.1c-1.9,0-3.1,0.6-3.7,1.9v12.3h-5v-18.8h4.7l0.1,2.2
				c1-1.7,2.4-2.6,4.2-2.6c0.6,0,1.1,0.1,1.6,0.2L1071.9,2668.1z"/>
			<path class="st2" d="M1081.2,2658.7v4.6h3.2v3.7h-3.2v9.4c0,0.7,0.1,1.2,0.4,1.5s0.8,0.5,1.5,0.5c0.6,0,1,0,1.5-0.1v3.8
				c-1,0.3-2,0.5-3,0.5c-3.5,0-5.3-1.8-5.4-5.3V2667h-2.7v-3.7h2.7v-4.6H1081.2z"/>
			<path class="st2" d="M1098.1,2682.2c-0.2-0.5-0.4-1-0.5-1.7c-1.2,1.4-2.8,2-4.7,2c-1.8,0-3.4-0.5-4.6-1.6s-1.8-2.4-1.8-4
				c0-2,0.7-3.5,2.2-4.6s3.6-1.6,6.4-1.6h2.3v-1.1c0-0.9-0.2-1.6-0.7-2.1c-0.4-0.5-1.2-0.8-2.1-0.8c-0.8,0-1.5,0.2-2,0.6
				c-0.5,0.4-0.7,1-0.7,1.7h-5c0-1.1,0.3-2.1,1-3s1.6-1.7,2.9-2.2c1.2-0.5,2.6-0.8,4.1-0.8c2.3,0,4.2,0.6,5.5,1.7
				c1.4,1.2,2,2.8,2,4.9v8.2c0,1.8,0.3,3.1,0.7,4.1v0.3L1098.1,2682.2L1098.1,2682.2z M1094,2678.7c0.7,0,1.4-0.2,2.1-0.5
				c0.6-0.3,1.1-0.8,1.4-1.3v-3.2h-1.9c-2.5,0-3.9,0.9-4,2.6v0.3c0,0.6,0.2,1.1,0.7,1.5C1092.6,2678.5,1093.2,2678.7,1094,2678.7z"
				/>
			<path class="st2" d="M1111,2663.4l0.2,2.2c1.3-1.7,3.1-2.5,5.4-2.5c2,0,3.5,0.6,4.5,1.8s1.5,2.9,1.5,5.3v12.2h-5v-12.1
				c0-1.1-0.2-1.8-0.7-2.3s-1.2-0.7-2.3-0.7c-1.4,0-2.5,0.6-3.2,1.8v13.3h-5v-18.8h4.6V2663.4z"/>
			<path class="st2" d="M1132.3,2658.7v4.6h3.2v3.7h-3.2v9.4c0,0.7,0.1,1.2,0.4,1.5s0.8,0.5,1.5,0.5c0.6,0,1,0,1.5-0.1v3.8
				c-1,0.3-2,0.5-3,0.5c-3.5,0-5.3-1.8-5.4-5.3V2667h-2.7v-3.7h2.7v-4.6H1132.3z"/>
			<path class="st2" d="M1147,2682.5c-2.8,0-5-0.8-6.7-2.5s-2.6-3.9-2.6-6.8v-0.5c0-1.9,0.4-3.6,1.1-5.1s1.8-2.6,3.1-3.4
				c1.3-0.8,2.9-1.2,4.6-1.2c2.6,0,4.6,0.8,6.1,2.4c1.5,1.6,2.2,3.9,2.2,6.9v2.1h-12c0.2,1.2,0.7,2.2,1.5,3c0.8,0.7,1.9,1.1,3.1,1.1
				c1.9,0,3.4-0.7,4.5-2.1l2.5,2.8c-0.8,1.1-1.8,1.9-3.1,2.5C1150,2682.2,1148.5,2682.5,1147,2682.5z M1146.4,2667.1
				c-1,0-1.8,0.3-2.4,1s-1,1.6-1.2,2.9h7v-0.4c0-1.1-0.3-2-0.9-2.6S1147.5,2667.1,1146.4,2667.1z"/>
			<path class="st2" d="M1162.5,2677.2c0.8,0,1.5,0.2,2,0.7s0.8,1.1,0.8,1.9c0,0.8-0.3,1.4-0.8,1.9s-1.2,0.7-2,0.7s-1.5-0.2-2-0.7
				s-0.8-1.1-0.8-1.9s0.3-1.4,0.8-1.9C1160.9,2677.4,1161.6,2677.2,1162.5,2677.2z M1164.5,2674.4h-4.2l-0.6-17.5h5.4L1164.5,2674.4
				z"/>
		</g>
		<g id="Grupo_69422" transform="translate(860 2519.001)">
			<g id="Grupo_69365">
				<g>
					<g>
						<defs>
							<path id="SVGID_1_" d="M135,55.5H-30c-4.4,0-8,3.6-8,8v160.7c0.1,2.4,1.1,4.7,3,6.2l3.1,3.1c1.6,1.9,3.9,3,6.3,3H187
								c0.7,0,1.3,0.2,1.8,0.7l12.8,10.8c3,2.5,7.3,2.5,10.3,0l12.8-10.8c0.5-0.4,1.2-0.7,1.8-0.7H436c4.4,0,8-3.6,8-8V67.9
								c0-2.2-0.9-4.2-2.4-5.7l-3.3-3.3c-1.6-2.1-4.1-3.3-6.7-3.4h-160c-1.4,0-2.6,1.2-2.6,2.6c0,0.7,0.3,1.4,0.8,1.9
								c0.4,0.4,0.8,0.8,1.1,1.1c1,1,2.1,2.1,3.1,3.1c0.5,0.5,1.2,0.8,1.9,0.8h158.3v159c0,1.6-1.3,2.8-2.8,2.8H222.1
								c-1.9,0-3.7,0.7-5.2,1.9l-12.8,10.8c-1,0.9-2.6,0.9-3.6,0l-12.8-10.8c-1.4-1.2-3.3-1.9-5.2-1.9h-211v-159
								c0-1.6,1.3-2.8,2.8-2.8h165c1.4,0,2.6-1.2,2.6-2.6c0-0.9-0.4-1.6-1.1-2.1c-1-1-2-2-3-3C137,56.5,136.3,55.5,135,55.5
								L135,55.5"/>
						</defs>
						<clipPath id="SVGID_00000093859641388921818440000006142831367681526167_">
							<use xlink:href="#SVGID_1_"  style="overflow:visible;"/>
						</clipPath>
						<g id="Grupo_69364" style="clip-path:url(#SVGID_00000093859641388921818440000006142831367681526167_);">
							
								<rect id="Rect치ngulo_7636" x="-40.2" y="49.7" transform="matrix(0.9997 -2.383932e-02 2.383932e-02 0.9997 -3.5801 4.8838)" class="st4" width="486.5" height="205.8"/>
						</g>
					</g>
				</g>
			</g>
			<g id="Grupo_69407">
				<g>
					<g>
						<defs>
							<rect id="SVGID_00000001645733147630084380000002589213461491098041_" x="-38" y="-1.8" width="482" height="251.7"/>
						</defs>
						<clipPath id="SVGID_00000127722914336775371390000014058921825516061106_">
							<use xlink:href="#SVGID_00000001645733147630084380000002589213461491098041_"  style="overflow:visible;"/>
						</clipPath>
						<g id="Grupo_69406" style="clip-path:url(#SVGID_00000127722914336775371390000014058921825516061106_);">
							<path id="Trazado_155892" class="st6" d="M185.8,90.3c-1-1.2-2.1-2.3-3.1-3.6c-0.5-0.6-1-1.2-1.5-1.9
								c-0.5-0.6-0.9-1.3-1.4-1.9c-1.8-2.6-3.4-5.4-4.6-8.3c-1.2-2.9-2.1-6-2.7-9.1l-0.4-2.3l-0.2-2.4c0-0.4-0.1-0.8-0.1-1.2v-1.2
								l-0.1-2.4l0.2,2.4l0.1,1.2c0,0.4,0.1,0.8,0.1,1.2l0.3,2.4l0.4,2.3c0.6,3.1,1.6,6.1,2.8,9s2.7,5.7,4.5,8.3
								C181.8,85.4,183.8,87.8,185.8,90.3"/>
						</g>
					</g>
				</g>
			</g>
			<g id="Grupo_69409">
				<g>
					<g>
						<defs>
							<path id="SVGID_00000018221253445166725110000009727499363747989888_" d="M270.5,55.5c-1.4,0-2.6,1.2-2.6,2.6v0.1
								c0.1,1.4,1.3,2.5,2.7,2.5h161.1c1.6,0,2.8,1.3,2.8,2.8V224c0,1.6-1.3,2.9-2.9,2.9H222.1c-1.9,0-3.7,0.7-5.2,1.9l-12.8,10.8
								c-1,0.9-2.6,0.9-3.6,0l-12.8-10.8c-1.4-1.2-3.3-1.9-5.2-1.9H-30c-1.6,0-2.8-1.3-2.8-2.8l0,0V63.8c0-1.8,1.4-3.2,3.2-3.2
								h165.8c1.4,0,2.6-1.2,2.6-2.6v-0.1c-0.1-1.4-1.3-2.5-2.7-2.5H-30c-4.4,0-8,3.6-8,8l0,0V224c0,4.4,3.6,8,8,8l0,0h212.6
								c0.7,0,1.3,0.2,1.8,0.7l12.7,10.8c3,2.5,7.3,2.5,10.3,0l12.8-10.8c0.5-0.4,1.2-0.7,1.8-0.7h209.5c4.4,0,8-3.6,8-8V63.5
								c0-4.4-3.6-8-8-8H270.5z"/>
						</defs>
						<clipPath id="SVGID_00000093894484897763771810000016136561098384678034_">
							<use xlink:href="#SVGID_00000018221253445166725110000009727499363747989888_"  style="overflow:visible;"/>
						</clipPath>
						<g id="Grupo_69408" style="clip-path:url(#SVGID_00000093894484897763771810000016136561098384678034_);">
							
								<rect id="Rect치ngulo_7655" x="-38.6" y="54" transform="matrix(1 -6.125953e-03 6.125953e-03 1 -0.9179 1.2326)" class="st8" width="478.7" height="192.9"/>
						</g>
					</g>
				</g>
			</g>
		</g>
		<g id="Grupo_69423" transform="translate(1020 2519)">
			<g id="Grupo_69416" transform="translate(3.636 3.597)">
				<g>
					<g>
						<defs>
							<path id="SVGID_00000027596685925849823320000013696703810300584889_" d="M-7.4,47.1c0,26.7,21.6,48.3,48.3,48.3
								s48.3-21.6,48.3-48.3S67.6-1.2,40.9-1.2l0,0C14.3-1.2-7.4,20.5-7.4,47.1"/>
						</defs>
						<clipPath id="SVGID_00000123413754347713334320000008492018788404589705_">
							<use xlink:href="#SVGID_00000027596685925849823320000013696703810300584889_"  style="overflow:visible;"/>
						</clipPath>
						<g id="Grupo_69415" style="clip-path:url(#SVGID_00000123413754347713334320000008492018788404589705_);">
							<rect id="Rect치ngulo_7656" x="-7.4" y="-1.2" class="st10" width="96.6" height="96.6"/>
						</g>
					</g>
				</g>
			</g>
			<g id="Grupo_69418" transform="translate(0 0)">
				<g>
					<g>
						<defs>
							<path id="SVGID_00000075164455472198568340000016306579183938782621_" d="M39.6-1.8C13.3-1.8-8,19.5-8.1,45.8
								c0,12.6,5,24.8,14,33.7c18.6,18.6,48.8,18.6,67.4,0s18.6-48.8,0-67.4C64.4,3.2,52.3-1.9,39.6-1.8z"/>
						</defs>
						<clipPath id="SVGID_00000133524254281355875820000003536924118897608578_">
							<use xlink:href="#SVGID_00000075164455472198568340000016306579183938782621_"  style="overflow:visible;"/>
						</clipPath>
						
							<g id="Grupo_69417" transform="translate(0 0)" style="clip-path:url(#SVGID_00000133524254281355875820000003536924118897608578_);">
							
								<rect id="Rect치ngulo_7657" x="-25.4" y="-19.2" transform="matrix(0.8682 -0.4961 0.4961 0.8682 -17.5058 25.6658)" class="st12" width="130" height="130"/>
						</g>
					</g>
				</g>
			</g>
			<g id="megafono_2_" transform="translate(0.164 9.993) rotate(-21)">
				<path id="Trazado_156573" class="st13" d="M-3.8,40.9c0-0.1-0.1-0.2-0.2-0.2c0,0,0,0-0.1,0l-1.7,0.6c-1.1,0.4-1.8,1.3-1.8,2.4
					l0,6.1c0,1.1,0.7,2.1,1.8,2.4l1.7,0.6c0.1,0,0.3,0,0.3-0.2c0,0,0,0,0-0.1C-3.8,50.8-3.8,42.6-3.8,40.9z"/>
				<path id="Trazado_156574" class="st13" d="M12.7,36.9H1.9c-2.1,0-3.7,1.7-3.7,3.7l0,12.2c0,2.1,1.7,3.7,3.7,3.7h10.9
					c0.2,0,0.4-0.2,0.4-0.4l0,0l0-18.9C13.1,37,12.9,36.9,12.7,36.9L12.7,36.9z"/>
				<path id="Trazado_156575" class="st13" d="M15,37l0,19.4c0,0.2,0.1,0.3,0.3,0.3L28.9,59c3.8,0.6,7.5,1.8,11,3.5
					c0.1,0.1,0.3,0,0.3-0.1v-0.1l0-31.1c0-0.1-0.1-0.2-0.2-0.2h-0.1c-3.5,1.7-7.2,2.8-11,3.5l-13.6,2.3C15.1,36.7,15,36.8,15,37z"/>
				<path id="Trazado_156576" class="st13" d="M47.2,25.6c-2.8,0-5.1,2.3-5.1,5.1l0,31.8c0,2.8,2.4,5.1,5.2,5.1c2.8,0,5-2.3,5.1-5.1
					l0-31.8C52.4,28,50.1,25.6,47.2,25.6z"/>
				<path id="Trazado_156577" class="st13" d="M17.8,68.4l0-7l0.8-1.9c0-0.1,0-0.3-0.1-0.3l0,0l-4.2-0.7c-0.3,0-0.5-0.1-0.8-0.1
					l-6.9,0c-0.1,0-0.2,0.1-0.2,0.2v0.1l1.1,1.8l0,10.5c0,1.8,0.8,3.5,2.1,4.6l3.9,3.3c1.7,1.4,4.2,1.3,5.7-0.4
					c0.1-0.1,0.2-0.3,0.3-0.4c1.3-1.9,1.1-1.4,1.1-4.7c0-0.8-0.3-1.6-0.7-2.2L17.8,68.4z"/>
			</g>
		</g>
	</g>
</g>
</svg>
