<?xml version="1.0" encoding="utf-8"?>
<!-- Generator: Adobe Illustrator 26.0.1, SVG Export Plug-In . SVG Version: 6.00 Build 0)  -->
<svg version="1.1" id="Capa_1" xmlns="http://www.w3.org/2000/svg" xmlns:xlink="http://www.w3.org/1999/xlink" x="0px" y="0px"
	 viewBox="0 0 505 506.9" style="enable-background:new 0 0 505 506.9;" xml:space="preserve">
<style type="text/css">
	.st0{fill:url(#Trazado_155921_00000043434101854325994410000004225581667862518912_);}
	.st1{enable-background:new    ;}
	.st2{fill:#607B82;}
	.st3{clip-path:url(#SVGID_00000130627869142029366030000005491247960471895462_);}
	.st4{fill:#E8E8E8;}
	.st5{clip-path:url(#SVGID_00000008115379420639922900000008188543909311942799_);}
	.st6{fill:#F5F5F5;}
	.st7{clip-path:url(#SVGID_00000119091887179364599980000001959908713562609839_);}
	.st8{fill:#FA9300;}
	.st9{clip-path:url(#SVGID_00000155857802630821358490000016999901360186713758_);}
	.st10{fill:#932420;}
	.st11{clip-path:url(#SVGID_00000170962821450628623360000000216710233891152027_);}
	.st12{fill:#D44F4A;}
	.st13{fill:#FFFFFF;}
	.st14{fill:none;stroke:#D44F4A;}
	.st15{fill:none;stroke:#D44F4A;stroke-width:2;}
</style>
<g id="Grupo_70308" transform="translate(-285 -3307)">
	<g id="Grupo_69424" transform="translate(-525 802)">
		
			<linearGradient id="Trazado_155921_00000075850068831477969330000009435816897257701553_" gradientUnits="userSpaceOnUse" x1="1530.7262" y1="138.3018" x2="1530.7227" y2="137.3043" gradientTransform="matrix(402 0 0 152.236 -614288 -18296.6172)">
			<stop  offset="0" style="stop-color:#FFF8E3"/>
			<stop  offset="1" style="stop-color:#FFFDFD"/>
		</linearGradient>
		<path id="Trazado_155921" style="fill:url(#Trazado_155921_00000075850068831477969330000009435816897257701553_);" d="
			M824.9,2577.5h476.3v171.8H1081c0,0-9.7,8.6-16,8.6c-4.5,0-16.4-8.6-16.4-8.6H824.9V2577.5z"/>
		<g class="st1">
			<path class="st2" d="M974.1,2664.1c0,0.8-0.3,1.4-0.8,1.9s-1.2,0.7-2,0.7s-1.5-0.2-2-0.7s-0.8-1.1-0.8-1.9c0-0.8,0.3-1.4,0.8-1.9
				s1.2-0.7,2-0.7s1.5,0.2,2,0.7C973.9,2662.7,974.1,2663.3,974.1,2664.1z M969.3,2669.4h4.2l0.6,17.5h-5.3L969.3,2669.4z"/>
			<path class="st2" d="M994.7,2675.3h-9.1l-1.7,5.2h-5.5l9.4-25.3h4.8l9.5,25.3h-5.5L994.7,2675.3z M987,2671.1h6.3l-3.2-9.5
				L987,2671.1z"/>
			<path class="st2" d="M1009.7,2657.1v4.6h3.2v3.7h-3.2v9.4c0,0.7,0.1,1.2,0.4,1.5c0.3,0.3,0.8,0.5,1.5,0.5c0.6,0,1,0,1.5-0.1v3.8
				c-1,0.3-2,0.5-3,0.5c-3.5,0-5.3-1.8-5.4-5.3v-10.1h-2.7v-3.7h2.7v-4.6h5V2657.1z"/>
			<path class="st2" d="M1024.4,2680.9c-2.8,0-5-0.8-6.7-2.5s-2.6-3.9-2.6-6.8v-0.5c0-1.9,0.4-3.6,1.1-5.1c0.7-1.5,1.8-2.6,3.1-3.4
				c1.3-0.8,2.9-1.2,4.6-1.2c2.6,0,4.6,0.8,6.1,2.4c1.5,1.6,2.2,3.9,2.2,6.9v2h-12c0.2,1.2,0.7,2.2,1.5,3c0.8,0.7,1.8,1.1,3.1,1.1
				c1.9,0,3.4-0.7,4.5-2.1l2.5,2.8c-0.8,1.1-1.8,1.9-3.1,2.5C1027.4,2680.6,1025.9,2680.9,1024.4,2680.9z M1023.8,2665.5
				c-1,0-1.8,0.3-2.4,1s-1,1.6-1.2,2.9h7v-0.4c0-1.1-0.3-2-0.9-2.6C1025.7,2665.8,1024.9,2665.5,1023.8,2665.5z"/>
			<path class="st2" d="M1039.6,2661.8l0.2,2.2c1.3-1.7,3.1-2.5,5.4-2.5c2,0,3.5,0.6,4.4,1.8s1.5,2.9,1.5,5.2v12.1h-5v-12
				c0-1.1-0.2-1.8-0.7-2.3s-1.2-0.7-2.3-0.7c-1.4,0-2.5,0.6-3.2,1.8v13.3h-5v-18.8h4.7V2661.8z"/>
			<path class="st2" d="M1062.7,2676.8c0.9,0,1.7-0.3,2.3-0.8c0.6-0.5,0.9-1.2,0.9-2h4.7c0,1.3-0.4,2.4-1,3.5
				c-0.7,1.1-1.6,1.9-2.8,2.5c-1.2,0.6-2.5,0.9-3.9,0.9c-2.7,0-4.8-0.9-6.4-2.6s-2.3-4.1-2.3-7.1v-0.3c0-2.9,0.8-5.2,2.3-6.9
				s3.7-2.6,6.3-2.6c2.3,0,4.2,0.7,5.6,2s2.1,3.1,2.2,5.3h-4.7c0-1-0.3-1.8-0.9-2.4c-0.6-0.6-1.3-0.9-2.3-0.9
				c-1.2,0-2.1,0.4-2.6,1.3c-0.6,0.9-0.9,2.2-0.9,4.1v0.5c0,1.9,0.3,3.3,0.9,4.2C1060.6,2676.4,1061.5,2676.8,1062.7,2676.8z"/>
			<path class="st2" d="M1073.4,2656.9c0-0.8,0.3-1.4,0.8-1.9s1.2-0.7,2.1-0.7s1.5,0.2,2,0.7s0.8,1.1,0.8,1.9c0,0.8-0.3,1.4-0.8,1.9
				s-1.2,0.7-2,0.7s-1.5-0.2-2-0.7C1073.6,2658.3,1073.4,2657.7,1073.4,2656.9z M1078.7,2680.5h-5v-18.8h5V2680.5z"/>
			<path class="st2" d="M1082,2671c0-1.9,0.4-3.5,1.1-5s1.7-2.6,3.1-3.4c1.3-0.8,2.9-1.2,4.7-1.2c2.5,0,4.6,0.8,6.2,2.3
				c1.6,1.6,2.5,3.7,2.7,6.3v1.3c0,2.9-0.8,5.2-2.4,6.9s-3.8,2.6-6.5,2.6s-4.9-0.9-6.5-2.6c-1.6-1.7-2.4-4.1-2.4-7.1L1082,2671
				L1082,2671z M1087,2671.3c0,1.8,0.3,3.1,1,4.1c0.7,0.9,1.6,1.4,2.9,1.4c1.2,0,2.2-0.5,2.8-1.4c0.7-0.9,1-2.4,1-4.5
				c0-1.7-0.3-3.1-1-4.1s-1.6-1.4-2.9-1.4c-1.2,0-2.2,0.5-2.8,1.4C1087.4,2667.8,1087,2669.3,1087,2671.3z M1091.9,2653.9h5.5
				l-4.8,5.4h-4.1L1091.9,2653.9z"/>
			<path class="st2" d="M1107.5,2661.8l0.2,2.2c1.3-1.7,3.1-2.5,5.4-2.5c2,0,3.5,0.6,4.4,1.8c1,1.2,1.5,2.9,1.5,5.2v12.1h-5v-12
				c0-1.1-0.2-1.8-0.7-2.3s-1.2-0.7-2.3-0.7c-1.4,0-2.5,0.6-3.2,1.8v13.3h-5v-18.8h4.7V2661.8z"/>
			<path class="st2" d="M1127.7,2675.5c0.8,0,1.5,0.2,2,0.7s0.8,1.1,0.8,1.9c0,0.8-0.3,1.4-0.8,1.9s-1.2,0.7-2,0.7s-1.5-0.2-2-0.7
				s-0.8-1.1-0.8-1.9c0-0.8,0.3-1.4,0.8-1.9C1126.2,2675.8,1126.9,2675.5,1127.7,2675.5z M1129.8,2672.8h-4.2l-0.6-17.5h5.3
				L1129.8,2672.8z"/>
		</g>
		<g id="Grupo_69422" transform="translate(860 2519.001)">
			<g id="Grupo_69365">
				<g>
					<g>
						<defs>
							<path id="SVGID_1_" d="M135.1,54.1H-29.5c-4.4,0-8,3.6-8,8v160.3c0.1,2.4,1.1,4.7,3,6.2l3.1,3.1c1.6,1.9,3.8,3,6.3,3h212.2
								c0.7,0,1.3,0.2,1.8,0.7l12.7,10.8c3,2.5,7.3,2.5,10.3,0l12.8-10.8c0.5-0.4,1.2-0.7,1.8-0.7h209.1c4.4,0,8-3.6,8-8V66.4
								c0-2.1-0.9-4.2-2.4-5.7l-3.3-3.3c-1.6-2.1-4.1-3.3-6.7-3.4H271.5c-1.4,0-2.6,1.1-2.6,2.6c0,0.7,0.3,1.4,0.8,1.9
								c0.4,0.4,0.8,0.8,1.1,1.1c1,1,2.1,2.1,3.1,3.1c0.5,0.5,1.2,0.8,1.9,0.8h158v158.7c0,1.6-1.3,2.8-2.8,2.8H222.1
								c-1.9,0-3.7,0.7-5.1,1.9l-12.8,10.8c-1,0.9-2.6,0.9-3.6,0L187.8,227c-1.4-1.2-3.3-1.9-5.2-1.9H-27.9V66.4
								c0-1.6,1.3-2.8,2.8-2.8h164.6c1.4,0,2.6-1.2,2.6-2.6c0-0.8-0.4-1.6-1.1-2.1c-1-1-2-2-3-3C137.2,55.1,136.5,54.1,135.1,54.1
								L135.1,54.1"/>
						</defs>
						<clipPath id="SVGID_00000065052322606399376820000012499668933158266019_">
							<use xlink:href="#SVGID_1_"  style="overflow:visible;"/>
						</clipPath>
						<g id="Grupo_69364" style="clip-path:url(#SVGID_00000065052322606399376820000012499668933158266019_);">
							
								<rect id="Rect치ngulo_7636" x="-39.7" y="48.3" transform="matrix(0.9997 -2.383932e-02 2.383932e-02 0.9997 -3.5419 4.8834)" class="st4" width="485.5" height="205.4"/>
						</g>
					</g>
				</g>
			</g>
			<g id="Grupo_69407">
				<g>
					<g>
						<defs>
							<rect id="SVGID_00000152250612487258046070000016831514558089531283_" x="-37.5" y="-3.1" width="481" height="251.2"/>
						</defs>
						<clipPath id="SVGID_00000055683074048626890340000006513989270968336571_">
							<use xlink:href="#SVGID_00000152250612487258046070000016831514558089531283_"  style="overflow:visible;"/>
						</clipPath>
						<g id="Grupo_69406" style="clip-path:url(#SVGID_00000055683074048626890340000006513989270968336571_);">
							<path id="Trazado_155892" class="st6" d="M185.9,88.8c-1-1.2-2.1-2.3-3.1-3.6c-0.5-0.6-1-1.2-1.5-1.8
								c-0.5-0.6-0.9-1.3-1.4-1.9c-1.8-2.6-3.3-5.4-4.6-8.3c-1.2-2.9-2.1-6-2.7-9.1l-0.4-2.3l-0.2-2.4c0-0.4-0.1-0.8-0.1-1.2V57
								l-0.1-2.4L172,57l0.1,1.2c0,0.4,0.1,0.8,0.1,1.2l0.3,2.3l0.4,2.3c0.6,3.1,1.6,6.1,2.8,9s2.7,5.7,4.5,8.3
								C181.8,83.9,183.9,86.3,185.9,88.8"/>
						</g>
					</g>
				</g>
			</g>
			<g id="Grupo_69409">
				<g>
					<g>
						<defs>
							<path id="SVGID_00000139973291820868277930000018348691985950072968_" d="M270.3,54.1c-1.4,0-2.6,1.2-2.6,2.6v0.1
								c0.1,1.4,1.3,2.5,2.6,2.5H431c1.6,0,2.8,1.3,2.8,2.8v160.2c0,1.6-1.3,2.9-2.9,2.9h-209c-1.9,0-3.7,0.7-5.1,1.9L204,237.9
								c-1,0.9-2.6,0.9-3.6,0L187.8,227c-1.4-1.2-3.3-1.9-5.2-1.9H-29.5c-1.6,0-2.8-1.3-2.8-2.8l0,0V62.4c0-1.7,1.4-3.2,3.2-3.2
								h165.5c1.4,0,2.6-1.2,2.6-2.6v-0.1c-0.1-1.4-1.3-2.5-2.6-2.5H-29.5c-4.4,0-8,3.6-8,8l0,0v160.3c0,4.4,3.6,8,8,8l0,0h212.2
								c0.7,0,1.3,0.2,1.8,0.7l12.7,10.8c3,2.5,7.3,2.5,10.3,0l12.8-10.8c0.5-0.4,1.2-0.7,1.8-0.7h209.1c4.4,0,8-3.6,8-8V62
								c0-4.4-3.6-8-8-8L270.3,54.1z"/>
						</defs>
						<clipPath id="SVGID_00000070085324652478818390000007668336003909628829_">
							<use xlink:href="#SVGID_00000139973291820868277930000018348691985950072968_"  style="overflow:visible;"/>
						</clipPath>
						<g id="Grupo_69408" style="clip-path:url(#SVGID_00000070085324652478818390000007668336003909628829_);">
							
								<rect id="Rect치ngulo_7655" x="-38.1" y="52.6" transform="matrix(1 -6.125953e-03 6.125953e-03 1 -0.9081 1.2326)" class="st8" width="477.7" height="192.5"/>
						</g>
					</g>
				</g>
			</g>
		</g>
		<g id="Grupo_69423" transform="translate(1020 2519)">
			<g id="Grupo_69416" transform="translate(3.636 3.597)">
				<g>
					<g>
						<defs>
							<path id="SVGID_00000172405778362508263290000004386504098555155902_" d="M-7.3,45.7c0,26.6,21.6,48.2,48.2,48.2
								s48.2-21.6,48.2-48.2S67.5-2.5,40.9-2.5l0,0C14.3-2.5-7.3,19.1-7.3,45.7"/>
						</defs>
						<clipPath id="SVGID_00000039097175555824667670000001233865246582132922_">
							<use xlink:href="#SVGID_00000172405778362508263290000004386504098555155902_"  style="overflow:visible;"/>
						</clipPath>
						<g id="Grupo_69415" style="clip-path:url(#SVGID_00000039097175555824667670000001233865246582132922_);">
							<rect id="Rect치ngulo_7656" x="-7.3" y="-2.5" class="st10" width="96.4" height="96.4"/>
						</g>
					</g>
				</g>
			</g>
			<g id="Grupo_69418" transform="translate(0 0)">
				<g>
					<g>
						<defs>
							<path id="SVGID_00000055683375631491751860000002456368130028863929_" d="M39.6-3.1C13.4-3.1-7.9,18.1-7.9,44.4
								C-7.9,57-2.9,69.1,6,78c18.6,18.6,48.7,18.6,67.3,0s18.6-48.7,0-67.3C64.4,1.8,52.2-3.2,39.6-3.1z"/>
						</defs>
						<clipPath id="SVGID_00000073691078630683427380000016401830745969712573_">
							<use xlink:href="#SVGID_00000055683375631491751860000002456368130028863929_"  style="overflow:visible;"/>
						</clipPath>
						
							<g id="Grupo_69417" transform="translate(0 0)" style="clip-path:url(#SVGID_00000073691078630683427380000016401830745969712573_);">
							
								<rect id="Rect치ngulo_7657" x="-25.3" y="-20.4" transform="matrix(0.8682 -0.4961 0.4961 0.8682 -16.8497 25.5177)" class="st12" width="129.8" height="129.8"/>
						</g>
					</g>
				</g>
			</g>
			<g id="Grupo_70178">
				<g id="megafono" transform="translate(9.313 28.068) rotate(-16)">
					<path id="Trazado_156568" class="st13" d="M13.5,45.4C7.8,45.4,3.1,40.7,3.1,35c0-1.1,0.2-2.1,0.5-3.1C4,30.7,5.2,30,6.5,30.3
						c1.2,0.4,1.9,1.6,1.6,2.9c0,0.1,0,0.1-0.1,0.2c-0.2,0.5-0.3,1.1-0.2,1.7c0,3.2,2.6,5.8,5.8,5.8c2.7,0,5-1.8,5.6-4.4
						c0.2-1.3,1.5-2.1,2.7-1.8c1.2,0.3,2.1,1.5,1.8,2.7c0,0.1,0,0.1,0,0.2C22.6,42.1,18.4,45.4,13.5,45.4L13.5,45.4z"/>
					<path id="Trazado_156569" class="st13" d="M48.3,46c-0.2,0-0.3,0-0.5-0.1l-52.1-15C-5,30.7-5.6,30-5.6,29.2l0-10.4
						c0-0.8,0.5-1.5,1.3-1.7l52.1-15c0.9-0.3,1.9,0.3,2.1,1.2C50,3.4,50,3.6,50,3.7l0,40.5C50,45.2,49.2,46,48.3,46L48.3,46L48.3,46
						z"/>
					<path id="Trazado_156570" class="st13" d="M47.7,47.7c-1.3,0-2.3-1-2.3-2.3l0-42.8c0-1.3,1-2.3,2.3-2.3c1.3,0,2.3,1,2.3,2.3
						l0,42.8C50,46.7,49,47.7,47.7,47.7z"/>
					<path id="Trazado_156571" class="st13" d="M-3.2,33.8c-1.3,0-2.3-1-2.3-2.3l0-15c0-1.3,1-2.3,2.3-2.3c1.3,0,2.3,1,2.3,2.3l0,15
						C-0.9,32.8-2,33.8-3.2,33.8z"/>
					<path id="Trazado_156585" class="st14" d="M-0.2,12.3l-0.3,23.8"/>
				</g>
				<path id="Trazado_156584" class="st15" d="M51.5,15.3L64.7,61"/>
			</g>
		</g>
	</g>
</g>
</svg>
