<svg id="Grupo_70185" data-name="Grupo 70185" xmlns="http://www.w3.org/2000/svg" xmlns:xlink="http://www.w3.org/1999/xlink" width="1030" height="97.718" viewBox="0 0 1030 97.718">
  <defs>
    <clipPath id="clip-path">
      <rect id="Rectángulo_10156" data-name="Rectángulo 10156" width="1030" height="97.718" fill="none"/>
    </clipPath>
  </defs>
  <g id="Grupo_70183" data-name="Grupo 70183" clip-path="url(#clip-path)">
    <path id="Trazado_156589" data-name="Trazado 156589" d="M477.818,394.994c0,1.634.327,1.144,1.144,1.144s1.47-1.307,1.47-2.941c0,0-.327-12.583-2.287-20.916h-2.614c2.124,8.007,2.287,22.714,2.287,22.714" transform="translate(-399.554 -312.799)" fill="#f97922"/>
    <path id="Trazado_156590" data-name="Trazado 156590" d="M471.962,501.241a4.809,4.809,0,1,1-3.6,5.769,4.809,4.809,0,0,1,3.6-5.769" transform="translate(-393.423 -421.051)" fill="#388946"/>
    <path id="Trazado_156591" data-name="Trazado 156591" d="M219.721,0H205.505a32.776,32.776,0,0,0-32.678,32.682v21.08a11.646,11.646,0,0,0,11.6,11.6H240.8a11.646,11.646,0,0,0,11.6-11.6V32.682A32.776,32.776,0,0,0,219.721,0" transform="translate(-145.214)" fill="#f97922"/>
    <path id="Trazado_156592" data-name="Trazado 156592" d="M184.271,47.047h49.57a7.353,7.353,0,0,1,7.353,7.353v.127a7.353,7.353,0,0,1-7.353,7.353h-49.57a7.353,7.353,0,0,1-7.353-7.353V54.4a7.353,7.353,0,0,1,7.353-7.353" transform="translate(-148.651 -39.53)" fill="#e53c43"/>
    <path id="Trazado_156593" data-name="Trazado 156593" d="M263.015,189.209h49.57a7.353,7.353,0,0,1,7.353,7.353v.127a7.353,7.353,0,0,1-7.353,7.353h-49.57a7.353,7.353,0,0,1-7.353-7.353v-.127a7.353,7.353,0,0,1,7.353-7.353" transform="translate(-214.814 -158.978)" fill="#a32636"/>
    <path id="Trazado_156594" data-name="Trazado 156594" d="M256.994,273.074H290.98c6.948,0,12.581,4.243,12.581,9.478s-5.633,9.478-12.581,9.478H256.994c-6.948,0-12.581-4.243-12.581-9.478s5.633-9.478,12.581-9.478" transform="translate(-205.362 -229.444)" fill="#612f3a"/>
    <path id="Trazado_156595" data-name="Trazado 156595" d="M246.767,121.707h33.992c6.948,0,12.581,2.758,12.581,6.159s-5.633,6.159-12.581,6.159H246.767c-6.948,0-12.581-2.758-12.581-6.159s5.633-6.159,12.581-6.159" transform="translate(-196.769 -102.261)" fill="#733e3a"/>
    <path id="Trazado_156596" data-name="Trazado 156596" d="M284.013,71.593h0a7.323,7.323,0,0,0-7.353,7.353v11.6h-11.6a7.322,7.322,0,0,0-7.353,7.353,7.428,7.428,0,0,0,7.353,7.353h11.6v11.6a7.353,7.353,0,1,0,14.705,0v-11.6h11.6a7.428,7.428,0,0,0,7.353-7.353,7.322,7.322,0,0,0-7.353-7.353h-11.6v-11.6a7.322,7.322,0,0,0-7.353-7.353" transform="translate(-216.532 -60.154)" fill="#60c44a"/>
    <path id="Trazado_156597" data-name="Trazado 156597" d="M294.816,108.705h0a7.4,7.4,0,0,0,0,10.295l8.333,8.334-8.333,8.171a7.395,7.395,0,0,0,10.457,10.458l8.17-8.334,8.333,8.334a7.4,7.4,0,0,0,10.294,0,7.6,7.6,0,0,0,0-10.458l-8.333-8.171L332.07,119a7.279,7.279,0,0,0-10.294-10.295l-8.333,8.17-8.17-8.17a7.6,7.6,0,0,0-10.457,0" transform="translate(-245.962 -89.586)" fill="#388946"/>
    <path id="Trazado_156598" data-name="Trazado 156598" d="M46.894,0H32.678A32.776,32.776,0,0,0,0,32.682v21.08a11.646,11.646,0,0,0,11.6,11.6H91.336a11.646,11.646,0,0,1-11.6-11.6l-.327-23.041A32.714,32.714,0,0,0,46.894,0" fill="#feae35"/>
    <path id="Trazado_156599" data-name="Trazado 156599" d="M0,320.242v1.634a11.646,11.646,0,0,0,11.6,11.6H91.336a11.646,11.646,0,0,1-11.6-11.6V319.1h-.49a8.791,8.791,0,0,1-8.17,6.046H7.843A8.732,8.732,0,0,1,0,320.242" transform="translate(0 -268.115)" fill="#f97922"/>
    <path id="Trazado_156600" data-name="Trazado 156600" d="M390.276,228.073a4.739,4.739,0,1,1-4.738,4.739,4.739,4.739,0,0,1,4.738-4.739" transform="translate(-323.939 -191.633)" fill="#d67643"/>
    <path id="Trazado_156601" data-name="Trazado 156601" d="M276.677,104.32a6.7,6.7,0,1,1-6.7,6.7,6.7,6.7,0,0,1,6.7-6.7" transform="translate(-226.843 -87.652)" fill="#d67643"/>
    <path id="Trazado_156602" data-name="Trazado 156602" d="M24.168,236.255a4.739,4.739,0,1,1-4.738,4.739,4.739,4.739,0,0,1,4.738-4.739" transform="translate(-16.326 -198.508)" fill="#d67643"/>
    <path id="Trazado_156603" data-name="Trazado 156603" d="M108.231,70.57a3.922,3.922,0,1,1-3.921,3.922,3.922,3.922,0,0,1,3.921-3.922" transform="translate(-87.644 -59.295)" fill="#d67643"/>
    <path id="Trazado_156604" data-name="Trazado 156604" d="M310.389,137.048a3.595,3.595,0,1,1-3.595,3.595,3.595,3.595,0,0,1,3.595-3.595" transform="translate(-257.776 -115.151)"/>
    <path id="Trazado_156605" data-name="Trazado 156605" d="M80.294,137.048a3.595,3.595,0,1,1-3.595,3.595,3.595,3.595,0,0,1,3.595-3.595" transform="translate(-64.445 -115.151)"/>
    <path id="Trazado_156606" data-name="Trazado 156606" d="M170.122,217.924a1.117,1.117,0,0,0,1.144-1.144,1.093,1.093,0,0,0-1.144-.981h-2.451a.942.942,0,0,0-.98.981c0,.654.327,1.144.98,1.144Z" transform="translate(-140.058 -181.321)"/>
    <path id="Trazado_156607" data-name="Trazado 156607" d="M166.232,190.309a1.054,1.054,0,0,0,.98-.98,1.093,1.093,0,0,0-.98-1.144h-3.922l-.163.163a3.375,3.375,0,0,0-2.614,3.1,3.142,3.142,0,0,0,1.634,3.1,1.241,1.241,0,0,0,1.471-.49,1.112,1.112,0,0,0-.654-1.307s-.327-.163-.327-1.307a1.118,1.118,0,0,1,.817-1.144Z" transform="translate(-134.044 -158.118)"/>
    <path id="Trazado_156608" data-name="Trazado 156608" d="M166.232,222.34a.942.942,0,0,0,.98-.981,1.054,1.054,0,0,0-.98-.98h-3.758a1.118,1.118,0,0,1-.817-1.144c0-1.144.327-1.307.327-1.307a1.112,1.112,0,0,0,.654-1.307,1.076,1.076,0,0,0-1.471-.49,3.143,3.143,0,0,0-1.634,3.1,3.375,3.375,0,0,0,2.614,3.1h4.085Z" transform="translate(-134.044 -181.488)"/>
    <rect id="Rectángulo_10139" data-name="Rectángulo 10139" width="3.104" height="26.309" transform="translate(56.697 63.893)" fill="#f97922"/>
    <path id="Trazado_156609" data-name="Trazado 156609" d="M360.486,556.3a3.447,3.447,0,0,1,1.307,3.1,1.484,1.484,0,0,1-1.307,1.471H350.193s-1.471,0-1.471-1.961v-4.576c0-2.451,2.614-4.085,4.412-2.451Z" transform="translate(-293.005 -463.162)" fill="#ac0e23"/>
    <path id="Trazado_156610" data-name="Trazado 156610" d="M390,562.969h0a.77.77,0,0,0-.98.163l-.98,1.471c-.163.327-.163.817.164.98s.653.163.817-.163l1.144-1.471c.163-.327.163-.817-.163-.981" transform="translate(-325.953 -472.931)" fill="#fff"/>
    <path id="Trazado_156611" data-name="Trazado 156611" d="M379.4,556.46h0c-.327-.327-.654-.163-.98.163l-.98,1.47c-.327.327-.163.654.163.981.163.163.653,0,.817-.164l1.144-1.634c.163-.327.163-.654-.163-.817" transform="translate(-316.988 -467.403)" fill="#fff"/>
    <rect id="Rectángulo_10140" data-name="Rectángulo 10140" width="3.104" height="26.309" transform="translate(37.253 63.893)" fill="#f97922"/>
    <path id="Trazado_156612" data-name="Trazado 156612" d="M178.158,556.3a3.447,3.447,0,0,0-1.307,3.1,1.484,1.484,0,0,0,1.307,1.471h10.13s1.634,0,1.471-1.961v-4.576c0-2.451-2.451-4.085-4.411-2.451Z" transform="translate(-148.585 -463.162)" fill="#ac0e23"/>
    <path id="Trazado_156613" data-name="Trazado 156613" d="M204.779,562.969h0a.569.569,0,0,1,.817.163l1.144,1.471c.163.327.163.817-.163.98a.77.77,0,0,1-.98-.163l-.98-1.471a.616.616,0,0,1,.163-.981" transform="translate(-171.774 -472.931)" fill="#fff"/>
    <path id="Trazado_156614" data-name="Trazado 156614" d="M215,556.46h0c.163-.327.654-.163.817.163l1.144,1.47a.77.77,0,0,1-.163.981,1.08,1.08,0,0,1-.98-.164l-.98-1.634c-.327-.327-.163-.654.163-.817" transform="translate(-180.366 -467.403)" fill="#fff"/>
    <path id="Trazado_156615" data-name="Trazado 156615" d="M121.241,394.994c0,1.634-.327,1.144-1.144,1.144s-1.471-1.307-1.471-2.941c0,0,.49-12.583,2.451-20.916h2.614c-2.288,8.007-2.451,22.714-2.451,22.714" transform="translate(-99.674 -312.799)" fill="#f97922"/>
    <path id="Trazado_156616" data-name="Trazado 156616" d="M102.62,501.241a4.809,4.809,0,1,0,3.6,5.769,4.809,4.809,0,0,0-3.6-5.769" transform="translate(-81.273 -421.051)" fill="#388946"/>
    <path id="Trazado_156617" data-name="Trazado 156617" d="M1060.322,188.672a1.654,1.654,0,0,1,1.307-1.961,1.551,1.551,0,0,1,1.961,1.144s2.451,10.458,12.745,13.726a1.779,1.779,0,0,1,1.144,2.124,1.7,1.7,0,0,1-2.124.98c-12.091-3.922-15.032-16.014-15.032-16.014" transform="translate(-890.885 -156.807)" fill="#f97922"/>
    <path id="Trazado_156618" data-name="Trazado 156618" d="M1035.473,143.322a5.5,5.5,0,1,1-4.119,6.6,5.5,5.5,0,0,1,4.119-6.6" transform="translate(-866.451 -120.303)" fill="#5b0000"/>
    <path id="Trazado_156619" data-name="Trazado 156619" d="M1655.735,548.294a3.662,3.662,0,0,1,1.471,3.432,1.876,1.876,0,0,1-1.471,1.8l-11.6.163a1.88,1.88,0,0,1-1.8-2.124v-5.229c-.164-2.941,2.777-4.739,4.9-2.941Z" transform="translate(-1379.93 -455.969)" fill="#ac0e23"/>
    <rect id="Rectángulo_10141" data-name="Rectángulo 10141" width="3.66" height="1.515" transform="matrix(0.562, -0.827, 0.827, 0.562, 269.109, 91.361)" fill="#fff"/>
    <rect id="Rectángulo_10142" data-name="Rectángulo 10142" width="3.66" height="1.515" transform="matrix(0.562, -0.827, 0.827, 0.562, 267.194, 90.197)" fill="#fff"/>
    <path id="Trazado_156620" data-name="Trazado 156620" d="M1590.1,454.839a1.781,1.781,0,0,0,1.8,1.634,1.68,1.68,0,0,0,1.634-1.8s-.49-12.419-11.437-18.792a1.809,1.809,0,0,0-2.288.654,1.654,1.654,0,0,0,.654,2.288c9.313,5.392,9.64,16.014,9.64,16.014" transform="translate(-1327.198 -366.108)" fill="#f97922"/>
    <path id="Trazado_156621" data-name="Trazado 156621" d="M1252.108,548.294a3.661,3.661,0,0,0-1.47,3.432,1.875,1.875,0,0,0,1.307,1.8l11.764.163a1.88,1.88,0,0,0,1.8-2.124v-5.229c.164-2.941-2.778-4.739-4.9-2.941Z" transform="translate(-1050.809 -455.969)" fill="#ac0e23"/>
    <rect id="Rectángulo_10143" data-name="Rectángulo 10143" width="1.515" height="3.66" transform="matrix(0.827, -0.562, 0.562, 0.827, 204.661, 89.184)" fill="#fff"/>
    <rect id="Rectángulo_10144" data-name="Rectángulo 10144" width="1.515" height="3.66" transform="matrix(0.827, -0.562, 0.562, 0.827, 206.576, 88.019)" fill="#fff"/>
    <path id="Trazado_156622" data-name="Trazado 156622" d="M1322.646,454.839a1.781,1.781,0,0,1-1.8,1.634,1.68,1.68,0,0,1-1.634-1.8s.49-12.419,11.438-18.792a1.682,1.682,0,1,1,1.634,2.941c-9.313,5.392-9.64,16.014-9.64,16.014" transform="translate(-1108.439 -366.108)" fill="#f97922"/>
    <path id="Trazado_156623" data-name="Trazado 156623" d="M1369.176,52.16h-14.215a32.776,32.776,0,0,0-32.679,32.682v21.08a11.646,11.646,0,0,0,11.6,11.6h56.37a11.646,11.646,0,0,0,11.6-11.6V84.842a32.776,32.776,0,0,0-32.679-32.682" transform="translate(-1111.017 -43.826)" fill="#f97922"/>
    <path id="Trazado_156624" data-name="Trazado 156624" d="M1333.726,99.207h49.57a7.353,7.353,0,0,1,7.353,7.353v.127a7.353,7.353,0,0,1-7.353,7.353h-49.57a7.353,7.353,0,0,1-7.352-7.353v-.127a7.353,7.353,0,0,1,7.352-7.353" transform="translate(-1114.454 -83.356)" fill="#e53c43"/>
    <path id="Trazado_156625" data-name="Trazado 156625" d="M1412.47,241.369h49.57a7.353,7.353,0,0,1,7.353,7.353v.127a7.353,7.353,0,0,1-7.353,7.353h-49.57a7.353,7.353,0,0,1-7.352-7.353v-.127a7.353,7.353,0,0,1,7.352-7.353" transform="translate(-1180.617 -202.805)" fill="#a32636"/>
    <path id="Trazado_156626" data-name="Trazado 156626" d="M1406.45,325.234h33.985c6.948,0,12.581,4.243,12.581,9.478s-5.633,9.478-12.581,9.478H1406.45c-6.948,0-12.581-4.243-12.581-9.478s5.633-9.478,12.581-9.478" transform="translate(-1171.166 -273.27)" fill="#612f3a"/>
    <path id="Trazado_156627" data-name="Trazado 156627" d="M1396.223,173.867h33.992c6.948,0,12.581,2.758,12.581,6.159s-5.633,6.159-12.581,6.159h-33.992c-6.949,0-12.581-2.758-12.581-6.159s5.633-6.159,12.581-6.159" transform="translate(-1162.572 -146.088)" fill="#733e3a"/>
    <path id="Trazado_156628" data-name="Trazado 156628" d="M1433.469,123.753h0a7.322,7.322,0,0,0-7.353,7.353v11.6h-11.6a7.322,7.322,0,0,0-7.353,7.353,7.428,7.428,0,0,0,7.353,7.353h11.6v11.6a7.353,7.353,0,1,0,14.705,0v-11.6h11.6a7.428,7.428,0,0,0,7.352-7.353,7.322,7.322,0,0,0-7.352-7.353h-11.6v-11.6a7.323,7.323,0,0,0-7.353-7.353" transform="translate(-1182.335 -103.981)" fill="#60c44a"/>
    <path id="Trazado_156629" data-name="Trazado 156629" d="M1444.272,160.865h0a7.4,7.4,0,0,0,0,10.295l8.333,8.334-8.333,8.171a7.395,7.395,0,1,0,10.457,10.458l8.17-8.334,8.169,8.334a7.395,7.395,0,1,0,10.457-10.458l-8.333-8.171,8.333-8.334a7.4,7.4,0,0,0,0-10.295,7.6,7.6,0,0,0-10.457,0l-8.169,8.17-8.17-8.17a7.6,7.6,0,0,0-10.457,0" transform="translate(-1211.765 -133.413)" fill="#388946"/>
    <path id="Trazado_156630" data-name="Trazado 156630" d="M1196.349,52.16h-14.215a32.776,32.776,0,0,0-32.679,32.682v21.08a11.646,11.646,0,0,0,11.6,11.6h79.735a11.646,11.646,0,0,1-11.6-11.6l-.327-23.041a32.714,32.714,0,0,0-32.515-30.721" transform="translate(-965.803 -43.826)" fill="#feae35"/>
    <path id="Trazado_156631" data-name="Trazado 156631" d="M1149.456,372.4v1.634a11.646,11.646,0,0,0,11.6,11.6h79.735a11.646,11.646,0,0,1-11.6-11.6v-2.778h-.49a8.791,8.791,0,0,1-8.17,6.046H1157.3a8.731,8.731,0,0,1-7.843-4.9" transform="translate(-965.803 -311.941)" fill="#f97922"/>
    <path id="Trazado_156632" data-name="Trazado 156632" d="M1539.732,280.233a4.739,4.739,0,1,1-4.738,4.739,4.739,4.739,0,0,1,4.738-4.739" transform="translate(-1289.742 -235.459)" fill="#d67643"/>
    <path id="Trazado_156633" data-name="Trazado 156633" d="M1426.134,156.481a6.7,6.7,0,1,1-6.7,6.7,6.7,6.7,0,0,1,6.7-6.7" transform="translate(-1192.647 -131.479)" fill="#d67643"/>
    <path id="Trazado_156634" data-name="Trazado 156634" d="M1173.624,288.415a4.739,4.739,0,1,1-4.738,4.739,4.739,4.739,0,0,1,4.738-4.739" transform="translate(-982.129 -242.334)" fill="#d67643"/>
    <path id="Trazado_156635" data-name="Trazado 156635" d="M1257.687,122.73a3.922,3.922,0,1,1-3.922,3.922,3.922,3.922,0,0,1,3.922-3.922" transform="translate(-1053.446 -103.121)" fill="#d67643"/>
    <path id="Trazado_156636" data-name="Trazado 156636" d="M1225.658,217.845a3.6,3.6,0,1,1-3.594,3.595,3.595,3.595,0,0,1,3.594-3.595" transform="translate(-1026.81 -183.039)"/>
    <path id="Trazado_156637" data-name="Trazado 156637" d="M1455.755,217.845a3.6,3.6,0,1,1-3.594,3.595,3.595,3.595,0,0,1,3.594-3.595" transform="translate(-1220.144 -183.039)"/>
    <path id="Trazado_156638" data-name="Trazado 156638" d="M1343.759,154.393a1.055,1.055,0,0,1,.98-.981.942.942,0,0,1,.98.981v4.739a.942.942,0,0,1-.98.98,1.055,1.055,0,0,1-.98-.98Z" transform="translate(-1129.062 -128.901)"/>
    <path id="Trazado_156639" data-name="Trazado 156639" d="M1368.3,154.393a1.054,1.054,0,0,1,.98-.981,1.093,1.093,0,0,1,1.144.981v4.739a1.093,1.093,0,0,1-1.144.98,1.054,1.054,0,0,1-.98-.98Z" transform="translate(-1149.683 -128.901)"/>
    <path id="Trazado_156640" data-name="Trazado 156640" d="M1236.811,182.5a1.112,1.112,0,0,1-.654-1.307,1.1,1.1,0,0,1,1.308-.49l6.535,2.451c.49.327.817.817.49,1.307-.163.654-.653.817-1.307.654Z" transform="translate(-1038.616 -151.781)"/>
    <path id="Trazado_156641" data-name="Trazado 156641" d="M1441.108,180.7a1.1,1.1,0,0,1,1.307.49,1.112,1.112,0,0,1-.654,1.307l-6.372,2.615c-.654.163-1.144,0-1.307-.654-.327-.49,0-.98.49-1.307Z" transform="translate(-1204.844 -151.781)"/>
    <path id="Trazado_156642" data-name="Trazado 156642" d="M1283.43,261.711c-2.614-1.8-8.823-.817-8.333,5.556.327,6.21,6.536,5.883,9.15,4.739,3.431-1.8,5.065-1.8,8.5,0,2.615,1.144,8.823,1.471,9.15-4.739.49-6.373-5.555-7.353-8.333-5.556-4.085,2.451-6.045,2.451-10.13,0" transform="translate(-1071.347 -219.225)" fill="#fff"/>
    <path id="Trazado_156643" data-name="Trazado 156643" d="M1277.551,257.059a4.145,4.145,0,0,0-2.614-.654,9.21,9.21,0,0,0-1.961.654,5.292,5.292,0,0,0-1.47,1.307,5.129,5.129,0,0,0-.653,3.268,4.744,4.744,0,0,0,.49,2.288,3.478,3.478,0,0,0,1.961,1.8,5.28,5.28,0,0,0,2.778.49,8.851,8.851,0,0,0,2.451-.654,12.243,12.243,0,0,1,4.739-1.307,9.475,9.475,0,0,1,4.738,1.307,8.849,8.849,0,0,0,2.451.654,5.279,5.279,0,0,0,2.777-.49,3.477,3.477,0,0,0,1.961-1.8,4.744,4.744,0,0,0,.49-2.288,5.129,5.129,0,0,0-.654-3.268,3.717,3.717,0,0,0-1.47-1.307,9.217,9.217,0,0,0-1.961-.654,4.455,4.455,0,0,0-2.615.654c-2.287,1.307-3.921,2.124-5.719,2.124s-3.431-.817-5.719-2.124m-2.614-2.615a5.838,5.838,0,0,1,3.758.817,6.721,6.721,0,0,0,9.15,0,6.093,6.093,0,0,1,3.921-.817,6.63,6.63,0,0,1,2.778.817,6.979,6.979,0,0,1,2.288,2.124,8.41,8.41,0,0,1,.98,4.412,7.771,7.771,0,0,1-.817,2.941,5.719,5.719,0,0,1-2.941,2.941,6.891,6.891,0,0,1-3.594.49,7.6,7.6,0,0,1-3.431-.817,6.746,6.746,0,0,0-7.516,0,6.907,6.907,0,0,1-3.268.817,7.275,7.275,0,0,1-3.758-.49,5.72,5.72,0,0,1-2.941-2.941,7.808,7.808,0,0,1-.654-2.941,6.163,6.163,0,0,1,.98-4.412,4.817,4.817,0,0,1,2.287-2.124,5.508,5.508,0,0,1,2.778-.817" transform="translate(-1066.121 -213.756)"/>
    <path id="Trazado_156644" data-name="Trazado 156644" d="M1270.085,295.652a.942.942,0,0,1-.98-.981c0-.654.327-1.144.98-1.144h26.8a1.117,1.117,0,0,1,1.144,1.144,1.093,1.093,0,0,1-1.144.981Z" transform="translate(-1066.335 -246.63)"/>
    <path id="Trazado_156645" data-name="Trazado 156645" d="M1352.963,272.008a1.054,1.054,0,0,1,.98-.98.942.942,0,0,1,.98.98v7.19a.942.942,0,0,1-.98.98,1.054,1.054,0,0,1-.98-.98Z" transform="translate(-1136.795 -227.725)"/>
    <path id="Trazado_156646" data-name="Trazado 156646" d="M1304.9,255.645a1.054,1.054,0,0,1,.98-.98.942.942,0,0,1,.98.98v11.438c0,.654-.327,1.144-.98,1.144a1.093,1.093,0,0,1-.98-1.144Z" transform="translate(-1096.409 -213.976)"/>
    <path id="Trazado_156647" data-name="Trazado 156647" d="M1401.027,255.645a.98.98,0,1,1,1.961,0v11.438a.992.992,0,1,1-1.961,0Z" transform="translate(-1177.18 -213.976)"/>
    <path id="Trazado_156648" data-name="Trazado 156648" d="M1822.45,326.4a1.872,1.872,0,0,1-1.144,2.124,1.822,1.822,0,0,1-2.125-1.307s-2.451-10.295-12.745-13.563a1.7,1.7,0,0,1-.98-2.124,1.45,1.45,0,0,1,1.96-1.144c12.091,3.922,15.032,16.014,15.032,16.014" transform="translate(-1516.907 -260.709)" fill="#f97922"/>
    <path id="Trazado_156649" data-name="Trazado 156649" d="M1879.639,409.8a5.5,5.5,0,1,1,4.119-6.6,5.5,5.5,0,0,1-4.119,6.6" transform="translate(-1573.662 -335.206)" fill="#5b0000"/>
    <path id="Trazado_156650" data-name="Trazado 156650" d="M2952.013,178.9c6.045-.49,11.274-3.1,14.215-6.7a11.78,11.78,0,0,0,2.451-5.229,9.956,9.956,0,0,0-1.307-5.556c-2.288-3.595-7.353-6.863-16.012-8.987l.653-3.1c9.641,2.451,15.359,6.373,17.973,10.458a11.542,11.542,0,0,1,1.635,7.517,11.938,11.938,0,0,1-3.1,6.863c-3.268,4.085-9.313,7.19-16.339,7.844Z" transform="translate(-2479.811 -125.464)" fill="#f97922"/>
    <path id="Trazado_156651" data-name="Trazado 156651" d="M2935.594,129.686a5.5,5.5,0,1,1,4.119-6.6,5.5,5.5,0,0,1-4.119,6.6" transform="translate(-2460.903 -99.843)" fill="#5b0000"/>
    <path id="Trazado_156652" data-name="Trazado 156652" d="M2518.633,17.387h-14.215a32.776,32.776,0,0,0-32.679,32.682v21.08a11.647,11.647,0,0,0,11.6,11.6h56.37a11.646,11.646,0,0,0,11.6-11.6V50.069a32.776,32.776,0,0,0-32.678-32.682" transform="translate(-2076.821 -14.609)" fill="#f97922"/>
    <path id="Trazado_156653" data-name="Trazado 156653" d="M2483.183,64.433h49.57a7.353,7.353,0,0,1,7.352,7.353v.127a7.353,7.353,0,0,1-7.352,7.353h-49.57a7.353,7.353,0,0,1-7.353-7.353v-.127a7.353,7.353,0,0,1,7.353-7.353" transform="translate(-2080.258 -54.138)" fill="#e53c43"/>
    <path id="Trazado_156654" data-name="Trazado 156654" d="M2561.927,206.6h49.57a7.353,7.353,0,0,1,7.353,7.353v.127a7.353,7.353,0,0,1-7.353,7.353h-49.57a7.353,7.353,0,0,1-7.353-7.353v-.127a7.353,7.353,0,0,1,7.353-7.353" transform="translate(-2146.42 -173.587)" fill="#a32636"/>
    <path id="Trazado_156655" data-name="Trazado 156655" d="M2555.9,290.46h33.986c6.948,0,12.581,4.243,12.581,9.478s-5.633,9.478-12.581,9.478H2555.9c-6.948,0-12.581-4.243-12.581-9.478s5.633-9.478,12.581-9.478" transform="translate(-2136.968 -244.052)" fill="#612f3a"/>
    <path id="Trazado_156656" data-name="Trazado 156656" d="M2544.656,139.094h33.992c6.948,0,12.581,2.758,12.581,6.159s-5.633,6.159-12.581,6.159h-33.992c-6.949,0-12.582-2.758-12.582-6.159s5.633-6.159,12.582-6.159" transform="translate(-2127.516 -116.87)" fill="#733e3a"/>
    <path id="Trazado_156657" data-name="Trazado 156657" d="M2582.925,88.979h0a7.322,7.322,0,0,0-7.353,7.353v11.6h-11.6a7.322,7.322,0,0,0-7.353,7.353,7.428,7.428,0,0,0,7.353,7.353h11.6v11.6a7.353,7.353,0,1,0,14.706,0v-11.6h11.6a7.428,7.428,0,0,0,7.353-7.353,7.323,7.323,0,0,0-7.353-7.353h-11.6v-11.6a7.323,7.323,0,0,0-7.353-7.353" transform="translate(-2148.138 -74.762)" fill="#60c44a"/>
    <path id="Trazado_156658" data-name="Trazado 156658" d="M2593.727,126.091h0a7.4,7.4,0,0,0,0,10.295l8.333,8.334-8.333,8.17a7.6,7.6,0,0,0,0,10.458,7.4,7.4,0,0,0,10.293,0l8.333-8.334,8.17,8.334a7.395,7.395,0,1,0,10.457-10.458l-8.333-8.17,8.333-8.334a7.4,7.4,0,0,0,0-10.295,7.6,7.6,0,0,0-10.457,0l-8.17,8.17-8.333-8.17a7.4,7.4,0,0,0-10.293,0" transform="translate(-2177.568 -104.195)" fill="#388946"/>
    <path id="Trazado_156659" data-name="Trazado 156659" d="M2345.805,17.387H2331.59a32.776,32.776,0,0,0-32.678,32.682v21.08a11.646,11.646,0,0,0,11.6,11.6h79.736a11.646,11.646,0,0,1-11.6-11.6l-.328-23.04a32.827,32.827,0,0,0-32.515-30.721" transform="translate(-1931.606 -14.609)" fill="#feae35"/>
    <path id="Trazado_156660" data-name="Trazado 156660" d="M2298.912,337.628v1.634a11.646,11.646,0,0,0,11.6,11.6h79.736a11.646,11.646,0,0,1-11.6-11.6v-2.778h-.491a8.839,8.839,0,0,1-8.333,6.046h-63.232a8.674,8.674,0,0,1-7.679-4.9" transform="translate(-1931.606 -282.723)" fill="#f97922"/>
    <path id="Trazado_156661" data-name="Trazado 156661" d="M2689.187,245.46a4.739,4.739,0,1,1-4.738,4.739,4.739,4.739,0,0,1,4.738-4.739" transform="translate(-2255.545 -206.242)" fill="#d67643"/>
    <path id="Trazado_156662" data-name="Trazado 156662" d="M2574.566,121.707a6.7,6.7,0,1,1-6.7,6.7,6.7,6.7,0,0,1,6.7-6.7" transform="translate(-2157.59 -102.261)" fill="#d67643"/>
    <path id="Trazado_156663" data-name="Trazado 156663" d="M2322.057,253.642a4.739,4.739,0,1,1-4.738,4.739,4.739,4.739,0,0,1,4.738-4.739" transform="translate(-1947.073 -213.117)" fill="#d67643"/>
    <path id="Trazado_156664" data-name="Trazado 156664" d="M2407.142,87.957a3.922,3.922,0,1,1-3.921,3.922,3.922,3.922,0,0,1,3.921-3.922" transform="translate(-2019.25 -73.904)" fill="#d67643"/>
    <path id="Trazado_156665" data-name="Trazado 156665" d="M2598.372,166.386a.987.987,0,1,1,.817,1.8l-5.065,2.451,4.412,3.432a1.046,1.046,0,1,1-1.307,1.634l-6.862-5.556Z" transform="translate(-2176.494 -139.75)"/>
    <path id="Trazado_156666" data-name="Trazado 156666" d="M2383.959,168.183a1.029,1.029,0,0,1-.49-1.307,1.317,1.317,0,0,1,1.47-.49l7.843,3.758-6.862,5.556a1.012,1.012,0,0,1-1.307-.163.922.922,0,0,1,.163-1.471l4.249-3.432Z" transform="translate(-2002.602 -139.75)"/>
    <path id="Trazado_156667" data-name="Trazado 156667" d="M2467.166,218.293v1.144c0,6.7-5.065,10.458-11.438,10.458s-11.6-3.758-11.6-10.458a2.786,2.786,0,0,1,.163-1.144c7.516-1.961,16.34-1.961,22.875,0" transform="translate(-2053.62 -182.18)" fill="#f66"/>
    <path id="Trazado_156668" data-name="Trazado 156668" d="M2479.691,262.883a12.316,12.316,0,0,1-8.5,3.1,12.74,12.74,0,0,1-8.66-3.1,12,12,0,0,1,8.66-3.1,11.6,11.6,0,0,1,8.5,3.1" transform="translate(-2069.087 -218.272)" fill="#ffabab"/>
    <path id="Trazado_156669" data-name="Trazado 156669" d="M2462.991,213.138v1.144a10.92,10.92,0,0,1-3.431,8.334,14.8,14.8,0,0,1-18.137,0,10.921,10.921,0,0,1-3.431-8.334v-1.144l.164-.817.654-.163a49.985,49.985,0,0,1,12.091-1.471,42.131,42.131,0,0,1,11.437,1.471l.654.327Zm-1.96,1.144v-.327a39.974,39.974,0,0,0-10.13-1.307,50.094,50.094,0,0,0-10.947,1.307v.327a8.369,8.369,0,0,0,2.941,6.7,10.781,10.781,0,0,0,7.679,2.778,11.357,11.357,0,0,0,7.68-2.778,8.8,8.8,0,0,0,2.778-6.7" transform="translate(-2048.465 -177.025)"/>
    <rect id="Rectángulo_10145" data-name="Rectángulo 10145" width="3.104" height="26.309" transform="translate(428.087 63.893)" fill="#f97922"/>
    <path id="Trazado_156670" data-name="Trazado 156670" d="M2624.331,556.3a3.447,3.447,0,0,0-1.307,3.1,1.484,1.484,0,0,0,1.307,1.471h10.13s1.634,0,1.471-1.961v-4.576c0-2.451-2.451-4.085-4.412-2.451Z" transform="translate(-2203.924 -463.162)" fill="#ac0e23"/>
    <path id="Trazado_156671" data-name="Trazado 156671" d="M2650.952,562.969h0a.568.568,0,0,1,.816.163l1.145,1.471c.163.327.163.817-.164.98a.77.77,0,0,1-.981-.163l-.98-1.471a.616.616,0,0,1,.164-.981" transform="translate(-2227.113 -472.931)" fill="#fff"/>
    <path id="Trazado_156672" data-name="Trazado 156672" d="M2661.178,556.46h0c.327-.327.654-.163.816.163l1.144,1.47a.7.7,0,1,1-1.144.817l-.98-1.634c-.327-.163-.164-.654.164-.817" transform="translate(-2235.705 -467.403)" fill="#fff"/>
    <rect id="Rectángulo_10146" data-name="Rectángulo 10146" width="3.104" height="26.309" transform="translate(408.97 63.893)" fill="#f97922"/>
    <path id="Trazado_156673" data-name="Trazado 156673" d="M2504.681,556.3a3.446,3.446,0,0,0-1.307,3.1,1.484,1.484,0,0,0,1.307,1.471h10.13s1.635,0,1.471-1.961v-4.576c0-2.451-2.451-4.085-4.412-2.451Z" transform="translate(-2103.391 -463.162)" fill="#ac0e23"/>
    <path id="Trazado_156674" data-name="Trazado 156674" d="M2531.3,562.969h0a.568.568,0,0,1,.816.163l1.145,1.471c.163.327.163.817-.164.98a.77.77,0,0,1-.981-.163l-.98-1.471a.616.616,0,0,1,.164-.981" transform="translate(-2126.58 -472.931)" fill="#fff"/>
    <path id="Trazado_156675" data-name="Trazado 156675" d="M2541.528,556.46h0c.164-.327.654-.163.816.163l1.145,1.47a.7.7,0,1,1-1.145.817l-.98-1.634c-.327-.163-.163-.654.164-.817" transform="translate(-2135.172 -467.403)" fill="#fff"/>
    <path id="Trazado_156676" data-name="Trazado 156676" d="M2317.682,338.924a18.781,18.781,0,0,0,6.862,7.353,9.807,9.807,0,0,0,5.556,1.471,7.7,7.7,0,0,0,5.229-2.124c3.1-2.778,5.556-8.334,6.372-17.321l2.941.327c-.817,9.8-3.595,16.014-7.353,19.282a11.16,11.16,0,0,1-7.026,2.941,13.463,13.463,0,0,1-7.353-1.961,22.824,22.824,0,0,1-8.66-9.968Z" transform="translate(-1944.495 -275.848)" fill="#f97922"/>
    <path id="Trazado_156677" data-name="Trazado 156677" d="M2472.242,285.3a5.5,5.5,0,1,1,4.119-6.6,5.5,5.5,0,0,1-4.119,6.6" transform="translate(-2071.583 -230.596)" fill="#5b0000"/>
    <rect id="Rectángulo_10147" data-name="Rectángulo 10147" width="30.064" height="3.595" transform="translate(726.091 50.82)" fill="#f97922"/>
    <path id="Trazado_156678" data-name="Trazado 156678" d="M4509.736,301.845a5.5,5.5,0,1,0-6.594,4.119,5.5,5.5,0,0,0,6.594-4.119" transform="translate(-3780.079 -247.957)" fill="#5b0000"/>
    <path id="Trazado_156679" data-name="Trazado 156679" d="M4846.03,19.432h-14.215a32.777,32.777,0,0,0-32.679,32.682v21.08a11.646,11.646,0,0,0,11.6,11.6h56.37a11.645,11.645,0,0,0,11.6-11.6V52.114a32.775,32.775,0,0,0-32.678-32.682" transform="translate(-4032.362 -16.327)" fill="#f97922"/>
    <path id="Trazado_156680" data-name="Trazado 156680" d="M4810.581,65.456h49.57a7.352,7.352,0,0,1,7.352,7.353v.127a7.352,7.352,0,0,1-7.352,7.353h-49.57a7.353,7.353,0,0,1-7.353-7.353v-.127a7.353,7.353,0,0,1,7.353-7.353" transform="translate(-4035.799 -54.998)" fill="#e53c43"/>
    <path id="Trazado_156681" data-name="Trazado 156681" d="M4889.325,208.641h49.57a7.353,7.353,0,0,1,7.353,7.353v.127a7.353,7.353,0,0,1-7.353,7.353h-49.57a7.353,7.353,0,0,1-7.353-7.353v-.127a7.353,7.353,0,0,1,7.353-7.353" transform="translate(-4101.962 -175.306)" fill="#a32636"/>
    <path id="Trazado_156682" data-name="Trazado 156682" d="M4883.3,291.483h33.985c6.948,0,12.581,4.243,12.581,9.478s-5.633,9.478-12.581,9.478H4883.3c-6.949,0-12.582-4.243-12.582-9.478s5.633-9.478,12.582-9.478" transform="translate(-4092.51 -244.912)" fill="#612f3a"/>
    <path id="Trazado_156683" data-name="Trazado 156683" d="M4873.076,140.117h33.992c6.948,0,12.581,2.758,12.581,6.159s-5.633,6.159-12.581,6.159h-33.992c-6.947,0-12.58-2.758-12.58-6.159s5.633-6.159,12.58-6.159" transform="translate(-4083.917 -117.73)" fill="#733e3a"/>
    <path id="Trazado_156684" data-name="Trazado 156684" d="M4910.325,90h0a7.322,7.322,0,0,0-7.353,7.353v11.6h-11.6a7.428,7.428,0,0,0-7.353,7.353,7.323,7.323,0,0,0,7.353,7.353h11.6v11.6a7.352,7.352,0,1,0,14.7,0v-11.6h11.6a7.324,7.324,0,0,0,7.354-7.353,7.429,7.429,0,0,0-7.354-7.353h-11.6v-11.6A7.322,7.322,0,0,0,4910.325,90" transform="translate(-4103.682 -75.622)" fill="#60c44a"/>
    <path id="Trazado_156685" data-name="Trazado 156685" d="M4921.125,127.114h0a7.6,7.6,0,0,0,0,10.458l8.333,8.17-8.333,8.334a7.4,7.4,0,0,0,0,10.295,7.6,7.6,0,0,0,10.457,0l8.169-8.17,8.17,8.17a7.6,7.6,0,0,0,10.458,0,7.4,7.4,0,0,0,0-10.295l-8.334-8.334,8.334-8.17a7.395,7.395,0,1,0-10.458-10.458l-8.17,8.334-8.169-8.334a7.6,7.6,0,0,0-10.457,0" transform="translate(-4133.109 -105.054)" fill="#388946"/>
    <path id="Trazado_156686" data-name="Trazado 156686" d="M4673.2,19.432h-14.216a32.776,32.776,0,0,0-32.678,32.682v21.08a11.646,11.646,0,0,0,11.6,11.6h79.735a11.646,11.646,0,0,1-11.6-11.6l-.327-23.2A32.572,32.572,0,0,0,4673.2,19.432" transform="translate(-3887.148 -16.327)" fill="#feae35"/>
    <path id="Trazado_156687" data-name="Trazado 156687" d="M4626.31,339.51v1.8a11.646,11.646,0,0,0,11.6,11.6h79.735a11.646,11.646,0,0,1-11.6-11.6V338.53h-.489a8.645,8.645,0,0,1-8.17,5.883h-63.233a8.732,8.732,0,0,1-7.843-4.9" transform="translate(-3887.148 -284.442)" fill="#f97922"/>
    <path id="Trazado_156688" data-name="Trazado 156688" d="M5016.585,246.482a4.739,4.739,0,1,1-4.737,4.739,4.739,4.739,0,0,1,4.737-4.739" transform="translate(-4211.087 -207.101)" fill="#d67643"/>
    <path id="Trazado_156689" data-name="Trazado 156689" d="M4902.988,122.73a6.7,6.7,0,1,1-6.7,6.7,6.7,6.7,0,0,1,6.7-6.7" transform="translate(-4113.991 -103.121)" fill="#d67643"/>
    <path id="Trazado_156690" data-name="Trazado 156690" d="M4650.478,254.664a4.739,4.739,0,1,1-4.737,4.739,4.739,4.739,0,0,1,4.737-4.739" transform="translate(-3903.474 -213.975)" fill="#d67643"/>
    <path id="Trazado_156691" data-name="Trazado 156691" d="M4734.541,88.979a3.922,3.922,0,1,1-3.921,3.922,3.921,3.921,0,0,1,3.921-3.922" transform="translate(-3974.792 -74.762)" fill="#d67643"/>
    <path id="Trazado_156692" data-name="Trazado 156692" d="M4695.1,168.754a5.392,5.392,0,1,1-5.392,5.393,5.392,5.392,0,0,1,5.392-5.393" transform="translate(-3940.42 -141.792)" fill="#fff"/>
    <path id="Trazado_156693" data-name="Trazado 156693" d="M4689.95,161.594a6.169,6.169,0,0,1,4.411,1.961,5.933,5.933,0,0,1,1.961,4.575,5.834,5.834,0,0,1-1.961,4.412,6.168,6.168,0,0,1-4.411,1.961,6.553,6.553,0,0,1-4.575-1.961,6.314,6.314,0,0,1-1.8-4.412,6.42,6.42,0,0,1,1.8-4.575,6.553,6.553,0,0,1,4.575-1.961m3.105,3.432a4.469,4.469,0,0,0-3.105-1.307,4.183,4.183,0,0,0-3.1,1.307,3.935,3.935,0,0,0-1.308,3.1,3.829,3.829,0,0,0,1.308,2.941,4.184,4.184,0,0,0,3.1,1.307,4.469,4.469,0,0,0,3.105-1.307,3.828,3.828,0,0,0,1.306-2.941,4.185,4.185,0,0,0-1.306-3.1" transform="translate(-3935.266 -135.776)"/>
    <path id="Trazado_156694" data-name="Trazado 156694" d="M4925.2,168.754a5.392,5.392,0,1,1-5.394,5.393,5.392,5.392,0,0,1,5.394-5.393" transform="translate(-4133.753 -141.792)" fill="#fff"/>
    <path id="Trazado_156695" data-name="Trazado 156695" d="M4920.046,161.594a6.872,6.872,0,0,1,4.575,1.961,6.42,6.42,0,0,1,1.8,4.575,6.314,6.314,0,0,1-1.8,4.412,6.871,6.871,0,0,1-4.575,1.961,6.551,6.551,0,0,1-4.575-1.961,6.314,6.314,0,0,1-1.8-4.412,6.42,6.42,0,0,1,1.8-4.575,6.552,6.552,0,0,1,4.575-1.961m3.1,3.432a4.461,4.461,0,0,0-3.1-1.307,4.182,4.182,0,0,0-3.1,1.307,3.932,3.932,0,0,0-1.308,3.1,3.826,3.826,0,0,0,1.308,2.941,4.182,4.182,0,0,0,3.1,1.307,4.461,4.461,0,0,0,3.1-1.307,3.826,3.826,0,0,0,1.308-2.941,4.183,4.183,0,0,0-1.308-3.1" transform="translate(-4128.598 -135.776)"/>
    <path id="Trazado_156696" data-name="Trazado 156696" d="M4714.009,191.254a1.8,1.8,0,1,1-1.8,1.8,1.8,1.8,0,0,1,1.8-1.8" transform="translate(-3959.324 -160.697)"/>
    <path id="Trazado_156697" data-name="Trazado 156697" d="M4944.105,191.254a1.8,1.8,0,1,1-1.8,1.8,1.8,1.8,0,0,1,1.8-1.8" transform="translate(-4152.657 -160.697)"/>
    <path id="Trazado_156698" data-name="Trazado 156698" d="M4814.8,272.409c2.286,0,4.41.327,4.41-2.451,0-2.941-1.961-5.066-4.41-5.066s-4.413,2.124-4.413,5.066c0,2.778,1.962,2.451,4.413,2.451" transform="translate(-4041.813 -222.569)" fill="#f66"/>
    <path id="Trazado_156699" data-name="Trazado 156699" d="M4809.642,265.413h.49c1.635,0,2.94,0,2.94-1.471a5.249,5.249,0,0,0-.98-2.941,2.938,2.938,0,0,0-2.45-1.144,2.854,2.854,0,0,0-2.288,1.144,4.266,4.266,0,0,0-.98,2.941c0,1.471,1.145,1.471,2.615,1.471Zm.49,1.961h-1.144c-2.615,0-4.739,0-4.739-3.432a5.914,5.914,0,0,1,1.635-4.249,5.056,5.056,0,0,1,3.758-1.961,5.119,5.119,0,0,1,3.922,1.961,5.842,5.842,0,0,1,1.471,4.249c0,3.432-2.125,3.432-4.9,3.432" transform="translate(-4036.658 -216.554)"/>
    <rect id="Rectángulo_10148" data-name="Rectángulo 10148" width="30.227" height="3.595" transform="translate(788.67 50.82)" fill="#f97922"/>
    <path id="Trazado_156700" data-name="Trazado 156700" d="M4901.717,301.845a5.5,5.5,0,1,0-6.594,4.119,5.5,5.5,0,0,0,6.594-4.119" transform="translate(-4109.432 -247.957)" fill="#5b0000"/>
    <path id="Trazado_156701" data-name="Trazado 156701" d="M4769.415,413.19,4752.1,433.126l2.286,1.961,17.32-19.936Z" transform="translate(-3992.836 -347.173)" fill="#f97922"/>
    <path id="Trazado_156702" data-name="Trazado 156702" d="M4685.25,519.536a3.477,3.477,0,0,0-2.942,1.634,1.2,1.2,0,0,0,0,1.8l7.681,6.863a1.834,1.834,0,0,0,2.45-.654l2.941-3.432c1.634-1.8.817-4.739-1.634-4.739Z" transform="translate(-3933.833 -436.524)" fill="#ac0e23"/>
    <path id="Trazado_156703" data-name="Trazado 156703" d="M4727.347,519.327h0a.6.6,0,0,1,.652.654l-.163,1.8c0,.49-.327.654-.816.654-.327,0-.491-.327-.491-.654l.164-1.961c0-.327.327-.654.654-.49" transform="translate(-3971.354 -436.316)" fill="#fff"/>
    <path id="Trazado_156704" data-name="Trazado 156704" d="M4739.389,520.579h0a1.084,1.084,0,0,1,.653.817l-.164,1.8a.746.746,0,0,1-.816.654.571.571,0,0,1-.489-.817l.162-1.8a.7.7,0,0,1,.654-.654" transform="translate(-3981.437 -437.404)" fill="#fff"/>
    <path id="Trazado_156705" data-name="Trazado 156705" d="M5019.006,398.872l.327,26.309h2.94l-.163-26.309Z" transform="translate(-4217.102 -335.143)" fill="#f97922"/>
    <path id="Trazado_156706" data-name="Trazado 156706" d="M4965.875,555.446a3.268,3.268,0,0,0-1.144,3.1,1.484,1.484,0,0,0,1.307,1.471l10.131-.163a1.681,1.681,0,0,0,1.471-1.961v-4.575c0-2.451-2.614-4.085-4.411-2.451Z" transform="translate(-4171.486 -462.303)" fill="#ac0e23"/>
    <path id="Trazado_156707" data-name="Trazado 156707" d="M4992.017,561.946h0a.769.769,0,0,1,.979.163l.98,1.471a.74.74,0,0,1,0,.981c-.327.163-.816.163-.98-.163l-1.144-1.471a.77.77,0,0,1,.164-.98" transform="translate(-4194.198 -472.072)" fill="#fff"/>
    <path id="Trazado_156708" data-name="Trazado 156708" d="M5002.243,555.438h0a.616.616,0,0,1,.98.163l1.144,1.471a1.08,1.08,0,0,1-.163.981,1,1,0,0,1-.98-.164l-1.144-1.634a.568.568,0,0,1,.163-.817" transform="translate(-4202.789 -466.544)" fill="#fff"/>
    <path id="Trazado_156709" data-name="Trazado 156709" d="M3462.72,114.77l-12.255-27.616-3.268,1.471,12.418,27.453Z" transform="translate(-2896.426 -73.229)" fill="#f97922"/>
    <path id="Trazado_156710" data-name="Trazado 156710" d="M3427.07,57.528a5.5,5.5,0,1,1,1.043-7.706,5.5,5.5,0,0,1-1.043,7.706" transform="translate(-2872.096 -40.041)" fill="#5b0000"/>
    <path id="Trazado_156711" data-name="Trazado 156711" d="M3696.575,120.9H3682.36a32.777,32.777,0,0,0-32.68,32.682v21.08a11.647,11.647,0,0,0,11.6,11.6h56.37a11.646,11.646,0,0,0,11.6-11.6v-21.08a32.776,32.776,0,0,0-32.678-32.682" transform="translate(-3066.558 -101.587)" fill="#f97922"/>
    <path id="Trazado_156712" data-name="Trazado 156712" d="M3661.124,166.928h49.57a7.353,7.353,0,0,1,7.353,7.353v.127a7.353,7.353,0,0,1-7.353,7.353h-49.57a7.352,7.352,0,0,1-7.352-7.353v-.127a7.352,7.352,0,0,1,7.352-7.353" transform="translate(-3069.996 -140.257)" fill="#e53c43"/>
    <path id="Trazado_156713" data-name="Trazado 156713" d="M3739.868,310.112h49.571a7.353,7.353,0,0,1,7.352,7.353v.127a7.353,7.353,0,0,1-7.352,7.353h-49.571a7.353,7.353,0,0,1-7.352-7.353v-.127a7.353,7.353,0,0,1,7.352-7.353" transform="translate(-3136.159 -260.564)" fill="#a32636"/>
    <path id="Trazado_156714" data-name="Trazado 156714" d="M3733.849,392.955h33.985c6.948,0,12.581,4.243,12.581,9.478s-5.633,9.478-12.581,9.478h-33.985c-6.949,0-12.582-4.243-12.582-9.478s5.633-9.478,12.582-9.478" transform="translate(-3126.706 -330.171)" fill="#612f3a"/>
    <path id="Trazado_156715" data-name="Trazado 156715" d="M3723.621,241.588h33.992c6.948,0,12.581,2.758,12.581,6.159s-5.633,6.159-12.581,6.159h-33.992c-6.948,0-12.581-2.758-12.581-6.159s5.633-6.159,12.581-6.159" transform="translate(-3118.114 -202.989)" fill="#733e3a"/>
    <path id="Trazado_156716" data-name="Trazado 156716" d="M3760.868,191.474h0a7.322,7.322,0,0,0-7.353,7.353v11.6h-11.6a7.427,7.427,0,0,0-7.352,7.353,7.322,7.322,0,0,0,7.352,7.353h11.6v11.6a7.353,7.353,0,1,0,14.705,0v-11.6h11.6a7.323,7.323,0,0,0,7.354-7.353,7.428,7.428,0,0,0-7.354-7.353h-11.6v-11.6a7.322,7.322,0,0,0-7.353-7.353" transform="translate(-3137.878 -160.882)" fill="#60c44a"/>
    <path id="Trazado_156717" data-name="Trazado 156717" d="M3771.67,228.586h0a7.6,7.6,0,0,0,0,10.458l8.333,8.17-8.333,8.334a7.4,7.4,0,0,0,0,10.295,7.6,7.6,0,0,0,10.457,0l8.17-8.17,8.333,8.17a7.279,7.279,0,0,0,10.294-10.295l-8.333-8.334,8.333-8.17a7.6,7.6,0,0,0,0-10.458,7.4,7.4,0,0,0-10.294,0l-8.333,8.334-8.17-8.334a7.6,7.6,0,0,0-10.457,0" transform="translate(-3167.306 -190.314)" fill="#388946"/>
    <path id="Trazado_156718" data-name="Trazado 156718" d="M3523.747,120.9h-14.215a32.776,32.776,0,0,0-32.678,32.682v21.08a11.646,11.646,0,0,0,11.6,11.6h79.735a11.647,11.647,0,0,1-11.6-11.6l-.326-23.2a32.572,32.572,0,0,0-32.516-30.557" transform="translate(-2921.344 -101.587)" fill="#feae35"/>
    <path id="Trazado_156719" data-name="Trazado 156719" d="M3476.854,440.982v1.8a11.646,11.646,0,0,0,11.6,11.6h79.735a11.647,11.647,0,0,1-11.6-11.6V440h-.49a8.641,8.641,0,0,1-8.169,5.883H3484.7a8.73,8.73,0,0,1-7.843-4.9" transform="translate(-2921.344 -369.701)" fill="#f97922"/>
    <path id="Trazado_156720" data-name="Trazado 156720" d="M3867.131,347.954a4.739,4.739,0,1,1-4.739,4.739,4.738,4.738,0,0,1,4.739-4.739" transform="translate(-3245.283 -292.36)" fill="#d67643"/>
    <path id="Trazado_156721" data-name="Trazado 156721" d="M3753.532,224.2a6.7,6.7,0,1,1-6.7,6.7,6.7,6.7,0,0,1,6.7-6.7" transform="translate(-3148.188 -188.38)" fill="#d67643"/>
    <path id="Trazado_156722" data-name="Trazado 156722" d="M3501.022,356.136a4.739,4.739,0,1,1-4.738,4.739,4.738,4.738,0,0,1,4.738-4.739" transform="translate(-2937.67 -299.235)" fill="#d67643"/>
    <path id="Trazado_156723" data-name="Trazado 156723" d="M3585.085,190.451a3.922,3.922,0,1,1-3.921,3.922,3.922,3.922,0,0,1,3.921-3.922" transform="translate(-3008.988 -160.022)" fill="#d67643"/>
    <path id="Trazado_156724" data-name="Trazado 156724" d="M3555.1,257.952a3.595,3.595,0,1,1-3.595,3.595,3.595,3.595,0,0,1,3.595-3.595" transform="translate(-2984.07 -216.738)"/>
    <path id="Trazado_156725" data-name="Trazado 156725" d="M3785.2,257.952a3.595,3.595,0,1,1-3.595,3.595,3.595,3.595,0,0,1,3.595-3.595" transform="translate(-3177.403 -216.738)"/>
    <path id="Trazado_156726" data-name="Trazado 156726" d="M3636.387,291.7h16.829v13.236a8.415,8.415,0,1,1-16.829,0Z" transform="translate(-3055.389 -245.097)" fill="#f66"/>
    <path id="Trazado_156727" data-name="Trazado 156727" d="M3658.087,378.795a8.455,8.455,0,0,1-7.189,4.249,8.725,8.725,0,0,1-7.353-4.249,8.377,8.377,0,0,1,7.353-4.249,8.121,8.121,0,0,1,7.189,4.249" transform="translate(-3061.402 -314.703)" fill="#ffabab"/>
    <path id="Trazado_156728" data-name="Trazado 156728" d="M3631.231,285.566h17.81v14.216a8.992,8.992,0,0,1-2.777,6.7,9.4,9.4,0,0,1-16.013-6.7V285.566Zm15.849,1.961h-14.705v12.256a7.255,7.255,0,0,0,7.353,7.353,7.169,7.169,0,0,0,5.065-2.124,6.794,6.794,0,0,0,2.287-5.229Z" transform="translate(-3050.232 -239.94)"/>
    <path id="Trazado_156729" data-name="Trazado 156729" d="M4199.062,538.167a3.946,3.946,0,0,1,3.268,1.8s.98,1.307,0,2.288l-9.15,7.353a1.858,1.858,0,0,1-2.614-.654l-3.432-4.085c-1.8-2.288-.652-5.392,2.124-5.392Z" transform="translate(-3517.413 -452.18)" fill="#ac0e23"/>
    <rect id="Rectángulo_10149" data-name="Rectángulo 10149" width="1.515" height="3.66" transform="translate(675.553 85.723) rotate(-3.586)" fill="#fff"/>
    <rect id="Rectángulo_10150" data-name="Rectángulo 10150" width="1.515" height="3.66" transform="translate(673.325 85.975) rotate(-3.586)" fill="#fff"/>
    <path id="Trazado_156730" data-name="Trazado 156730" d="M4087.093,516.3a1.775,1.775,0,0,0,2.451.163,1.58,1.58,0,0,0,.163-2.288s-8.007-9.641-20.424-7.844a1.623,1.623,0,0,0-1.471,1.8,1.688,1.688,0,0,0,1.961,1.47c10.62-1.47,17.319,6.7,17.319,6.7" transform="translate(-3417.863 -425.242)" fill="#f97922"/>
    <path id="Trazado_156731" data-name="Trazado 156731" d="M3356.532,538.167a4.152,4.152,0,0,0-3.431,1.8,1.689,1.689,0,0,0,.163,2.288l9.149,7.353s1.308.981,2.614-.654l3.268-4.085c1.8-2.288.654-5.392-2.124-5.392Z" transform="translate(-2817.036 -452.18)" fill="#ac0e23"/>
    <rect id="Rectángulo_10151" data-name="Rectángulo 10151" width="3.66" height="1.515" transform="matrix(0.063, -0.998, 0.998, 0.063, 543.775, 89.281)" fill="#fff"/>
    <rect id="Rectángulo_10152" data-name="Rectángulo 10152" width="3.66" height="1.515" transform="matrix(0.063, -0.998, 0.998, 0.063, 546.002, 89.532)" fill="#fff"/>
    <path id="Trazado_156732" data-name="Trazado 156732" d="M3437.825,516.3a1.578,1.578,0,0,1-2.287.163,1.6,1.6,0,0,1-.327-2.288c.164,0,8.007-9.641,20.588-7.844a1.62,1.62,0,0,1,1.308,1.8,1.545,1.545,0,0,1-1.8,1.47c-10.62-1.47-17.483,6.7-17.483,6.7" transform="translate(-2886.074 -425.242)" fill="#f97922"/>
    <path id="Trazado_156733" data-name="Trazado 156733" d="M4088.4,114.77l12.418-27.616,3.1,1.471L4091.5,116.077Z" transform="translate(-3435.179 -73.229)" fill="#f97922"/>
    <path id="Trazado_156734" data-name="Trazado 156734" d="M4148.007,57.528a5.5,5.5,0,1,0-1.043-7.706,5.5,5.5,0,0,0,1.043,7.706" transform="translate(-3483.444 -40.041)" fill="#5b0000"/>
    <rect id="Rectángulo_10153" data-name="Rectángulo 10153" width="3.431" height="30.23" transform="translate(1000.099 58.827)" fill="#f97922"/>
    <path id="Trazado_156735" data-name="Trazado 156735" d="M6242.464,533.755a5.5,5.5,0,1,0,4.118,6.595,5.5,5.5,0,0,0-4.118-6.595" transform="translate(-5239.422 -448.356)" fill="#5b0000"/>
    <path id="Trazado_156736" data-name="Trazado 156736" d="M5715.1,139.87a20.49,20.49,0,0,1-14.215-6.536,9.947,9.947,0,0,1-2.287-5.229,8.409,8.409,0,0,1,1.144-5.556c2.288-3.6,7.353-6.863,16.012-9.151l-.653-2.941c-9.64,2.451-15.358,6.209-17.973,10.458a11.536,11.536,0,0,0-1.634,7.517,13.09,13.09,0,0,0,3.1,6.863c3.432,4.085,9.313,7.19,16.339,7.68Z" transform="translate(-4785.419 -92.809)" fill="#f97922"/>
    <rect id="Rectángulo_10154" data-name="Rectángulo 10154" width="3.105" height="26.472" transform="translate(980.982 63.729)" fill="#f97922"/>
    <path id="Trazado_156737" data-name="Trazado 156737" d="M6084.477,556.3a2.925,2.925,0,0,0-1.144,3.1s0,1.307,1.144,1.471h10.293a1.681,1.681,0,0,0,1.471-1.961v-4.576c0-2.451-2.614-4.085-4.411-2.451Z" transform="translate(-5111.337 -463.162)" fill="#ac0e23"/>
    <path id="Trazado_156738" data-name="Trazado 156738" d="M6110.793,562.6h0a.616.616,0,0,1,.98.163l.979,1.471c.327.327.164.653-.163.98a.568.568,0,0,1-.816-.163l-1.145-1.634a.569.569,0,0,1,.164-.817" transform="translate(-5134.223 -472.559)" fill="#fff"/>
    <path id="Trazado_156739" data-name="Trazado 156739" d="M6121.019,555.81h0c.327-.163.818-.163.98.163l1.144,1.634c.164.163,0,.654-.162.817-.327.163-.817.163-.981-.164l-1.144-1.471a.768.768,0,0,1,.163-.98" transform="translate(-5142.814 -466.916)" fill="#fff"/>
    <rect id="Rectángulo_10155" data-name="Rectángulo 10155" width="2.941" height="26.472" transform="translate(961.866 63.729)" fill="#f97922"/>
    <path id="Trazado_156740" data-name="Trazado 156740" d="M5964.15,556.3a3.177,3.177,0,0,0-1.308,3.1,1.484,1.484,0,0,0,1.308,1.471h10.294a1.681,1.681,0,0,0,1.47-1.961v-4.576c0-2.451-2.613-4.085-4.411-2.451Z" transform="translate(-5010.128 -463.162)" fill="#ac0e23"/>
    <path id="Trazado_156741" data-name="Trazado 156741" d="M5991.143,562.6h0a.616.616,0,0,1,.98.163l.979,1.471c.327.327.164.653-.163.98a.568.568,0,0,1-.816-.163l-1.145-1.634a.569.569,0,0,1,.164-.817" transform="translate(-5033.688 -472.559)" fill="#fff"/>
    <path id="Trazado_156742" data-name="Trazado 156742" d="M6001.369,555.81h0c.327-.163.817-.163.98.163l1.144,1.634c.164.163,0,.654-.163.817-.327.163-.816.163-.98-.164l-1.144-1.471a.768.768,0,0,1,.163-.98" transform="translate(-5042.281 -466.916)" fill="#fff"/>
    <path id="Trazado_156743" data-name="Trazado 156743" d="M5995.486,30.683h-14.216a32.775,32.775,0,0,0-32.678,32.682v21.08a11.646,11.646,0,0,0,11.6,11.6h56.37a11.645,11.645,0,0,0,11.6-11.6V63.365a32.776,32.776,0,0,0-32.678-32.682" transform="translate(-4998.165 -25.781)" fill="#f97922"/>
    <path id="Trazado_156744" data-name="Trazado 156744" d="M5960.036,76.706h49.569a7.353,7.353,0,0,1,7.352,7.353v.127a7.353,7.353,0,0,1-7.352,7.353h-49.569a7.353,7.353,0,0,1-7.354-7.353v-.127a7.353,7.353,0,0,1,7.354-7.353" transform="translate(-5001.601 -64.45)" fill="#e53c43"/>
    <path id="Trazado_156745" data-name="Trazado 156745" d="M6038.78,219.891h49.57a7.353,7.353,0,0,1,7.353,7.353v.127a7.353,7.353,0,0,1-7.353,7.353h-49.57a7.353,7.353,0,0,1-7.353-7.353v-.127a7.353,7.353,0,0,1,7.353-7.353" transform="translate(-5067.765 -184.758)" fill="#a32636"/>
    <path id="Trazado_156746" data-name="Trazado 156746" d="M6032.76,302.733h33.984c6.949,0,12.582,4.243,12.582,9.478s-5.633,9.478-12.582,9.478H6032.76c-6.949,0-12.582-4.243-12.582-9.478s5.633-9.478,12.582-9.478" transform="translate(-5058.313 -254.364)" fill="#612f3a"/>
    <path id="Trazado_156747" data-name="Trazado 156747" d="M6021.511,151.367h33.99c6.949,0,12.582,2.758,12.582,6.159s-5.633,6.159-12.582,6.159h-33.99c-6.949,0-12.582-2.758-12.582-6.159s5.633-6.159,12.582-6.159" transform="translate(-5048.861 -127.183)" fill="#733e3a"/>
    <path id="Trazado_156748" data-name="Trazado 156748" d="M6059.778,101.252h0a7.322,7.322,0,0,0-7.352,7.353v11.6h-11.6a7.428,7.428,0,0,0-7.354,7.353,7.322,7.322,0,0,0,7.354,7.353h11.6v11.6a7.353,7.353,0,1,0,14.705,0v-11.6h11.6a7.323,7.323,0,0,0,7.353-7.353,7.428,7.428,0,0,0-7.353-7.353h-11.6v-11.6a7.322,7.322,0,0,0-7.354-7.353" transform="translate(-5069.483 -85.075)" fill="#60c44a"/>
    <path id="Trazado_156749" data-name="Trazado 156749" d="M6070.581,138.364h0a7.6,7.6,0,0,0,0,10.458l8.332,8.17-8.332,8.334a7.279,7.279,0,1,0,10.294,10.295l8.332-8.17,8.17,8.17a7.6,7.6,0,0,0,10.458,0,7.4,7.4,0,0,0,0-10.295l-8.334-8.334,8.334-8.17a7.395,7.395,0,0,0-10.458-10.458l-8.17,8.334-8.332-8.334a7.4,7.4,0,0,0-10.294,0" transform="translate(-5098.912 -114.507)" fill="#388946"/>
    <path id="Trazado_156750" data-name="Trazado 156750" d="M5822.659,30.683h-14.216a32.776,32.776,0,0,0-32.678,32.682v21.08a11.646,11.646,0,0,0,11.6,11.6H5867.1a11.647,11.647,0,0,1-11.6-11.6l-.327-23.2a32.686,32.686,0,0,0-32.515-30.557" transform="translate(-4852.951 -25.781)" fill="#feae35"/>
    <path id="Trazado_156751" data-name="Trazado 156751" d="M5775.766,350.76v1.8a11.646,11.646,0,0,0,11.6,11.6H5867.1a11.647,11.647,0,0,1-11.6-11.6v-2.778h-.489a8.7,8.7,0,0,1-8.334,5.883h-63.232a8.674,8.674,0,0,1-7.68-4.9" transform="translate(-4852.951 -293.894)" fill="#f97922"/>
    <path id="Trazado_156752" data-name="Trazado 156752" d="M6166.041,257.733a4.739,4.739,0,1,1-4.738,4.739,4.738,4.738,0,0,1,4.738-4.739" transform="translate(-5176.889 -216.554)" fill="#d67643"/>
    <path id="Trazado_156753" data-name="Trazado 156753" d="M6051.421,133.98a6.7,6.7,0,1,1-6.7,6.7,6.7,6.7,0,0,1,6.7-6.7" transform="translate(-5078.935 -112.574)" fill="#d67643"/>
    <path id="Trazado_156754" data-name="Trazado 156754" d="M5798.911,265.915a4.739,4.739,0,1,1-4.738,4.739,4.738,4.738,0,0,1,4.738-4.739" transform="translate(-4868.417 -223.429)" fill="#d67643"/>
    <path id="Trazado_156755" data-name="Trazado 156755" d="M5884,100.229a3.922,3.922,0,1,1-3.921,3.922,3.921,3.921,0,0,1,3.921-3.922" transform="translate(-4940.596 -84.215)" fill="#d67643"/>
    <path id="Trazado_156756" data-name="Trazado 156756" d="M5845.832,217.845a3.6,3.6,0,1,1-3.595,3.595,3.594,3.594,0,0,1,3.595-3.595" transform="translate(-4908.802 -183.039)"/>
    <path id="Trazado_156757" data-name="Trazado 156757" d="M6075.927,217.845a3.6,3.6,0,1,1-3.594,3.595,3.6,3.6,0,0,1,3.594-3.595" transform="translate(-5102.134 -183.039)"/>
    <path id="Trazado_156758" data-name="Trazado 156758" d="M6082.973,174.918a.856.856,0,0,1-1.308-.327,1.064,1.064,0,0,1,.327-1.471c.164,0,.327-.163.491-.163a6.32,6.32,0,0,1,4.248,0,7.067,7.067,0,0,1,3.431,2.778c0,.163.164.49.164.654.326.49,0,.98-.491,1.307a.975.975,0,0,1-1.307-.654c-.164-.163-.164-.163-.164-.327a3.858,3.858,0,0,0-2.287-1.961,4.05,4.05,0,0,0-2.777,0c-.164.163-.164.163-.327.163" transform="translate(-5109.833 -145.014)"/>
    <path id="Trazado_156759" data-name="Trazado 156759" d="M5831.47,173.12a1.063,1.063,0,0,1,.327,1.471.855.855,0,0,1-1.307.327l-.326-.163a4.051,4.051,0,0,0-2.778,0,3.867,3.867,0,0,0-2.288,1.961c0,.163,0,.163-.163.327a.976.976,0,0,1-1.308.654c-.489-.327-.816-.817-.489-1.307,0-.163.163-.49.163-.654a7.057,7.057,0,0,1,3.432-2.778,6.32,6.32,0,0,1,4.248,0c.163,0,.327.163.489.163" transform="translate(-4892.644 -145.014)"/>
    <path id="Trazado_156760" data-name="Trazado 156760" d="M5934.1,259.354a1.034,1.034,0,0,1,.163-1.471,1.221,1.221,0,0,1,1.472,0c0,.163.162.327.325.49a7.665,7.665,0,0,0,5.066,1.8,8.015,8.015,0,0,0,5.229-1.961c.163-.163.325-.327.489-.49a1.05,1.05,0,0,1,1.471-.164,1.036,1.036,0,0,1,.164,1.471c-.327.163-.491.49-.817.654a9.268,9.268,0,0,1-6.535,2.614,8.884,8.884,0,0,1-6.373-2.451,2.258,2.258,0,0,0-.653-.49" transform="translate(-4985.797 -216.215)"/>
    <path id="Trazado_156761" data-name="Trazado 156761" d="M5780.378,97.642a5.5,5.5,0,1,0-4.118-6.6,5.5,5.5,0,0,0,4.118,6.6" transform="translate(-4853.246 -72.919)" fill="#5b0000"/>
  </g>
</svg>
