<svg xmlns="http://www.w3.org/2000/svg" xmlns:xlink="http://www.w3.org/1999/xlink" width="486" height="293.306" viewBox="0 0 486 293.306">
  <defs>
    <clipPath id="clip-path">
      <rect id="Rectángulo_10177" data-name="Rectángulo 10177" width="171.087" height="269.306" fill="none"/>
    </clipPath>
    <clipPath id="clip-path-3">
      <rect id="Rectángulo_10175" data-name="Rectángulo 10175" width="12.954" height="4.627" transform="translate(78.841 158.551)" fill="none"/>
    </clipPath>
  </defs>
  <g id="Grupo_70296" data-name="Grupo 70296" transform="translate(-2709 6945)">
    <rect id="Rectángulo_10173" data-name="Rectángulo 10173" width="486" height="293" rx="22" transform="translate(2709 -6945)" fill="#fff"/>
    <g id="Grupo_70209" data-name="Grupo 70209" transform="translate(2869 -6921)">
      <g id="Grupo_70208" data-name="Grupo 70208" clip-path="url(#clip-path)">
        <g id="Grupo_70207" data-name="Grupo 70207">
          <g id="Grupo_70206" data-name="Grupo 70206" clip-path="url(#clip-path)">
            <path id="Trazado_156863" data-name="Trazado 156863" d="M171.087,225.96c-19.572-9.5-41.014-18.4-58.5-28.9-7.247-4.354-24.871-7.832-27.307-6.763-2.477-.973-21.667,3.37-28.738,8-16.387,10.738-36.234,20.109-54.49,29.9C24.6,256.7,99.39,305.466,171.087,225.96" fill="#4e3b35"/>
            <path id="Trazado_156864" data-name="Trazado 156864" d="M87.468,236.816H81.709a22.308,22.308,0,0,1-22.242-22.243V183.682A22.308,22.308,0,0,1,81.709,161.44h5.759a22.308,22.308,0,0,1,22.243,22.242v30.891a22.309,22.309,0,0,1-22.243,22.243" fill="#f49f7d"/>
            <path id="Trazado_156865" data-name="Trazado 156865" d="M109.711,193.374C90.777,223.462,60,199.146,59.572,195.408c0,0,1.34-39.132-.982-50.467,0,0,55.26-12.47,51.121,48.433" fill="#ea8a6c"/>
            <path id="Trazado_156866" data-name="Trazado 156866" d="M9.086,134.338c5.335,11.047,15.36,17.247,22.393,13.848a9.213,9.213,0,0,0,1.915-1.24c5.323-4.463,5.967-14.96,1.159-24.918-5.335-11.047-15.36-17.247-22.393-13.848s-8.409,15.111-3.074,26.158" fill="#f49f7d"/>
            <path id="Trazado_156867" data-name="Trazado 156867" d="M28.894,125.5c.974,3.1-4.673,3.672-4.988,6.191-.481,3.842,3.577,9.022.639,9.541-4.864.86-10.8-4.789-13.263-12.618s-.514-14.872,4.349-15.732,10.8,4.789,13.263,12.618" fill="#ea8a6c"/>
            <path id="Trazado_156868" data-name="Trazado 156868" d="M159.037,134.338c-5.335,11.047-15.36,17.247-22.393,13.848a9.213,9.213,0,0,1-1.915-1.24c-5.323-4.463-5.967-14.96-1.159-24.918,5.335-11.047,15.36-17.247,22.393-13.848s8.409,15.111,3.074,26.158" fill="#f49f7d"/>
            <path id="Trazado_156869" data-name="Trazado 156869" d="M139.229,125.5c-.974,3.1,4.673,3.672,4.988,6.191.481,3.842-3.577,9.022-.639,9.541,4.864.86,10.8-4.789,13.263-12.618s.514-14.872-4.349-15.732-10.8,4.789-13.263,12.618" fill="#ea8a6c"/>
            <path id="Trazado_156870" data-name="Trazado 156870" d="M127.694,36.588l-43.105.037-43.1-.037c-6.114-.005-18.6,4.861-18.61,10.764l5.743,90.884C28.59,169.65,51.84,196.353,84.164,196.99v.026c.143,0,.283-.011.425-.013s.282.013.424.013v-.026c32.325-.637,55.575-27.34,55.548-58.754L146.3,47.352c0-5.9-12.495-10.769-18.609-10.764" fill="#ffb294"/>
            <path id="Trazado_156871" data-name="Trazado 156871" d="M121.054,111.315c.149,6.007-2.778,10.951-6.538,11.045s-6.929-4.7-7.078-10.707,2.778-10.951,6.538-11.045,6.929,4.7,7.078,10.707" fill="#242d22"/>
            <path id="Trazado_156872" data-name="Trazado 156872" d="M63.008,111.662c.451,5.991-2.224,11.077-5.974,11.359s-7.156-4.345-7.608-10.336,2.224-11.077,5.975-11.36,7.156,4.346,7.607,10.337" fill="#242d22"/>
            <path id="Trazado_156873" data-name="Trazado 156873" d="M66.573,93.953a64.815,64.815,0,0,0-26.052,1.83l-.94-8.2A52.3,52.3,0,0,1,66.517,85.8Z" fill="#744628"/>
            <path id="Trazado_156874" data-name="Trazado 156874" d="M100.224,93.953a64.815,64.815,0,0,1,26.052,1.83l.94-8.2A52.3,52.3,0,0,0,100.28,85.8Z" fill="#744628"/>
            <path id="Trazado_156875" data-name="Trazado 156875" d="M93.69,131.518s-2.821,8.774-10.462,8.774c-7.534,0-10.685-8.368-10.685-8.368s5.724,2.456,10.319,2.381,10.828-2.787,10.828-2.787" fill="#d38462"/>
            <path id="Trazado_156876" data-name="Trazado 156876" d="M22.118,128.026,0,63.66,26.375,27.29,27.965,127a3.006,3.006,0,0,1-5.847,1.03" fill="#744628"/>
            <path id="Trazado_156877" data-name="Trazado 156877" d="M144.964,133.97,167.082,69.6l-26.375-36.37-1.59,99.706a3.006,3.006,0,0,0,5.847,1.03" fill="#744628"/>
            <path id="Trazado_156878" data-name="Trazado 156878" d="M161.479,20.325c-.7-.616-1.4-1.233-2.1-1.836-4,1.678-15.593,2.842-46.376-11.905C93.957-2.54,39.242-8.894,14.6,35.234,8.254,46.592,7.047,62.929,7.047,62.929l.02,0c.29.072,9.293,2.308,23.614,4.275,23.247,3.194,60.487,5.672,97.182-2.981,5.237-1.235,10.464-2.694,15.637-4.413a29.127,29.127,0,0,0,5.57-4.4c7.06-7.037,12.967-19.147,12.409-35.09m-5.754,2.525C124.894,64.782,17.439,44.477,17.439,44.477s.763-10.329,4.774-17.511C37.795-.934,72.389,3.084,84.43,8.852c26.568,12.728,71.3,14,71.3,14" fill="#935827"/>
            <path id="Trazado_156879" data-name="Trazado 156879" d="M17.439,44.477s.763-10.329,4.774-17.511C37.794-.934,72.389,3.083,84.43,8.852c26.568,12.728,71.3,14,71.3,14C124.893,64.782,17.439,44.477,17.439,44.477" fill="#a05f2e"/>
            <g id="Grupo_70205" data-name="Grupo 70205" opacity="0.48" style="mix-blend-mode: multiply;isolation: isolate">
              <g id="Grupo_70204" data-name="Grupo 70204">
                <g id="Grupo_70203" data-name="Grupo 70203" clip-path="url(#clip-path-3)">
                  <path id="Trazado_156880" data-name="Trazado 156880" d="M79.021,160.524c1.279,2,3.934,2.708,6.19,2.651a9.958,9.958,0,0,0,6.2-2.385,1.326,1.326,0,0,0,0-1.859,1.343,1.343,0,0,0-1.859,0,7.19,7.19,0,0,1-4.187,1.609c-1.31.058-3.323-.163-4.077-1.343a1.342,1.342,0,0,0-1.8-.471,1.328,1.328,0,0,0-.472,1.8" fill="#242d22"/>
                </g>
              </g>
            </g>
            <path id="Trazado_156881" data-name="Trazado 156881" d="M63.733,155.019a37.464,37.464,0,0,0,7.174-.576c2.979-.416,5.951-.871,8.947-1.146a60.736,60.736,0,0,1,24.507,2.491c1.974.641,2.82-2.465.856-3.1a62.9,62.9,0,0,0-25.011-2.638c-3.216.282-6.408.761-9.6,1.215a35.52,35.52,0,0,1-6.871.539c-2.069-.112-2.063,3.1,0,3.217" fill="#242d22"/>
          </g>
        </g>
      </g>
    </g>
    <path id="Rectángulo_10174" data-name="Rectángulo 10174" d="M0,0H486a0,0,0,0,1,0,0V24a22,22,0,0,1-22,22H21A21,21,0,0,1,0,25V0A0,0,0,0,1,0,0Z" transform="translate(2709 -6698)" fill="#d44f4a"/>
    <text id="_B_-_M_-_P_" data-name="( B - M - P )" transform="translate(2896 -6666)" fill="#fff" font-size="25" font-family="Roboto-Bold, Roboto" font-weight="700"><tspan x="0" y="0">( B - M - P )</tspan></text>
  </g>
</svg>
