<svg xmlns="http://www.w3.org/2000/svg" xmlns:xlink="http://www.w3.org/1999/xlink" width="499.993" height="399.035" viewBox="0 0 499.993 399.035">
  <defs>
    <clipPath id="clip-path">
      <rect id="Rectángulo_8877" data-name="Rectángulo 8877" width="495.775" height="399.035" transform="translate(777.825 84.315)" fill="none"/>
    </clipPath>
  </defs>
  <g id="Grupo_70277" data-name="Grupo 70277" transform="translate(-906.096 -137.062)">
    <g id="Grupo_53759" data-name="Grupo 53759" transform="translate(42.938 -0.253)">
      <path id="Trazado_138014" data-name="Trazado 138014" d="M821.426,152.556l-.165-.435-.032-.058.235.7Z" transform="translate(85.333 53)" fill="#fff"/>
      <path id="Trazado_138015" data-name="Trazado 138015" d="M812.592,134.524l-.127-.23.1.319Z" transform="translate(85.333 53)" fill="#fff"/>
      <path id="Trazado_138017" data-name="Trazado 138017" d="M1222.782,207.6c-61.8-36.917-108.186,5.1-193.937-22.117-77.947-24.743-105.7-71.281-155.821-58.2-28.107,7.334-42.739,34.355-45.242,38.977-34.5,63.7,6.229,174.638,76.834,232.478,90.413,74.067,247.679,83.57,322.934,18.5,7.731-6.684,43.729-37.809,47.865-86.552,4.039-47.6-14.094-100.065-52.633-123.086" transform="translate(85.333 53)" fill="#ffbe20"/>
      <g id="Grupo_66593" data-name="Grupo 66593" transform="translate(85.333 53)" style="mix-blend-mode: overlay;isolation: isolate">
        <g id="Grupo_66592" data-name="Grupo 66592">
          <g id="Grupo_66591" data-name="Grupo 66591" clip-path="url(#clip-path)">
            <path id="Trazado_138022" data-name="Trazado 138022" d="M1273.434,146.753c-1-18.874-7.963-33.81-20.71-44.4-17.253-14.325-41.566-18.044-62.152-18.044A193.306,193.306,0,0,0,1165.623,86c-34.373,4.528-65.324,18.769-95.255,32.542-14.43,6.64-29.35,13.506-44.645,19.312-34.369,13.045-71.714,21.668-111,25.623-4.674.47-9.756.9-15.118,1.352-38.519,3.253-91.272,7.706-112.489,37.414-9.609,13.454-11.78,30.97-6.454,52.055,9.524,37.711,37.259,73.84,62.506,104.741,28.472,34.851,60.763,63.44,95.973,84.978,34.837,21.308,70.76,34.009,106.771,37.748,46.348,4.818,107.274.975,134.276-44.672,11.18-18.9,15.942-40.325,20.548-61.047l.09-.4-2.35-.522,2.35.52c7.352-33.08,20.122-64.855,30.426-88.842,2.731-6.362,5.629-12.857,8.576-19.462,16.75-37.557,35.736-80.126,33.6-120.58m-37.8,118.711c-2.956,6.625-5.862,13.14-8.6,19.52-10.381,24.171-23.252,56.2-30.687,89.658h0l-.091.408c-4.527,20.37-9.21,41.434-20.018,59.705-25.762,43.553-84.833,47.119-129.843,42.443-35.325-3.669-70.6-16.15-104.847-37.1-34.769-21.266-66.669-49.515-94.812-83.964-24.936-30.521-52.318-66.165-61.612-102.96-4.98-19.723-3.049-35.962,5.74-48.268C810.842,176.929,862.37,172.578,900,169.4c5.388-.455,10.494-.886,15.191-1.359,39.685-4,77.423-12.712,112.169-25.9,15.441-5.86,30.435-12.759,44.934-19.431,30.985-14.256,60.25-27.723,93.934-32.158,20.981-2.765,59.735-4.446,83.562,15.339,11.722,9.733,18.133,23.561,19.058,41.1,2.076,39.356-16.671,81.387-33.211,118.472" fill="#fff"/>
          </g>
        </g>
      </g>
      <path id="Trazado_138024" data-name="Trazado 138024" d="M1232.963,155.449c-4.879-1.029-9.966.813-14.577,2.261-2.991.938-8.208,4.328-3.027,6.962a11.776,11.776,0,0,0,4.93.812,40.661,40.661,0,0,1,9.032,1.4c2.762.753,5.9,1.751,8.31.2,2.237-1.442,2.794-4.754,1.622-7.159a8.919,8.919,0,0,0-6.29-4.468m12.389-29.263c-4.879-4.015-13.869-3.525-19.466-1.618-9.4,3.2-17.485,10.95-23.15,18.969-2.505,3.545-5.141,9.741-.035,12.363,4.68,2.4,9.409-3.1,13.006-5.319,7.566-4.663,16.175-4.444,24.191-7.577l.043-.017c7.448-2.923,13.023-10.537,5.411-16.8m-38.48-5.049c.57-5.847-6.879-13.071-12.15-7.708-2.664,2.711-1.157,7.64-.721,10.9.36,2.7-4.928,19.348,3.316,14.653,5.756-3.279,8.94-11.538,9.555-17.849" transform="translate(85.333 53)" fill="#fff"/>
      <path id="Trazado_138025" data-name="Trazado 138025" d="M808.58,138.861c-4.278-.643-9.032-1.572-13.207.033a8.041,8.041,0,0,0-4.95,4.873c-.707,2.312.241,5.191,2.418,6.163,2.346,1.049,4.984-.283,7.324-1.344a36.277,36.277,0,0,1,7.8-2.517,10.511,10.511,0,0,0,4.251-1.418c4.221-3.08-.86-5.372-3.634-5.79M797.393,110.33c-5.214-.916-13.234-.088-17,4.183-5.874,6.662.1,12.675,7.094,14.237l.041.009c7.522,1.669,15.107.263,22.441,3.362,3.487,1.474,8.426,5.722,12.236,2.918,4.157-3.059.974-8.219-1.729-11.031-6.113-6.362-14.329-12.14-23.084-13.678m28.174-4.695c-.063-2.975.594-7.587-2.136-9.633-5.4-4.046-11,3.451-9.689,8.59,1.41,5.548,5.361,12.473,10.9,14.59,7.938,3.033.973-11.088.921-13.547" transform="translate(85.333 53)" fill="#fff"/>
      <path id="Trazado_138026" data-name="Trazado 138026" d="M805.844,333.667a4.025,4.025,0,1,0,4.025,4.025,4.025,4.025,0,0,0-4.025-4.025" transform="translate(85.333 53)" fill="#fff"/>
      <path id="Trazado_138029" data-name="Trazado 138029" d="M1276.243,232.765a5.481,5.481,0,1,0-.058,7.755,5.491,5.491,0,0,0,.058-7.755m-1.547,6.244a3.361,3.361,0,1,1,.035-4.755,3.367,3.367,0,0,1-.035,4.755" transform="translate(85.333 53)" fill="#fff"/>
    </g>
  </g>
</svg>
