<svg xmlns="http://www.w3.org/2000/svg" xmlns:xlink="http://www.w3.org/1999/xlink" width="1030" height="547" viewBox="0 0 1030 547">
  <defs>
    <linearGradient id="linear-gradient" x1="0.5" x2="0.5" y2="1" gradientUnits="objectBoundingBox">
      <stop offset="0" stop-color="#f8e2e2"/>
      <stop offset="0.532" stop-color="#fff9f9"/>
      <stop offset="1" stop-color="#f8e2e2"/>
    </linearGradient>
    <clipPath id="clip-path">
      <rect id="Rectángulo_9966" data-name="Rectángulo 9966" width="820" height="521.584" fill="none"/>
    </clipPath>
    <linearGradient id="linear-gradient-2" x1="0.5" x2="0.5" y2="1" gradientUnits="objectBoundingBox">
      <stop offset="0" stop-color="#f39f9f"/>
      <stop offset="1" stop-color="#f8e2e2"/>
    </linearGradient>
  </defs>
  <g id="Grupo_70279" data-name="Grupo 70279" transform="translate(-285 -769)">
    <rect id="Rectángulo_8926" data-name="Rectángulo 8926" width="1030" height="547" transform="translate(285 769)" fill="url(#linear-gradient)"/>
    <g id="Grupo_68301" data-name="Grupo 68301" transform="translate(390 782)">
      <g id="Grupo_68300" data-name="Grupo 68300" clip-path="url(#clip-path)">
        <g id="Grupo_68297" data-name="Grupo 68297">
          <g id="Grupo_68296" data-name="Grupo 68296" clip-path="url(#clip-path)">
            <rect id="Rectángulo_9975" data-name="Rectángulo 9975" width="177.057" height="85.209" transform="translate(0.006 386.321)" opacity="0.5" fill="url(#linear-gradient-2)"/>
            <rect id="Rectángulo_9978" data-name="Rectángulo 9978" width="178.163" height="85.209" transform="translate(164.89 270.127)" opacity="0.51" fill="url(#linear-gradient-2)"/>
            <rect id="Rectángulo_9979" data-name="Rectángulo 9979" width="178.163" height="85.209" transform="translate(488.018 270.127)" opacity="0.5" fill="url(#linear-gradient-2)"/>
            <rect id="Rectángulo_9976" data-name="Rectángulo 9976" width="175.95" height="85.209" transform="translate(329.774 386.321)" opacity="0.5" fill="url(#linear-gradient-2)"/>
            <rect id="Rectángulo_9977" data-name="Rectángulo 9977" width="174.844" height="85.209" transform="translate(640.73 386.321)" opacity="0.5" fill="url(#linear-gradient-2)"/>
          </g>
        </g>
        <rect id="Rectángulo_9950" data-name="Rectángulo 9950" width="176.709" height="176.718" transform="translate(0 230.53)" fill="#fff"/>
        <path id="Trazado_138280" data-name="Trazado 138280" d="M0,0H132.525V132.538H0Z" transform="translate(22.094 252.62)" fill="#d44f4a"/>
        <rect id="Rectángulo_9952" data-name="Rectángulo 9952" width="176.7" height="176.709" transform="translate(167.883 116.404)" fill="#fff"/>
        <rect id="Rectángulo_9953" data-name="Rectángulo 9953" width="132.538" height="132.538" transform="translate(189.963 138.494)" fill="#fa9300"/>
        <rect id="Rectángulo_9954" data-name="Rectángulo 9954" width="176.713" height="176.718" transform="translate(329.124 230.53)" fill="#fff"/>
        <path id="Trazado_138285" data-name="Trazado 138285" d="M0,0H132.529V132.538H0Z" transform="translate(351.218 252.62)" fill="#afafaf"/>
        <rect id="Rectángulo_9956" data-name="Rectángulo 9956" width="176.709" height="176.709" transform="translate(483.747 116.404)" fill="#fff"/>
        <path id="Trazado_138286" data-name="Trazado 138286" d="M0,0H132.538V132.538H0Z" transform="translate(505.837 138.494)" fill="#981e1a"/>
        <rect id="Rectángulo_9958" data-name="Rectángulo 9958" width="176.7" height="176.718" transform="translate(640.099 230.53)" fill="#fff"/>
        <rect id="Rectángulo_9959" data-name="Rectángulo 9959" width="132.529" height="132.538" transform="translate(662.182 252.62)" fill="#edc596"/>
        <g id="Grupo_68299" data-name="Grupo 68299">
          <g id="Grupo_68298" data-name="Grupo 68298" clip-path="url(#clip-path)">
            <path id="Trazado_138181" data-name="Trazado 138181" d="M47.177,220.583a13.042,13.042,0,0,1-7.542-2.121,11.778,11.778,0,0,1-4.54-5.648,21.218,21.218,0,0,1-1.5-8.34V181.242c0-4.992,1.115-8.926,3.407-11.758,2.252-2.911,5.659-4.327,10.173-4.327,4.494,0,7.881,1.478,10.155,4.327s3.409,6.783,3.409,11.758v23.232c0,4.881-1.168,8.81-3.472,11.712q-3.485,4.4-10.092,4.4m0-6.392q5.8,0,5.808-9.716V181.242c0-1.08-.052-2.073-.114-2.911a12.875,12.875,0,0,0-.509-2.6,7.558,7.558,0,0,0-1.008-2.23,4.727,4.727,0,0,0-1.679-1.424,5.5,5.5,0,0,0-2.5-.523,5.728,5.728,0,0,0-2.539.523A4.609,4.609,0,0,0,43,173.5a8.242,8.242,0,0,0-1.045,2.23,17.424,17.424,0,0,0-.474,2.6c-.081.838-.144,1.832-.144,2.911v23.232a21.322,21.322,0,0,0,.278,3.553,12.706,12.706,0,0,0,.886,3.042,5.241,5.241,0,0,0,1.78,2.3,5,5,0,0,0,2.9.822" transform="translate(28.311 139.174)" fill="#fff"/>
            <path id="Trazado_138182" data-name="Trazado 138182" d="M56.754,219.741V177.114H50.961v-5.819c3.921-1.4,6.486-3.35,7.737-5.836h5.828v54.282Z" transform="translate(42.944 139.428)" fill="#fff"/>
            <path id="Trazado_138183" data-name="Trazado 138183" d="M136.522,161.456a13.654,13.654,0,0,1-7.642-2.11,12.771,12.771,0,0,1-4.636-5.736,22.094,22.094,0,0,1-1.491-8.4V121.652c0-5.012,1.176-9,3.451-11.872,2.27-2.895,5.727-4.334,10.317-4.334,4.537,0,7.981,1.439,10.26,4.334,2.305,2.919,3.457,6.86,3.457,11.872v23.553c0,4.918-1.159,8.858-3.512,11.795-2.32,2.972-5.76,4.456-10.2,4.456m0-6.451c3.875,0,5.81-3.278,5.81-9.8V121.652c0-1.047,0-2.091-.048-2.937a12.7,12.7,0,0,0-.523-2.624,6.466,6.466,0,0,0-1-2.215,4.485,4.485,0,0,0-1.727-1.439,5.1,5.1,0,0,0-2.51-.556,5.186,5.186,0,0,0-2.558.556,4.236,4.236,0,0,0-1.7,1.439,6.274,6.274,0,0,0-1.015,2.215,11.649,11.649,0,0,0-.5,2.624,26.69,26.69,0,0,0-.122,2.937v23.553a29.042,29.042,0,0,0,.252,3.558,13.078,13.078,0,0,0,.89,3.1,5.828,5.828,0,0,0,1.843,2.318,4.862,4.862,0,0,0,2.908.82" transform="translate(103.442 88.857)" fill="#fff"/>
            <path id="Trazado_138184" data-name="Trazado 138184" d="M140.456,160.889v-7.855l13.739-19.6c.125-.21.5-.715,1.072-1.491.531-.768.914-1.273,1.093-1.579.162-.271.51-.757.96-1.446s.757-1.229.949-1.622c.166-.392.405-.907.685-1.622a11.83,11.83,0,0,0,.639-1.857c.1-.531.241-1.159.324-1.907a14.8,14.8,0,0,0,.138-2.189,9.906,9.906,0,0,0-1.494-5.561,4.932,4.932,0,0,0-4.367-2.285,5.192,5.192,0,0,0-2.882.82,5.692,5.692,0,0,0-1.826,2.276,13.062,13.062,0,0,0-.91,3.138,21.629,21.629,0,0,0-.284,3.54v2h-7.824v-2c0-5.1,1.063-9.094,3.291-11.952s5.67-4.255,10.435-4.255c4.48,0,7.837,1.229,10.207,3.757,2.336,2.477,3.51,6,3.51,10.522a24.1,24.1,0,0,1-.44,4.708,18.021,18.021,0,0,1-1.391,4.236,29.878,29.878,0,0,1-1.8,3.356c-.534.872-1.3,2-2.252,3.33l-13.739,17.679h19.619v7.855Z" transform="translate(118.359 88.858)" fill="#fff"/>
            <path id="Trazado_138185" data-name="Trazado 138185" d="M308.893,163.37a13.813,13.813,0,0,1-7.811-2.11,12.76,12.76,0,0,1-4.741-5.884,21.667,21.667,0,0,1-1.553-8.64V122.564q0-7.795,3.54-12.213c2.337-2.972,5.867-4.437,10.566-4.437,4.655,0,8.176,1.465,10.531,4.472,2.362,2.956,3.556,7.043,3.556,12.178v24.172c0,5.049-1.194,9.11-3.61,12.117-2.4,3.035-5.909,4.516-10.477,4.516m0-6.582c4.019,0,6.042-3.374,6.042-10.052V122.564a27.472,27.472,0,0,0-.14-2.991,12.432,12.432,0,0,0-.514-2.727,7.373,7.373,0,0,0-1.03-2.285,4.674,4.674,0,0,0-1.725-1.465,6.669,6.669,0,0,0-5.257,0,4.277,4.277,0,0,0-1.717,1.465,7.027,7.027,0,0,0-1.08,2.285,12.272,12.272,0,0,0-.463,2.727,23.091,23.091,0,0,0-.166,2.991v24.172a21.461,21.461,0,0,0,.3,3.654,11.769,11.769,0,0,0,.872,3.155,5.634,5.634,0,0,0,1.883,2.355,4.967,4.967,0,0,0,3,.888" transform="translate(248.41 89.251)" fill="#fff"/>
            <path id="Trazado_138186" data-name="Trazado 138186" d="M329.254,162.607V148.12h-16.1v-8.937L327.222,106.2h10.043v34.3h6.241v7.619h-6.241v14.487ZM321.182,140.5h8.073V116.265Z" transform="translate(263.886 89.49)" fill="#fff"/>
            <path id="Trazado_138187" data-name="Trazado 138187" d="M392.921,209.137a11.9,11.9,0,0,1-6.739-1.856,10.961,10.961,0,0,1-4.08-5.047,19.283,19.283,0,0,1-1.342-7.463V173.964c0-4.463,1.01-7.959,3.05-10.531,2.031-2.537,5.038-3.811,9.11-3.811q6.053,0,9.075,3.827c2.04,2.582,3.051,6.077,3.051,10.514v20.808c0,4.367-1.037,7.837-3.112,10.452-2.049,2.617-5.075,3.914-9.014,3.914m0-5.683q5.2,0,5.195-8.683V173.964c0-.967-.042-1.848-.112-2.607a11.9,11.9,0,0,0-.437-2.327,6.577,6.577,0,0,0-.888-1.961,4.36,4.36,0,0,0-1.517-1.283,4.931,4.931,0,0,0-2.241-.488,4.8,4.8,0,0,0-2.25.488,3.844,3.844,0,0,0-1.507,1.283,6.582,6.582,0,0,0-.907,1.961,12.771,12.771,0,0,0-.437,2.327,23.867,23.867,0,0,0-.1,2.607v20.808a20.932,20.932,0,0,0,.208,3.155,12.309,12.309,0,0,0,.8,2.738,4.481,4.481,0,0,0,1.62,2.031,4.234,4.234,0,0,0,2.572.759" transform="translate(320.858 134.51)" fill="#fff"/>
            <path id="Trazado_138188" data-name="Trazado 138188" d="M408.706,208.925c-4.316,0-7.4-1.22-9.232-3.636-1.839-2.432-2.771-6-2.771-10.73h6.956v1.089c0,.932.018,1.727.087,2.4a14.327,14.327,0,0,0,.367,2.091,4.623,4.623,0,0,0,.8,1.717,3.513,3.513,0,0,0,1.353,1.107,4.658,4.658,0,0,0,2.073.437,6.146,6.146,0,0,0,1.736-.217,5.657,5.657,0,0,0,1.306-.586,2.9,2.9,0,0,0,1-.993c.278-.428.523-.82.715-1.185a5.86,5.86,0,0,0,.47-1.526c.131-.689.227-1.229.278-1.657a18,18,0,0,0,.158-1.883c.042-.792.07-1.4.07-1.848v-2.895c0-.767-.028-1.437-.044-1.977a17.039,17.039,0,0,0-.157-1.8,9.6,9.6,0,0,0-.323-1.612,6.513,6.513,0,0,0-.61-1.3,3.248,3.248,0,0,0-.925-1.037,3.881,3.881,0,0,0-1.341-.6,6.209,6.209,0,0,0-1.8-.236,4.744,4.744,0,0,0-3.182,1.177,7.118,7.118,0,0,0-2,2.832h-5.911V159.873h21.48v6.947h-15.2l-.4,11.742a13.548,13.548,0,0,1,6.93-1.716,11.176,11.176,0,0,1,4.14.706,8.645,8.645,0,0,1,2.981,1.97,9.529,9.529,0,0,1,1.9,3.1,16.091,16.091,0,0,1,1.082,3.888,33.476,33.476,0,0,1,.3,4.577,43.939,43.939,0,0,1-.322,5.631,23,23,0,0,1-1.159,4.855,12.65,12.65,0,0,1-2.206,3.914,9.528,9.528,0,0,1-3.54,2.493,12.467,12.467,0,0,1-5.056.942" transform="translate(334.292 134.721)" fill="#fff"/>
            <path id="Trazado_138189" data-name="Trazado 138189" d="M47.96,305.553c-1.1,0-2-.431-2-.964v-92.17c0-.534.9-.971,2-.971s2,.437,2,.971v92.17c0,.533-.9.964-2,.964" transform="translate(38.729 184.12)" fill="#fff"/>
            <path id="Trazado_138190" data-name="Trazado 138190" d="M70.018,281.718a15.763,15.763,0,1,1-15.766-15.762,15.751,15.751,0,0,1,15.766,15.762" transform="translate(32.436 205.96)" fill="#fff"/>
            <path id="Trazado_138191" data-name="Trazado 138191" d="M229.625,305.553c-1.1,0-2-.431-2-.964v-92.17c0-.534.907-.971,2-.971s2,.437,2,.971v92.17c0,.533-.9.964-2,.964" transform="translate(191.81 184.12)" fill="#fff"/>
            <path id="Trazado_138192" data-name="Trazado 138192" d="M251.676,281.718a15.76,15.76,0,1,1-15.76-15.762,15.747,15.747,0,0,1,15.76,15.762" transform="translate(185.519 205.96)" fill="#fff"/>
            <path id="Trazado_138193" data-name="Trazado 138193" d="M142.716,7.461c1.1,0,2,.4,2,.891V92.893c0,.483-.9.885-2,.885s-2-.4-2-.885V8.352c0-.49.9-.891,2-.891" transform="translate(118.574 38.178)" fill="#fff"/>
            <path id="Trazado_138194" data-name="Trazado 138194" d="M133.245,15.753a15.76,15.76,0,1,1,15.76,15.76,15.749,15.749,0,0,1-15.76-15.76" transform="translate(112.282 31.891)" fill="#fff"/>
            <path id="Trazado_138195" data-name="Trazado 138195" d="M317.846,7.461c1.1,0,2,.4,2,.891V92.893c0,.483-.907.885-2,.885-1.117,0-2.007-.4-2.007-.885V8.352c0-.49.89-.891,2.007-.891" transform="translate(254.969 38.178)" fill="#fff"/>
            <path id="Trazado_138196" data-name="Trazado 138196" d="M308.374,15.753a15.761,15.761,0,1,1,15.762,15.76,15.744,15.744,0,0,1-15.762-15.76" transform="translate(248.679 31.891)" fill="#fff"/>
            <path id="Trazado_138197" data-name="Trazado 138197" d="M400.179,305.553c-1.107,0-2-.431-2-.964v-92.17c0-.534.9-.971,2-.971s2.007.437,2.007.971v92.17c0,.533-.908.964-2.007.964" transform="translate(365.51 184.12)" fill="#fff"/>
            <path id="Trazado_138282" data-name="Trazado 138282" d="M2,94.1c-1.107,0-2-.431-2-.964V.971C0,.437.9,0,2,0S4.012.437,4.012.971v92.17c0,.533-.908.964-2.007.964" transform="translate(708.298 242.209) rotate(180)" fill="#fff"/>
            <path id="Trazado_138198" data-name="Trazado 138198" d="M422.232,281.718a15.761,15.761,0,1,1-15.762-15.762,15.753,15.753,0,0,1,15.762,15.762" transform="translate(359.219 205.96)" fill="#fff"/>
            <path id="Trazado_138281" data-name="Trazado 138281" d="M31.523,15.762A15.761,15.761,0,1,1,15.76,0,15.753,15.753,0,0,1,31.523,15.762" transform="translate(722.054 165.862) rotate(180)" fill="#fff"/>
            <path id="Trazado_138201" data-name="Trazado 138201" d="M367.945,305.553c-1.107,0-2-.431-2-.964v-92.17c0-.534.9-.971,2-.971s2.007.437,2.007.971v92.17c0,.533-.908.964-2.007.964" transform="translate(338.347 184.12)" fill="#fff"/>
            <path id="Trazado_138283" data-name="Trazado 138283" d="M2,94.1c-1.107,0-2-.431-2-.964V.971C0,.437.9,0,2,0S4.012.437,4.012.971v92.17c0,.533-.908.964-2.007.964" transform="translate(767.696 242.209) rotate(180)" fill="#fff"/>
            <path id="Trazado_138202" data-name="Trazado 138202" d="M390,281.718a15.761,15.761,0,1,1-15.762-15.762A15.753,15.753,0,0,1,390,281.718" transform="translate(332.057 205.96)" fill="#fff"/>
            <path id="Trazado_138284" data-name="Trazado 138284" d="M31.523,15.762A15.761,15.761,0,1,1,15.76,0,15.753,15.753,0,0,1,31.523,15.762" transform="translate(781.451 165.862) rotate(180)" fill="#fff"/>
            <path id="Trazado_138203" data-name="Trazado 138203" d="M8.2,124.041H21.782l-.735,5.294H1.734V95.463H8.2Z" transform="translate(1.461 80.445)" fill="#636363"/>
            <path id="Trazado_138204" data-name="Trazado 138204" d="M36.812,122.511l-1.321,4.166c-2.895-.245-4.756-1.225-5.736-3.774a8.91,8.91,0,0,1-7.795,3.871c-5.147,0-8.333-3.284-8.333-7.99,0-5.637,4.216-8.675,11.765-8.675h3.284v-1.472c0-3.381-1.52-4.509-4.854-4.509a23.689,23.689,0,0,0-6.912,1.373l-1.419-4.264a26.7,26.7,0,0,1,9.359-1.863c6.962,0,10,3.186,10,8.92v10.883c0,2.108.685,2.843,1.959,3.333m-8.135-3.481v-5.244h-2.6c-4.069,0-6.079,1.47-6.079,4.509,0,2.5,1.275,3.921,3.676,3.921a5.6,5.6,0,0,0,5-3.186" transform="translate(11.483 83.74)" fill="#636363"/>
            <path id="Trazado_138205" data-name="Trazado 138205" d="M43.291,125.8c-1.961,6.079-5.784,10-13.481,10.588l-.636-4.559c5.147-.785,6.812-2.451,8.285-6.127H35.3l-8.235-25.93h6.667l5.639,21.764,5.88-21.764h6.47Z" transform="translate(22.808 84.076)" fill="#636363"/>
            <path id="Trazado_138206" data-name="Trazado 138206" d="M65.872,113.05c0,8.187-4.559,13.726-12.206,13.726S41.46,121.58,41.46,113.05c0-8.137,4.561-13.676,12.254-13.676,7.647,0,12.158,5.2,12.158,13.676m-17.793,0c0,6.225,1.911,8.97,5.587,8.97s5.589-2.793,5.589-8.97-1.913-8.92-5.541-8.92c-3.676,0-5.635,2.793-5.635,8.92" transform="translate(34.937 83.74)" fill="#636363"/>
            <path id="Trazado_138207" data-name="Trazado 138207" d="M78.624,125.7H73.181l-.343-3.628a8.728,8.728,0,0,1-7.94,4.363c-4.706,0-7.207-3.039-7.207-8.04V99.773h6.274v17.843c0,3.039.98,4.069,3.136,4.069s3.923-1.423,5.248-3.676V99.773h6.274Z" transform="translate(48.615 84.076)" fill="#636363"/>
            <path id="Trazado_138208" data-name="Trazado 138208" d="M89.566,127.436a11.347,11.347,0,0,1-6.521,1.961c-5.1-.048-7.793-2.941-7.793-8.48V107.241h-4.07v-4.509h4.07V97l6.274-.735v6.47h6.029l-.636,4.509H81.527v13.531c0,2.548.833,3.577,2.746,3.577a6.2,6.2,0,0,0,3.086-.931Z" transform="translate(59.983 81.118)" fill="#636363"/>
            <path id="Trazado_138209" data-name="Trazado 138209" d="M42.3,158.96a6.428,6.428,0,0,1-.533,2.7,4.019,4.019,0,0,1-1.522,1.784,4.466,4.466,0,0,1-4.55,0,4.1,4.1,0,0,1-1.54-1.773,6.232,6.232,0,0,1-.549-2.657v-.59a6.39,6.39,0,0,1,.542-2.707,4.1,4.1,0,0,1,1.533-1.8,4.481,4.481,0,0,1,4.542-.006,4.016,4.016,0,0,1,1.529,1.769,6.357,6.357,0,0,1,.547,2.688Zm-1.821-.547a4.585,4.585,0,0,0-.658-2.67,2.325,2.325,0,0,0-3.715,0,4.486,4.486,0,0,0-.68,2.617v.6a4.552,4.552,0,0,0,.673,2.67,2.167,2.167,0,0,0,1.868.943,2.14,2.14,0,0,0,1.859-.921,4.645,4.645,0,0,0,.652-2.692Z" transform="translate(28.32 129.185)" fill="#fff"/>
            <path id="Trazado_138210" data-name="Trazado 138210" d="M46.054,160.31a4.676,4.676,0,0,1-.809,2.886,2.636,2.636,0,0,1-2.228,1.072,2.538,2.538,0,0,1-2.13-.986l-.087.842H39.216V153.068h1.751v4.017A2.527,2.527,0,0,1,43,156.193a2.666,2.666,0,0,1,2.239,1.058,4.759,4.759,0,0,1,.813,2.957Zm-1.749-.151a3.313,3.313,0,0,0-.446-1.9,1.486,1.486,0,0,0-1.3-.634,1.624,1.624,0,0,0-1.6.993v3.21a1.638,1.638,0,0,0,1.612,1.015,1.476,1.476,0,0,0,1.266-.612,3.206,3.206,0,0,0,.461-1.85Z" transform="translate(33.046 128.987)" fill="#fff"/>
            <path id="Trazado_138211" data-name="Trazado 138211" d="M46.2,156.2v8.478a2.561,2.561,0,0,1-.593,1.824,2.274,2.274,0,0,1-1.738.63,3.506,3.506,0,0,1-.929-.122v-1.382a2.732,2.732,0,0,0,.619.064q.871,0,.892-.951V156.2Zm-1.9-2.023a.922.922,0,0,1,.256-.669.964.964,0,0,1,.73-.267.983.983,0,0,1,.735.267.923.923,0,0,1,.258.669.9.9,0,0,1-.258.658.981.981,0,0,1-.735.264.962.962,0,0,1-.73-.264.9.9,0,0,1-.256-.658" transform="translate(36.187 129.128)" fill="#fff"/>
            <path id="Trazado_138212" data-name="Trazado 138212" d="M49.292,162.84a3.621,3.621,0,0,1-2.7-1.047A3.8,3.8,0,0,1,45.564,159v-.216a4.668,4.668,0,0,1,.45-2.084,3.432,3.432,0,0,1,1.264-1.428,3.331,3.331,0,0,1,1.813-.512,3.06,3.06,0,0,1,2.458,1.015,4.3,4.3,0,0,1,.868,2.873v.7H47.327a2.34,2.34,0,0,0,.643,1.528,1.938,1.938,0,0,0,1.423.56,2.363,2.363,0,0,0,1.957-.971l.943.9a3.132,3.132,0,0,1-1.249,1.083,3.912,3.912,0,0,1-1.752.385m-.208-6.672a1.473,1.473,0,0,0-1.163.5,2.6,2.6,0,0,0-.564,1.4h3.332v-.129a2.112,2.112,0,0,0-.468-1.329,1.464,1.464,0,0,0-1.137-.45" transform="translate(38.396 130.416)" fill="#fff"/>
            <path id="Trazado_138213" data-name="Trazado 138213" d="M52.594,153.815v1.892h1.375V157H52.594v4.349a.952.952,0,0,0,.177.643.809.809,0,0,0,.628.2,2.718,2.718,0,0,0,.614-.072v1.353a4.3,4.3,0,0,1-1.152.166q-2.018,0-2.016-2.224V157H49.563v-1.3h1.283v-1.892Z" transform="translate(41.766 129.616)" fill="#fff"/>
            <path id="Trazado_138214" data-name="Trazado 138214" d="M52.681,154.171a.922.922,0,0,1,.256-.669.966.966,0,0,1,.73-.265.982.982,0,0,1,.735.265.916.916,0,0,1,.258.669.9.9,0,0,1-.258.66.988.988,0,0,1-.735.262.972.972,0,0,1-.73-.262.906.906,0,0,1-.256-.66m1.857,9.812H52.79v-7.789h1.749Z" transform="translate(44.393 129.129)" fill="#fff"/>
            <path id="Trazado_138215" data-name="Trazado 138215" d="M57.806,160.413l1.649-5.57h1.806l-2.7,7.787H57.043l-2.722-7.787h1.815Z" transform="translate(45.775 130.482)" fill="#fff"/>
            <path id="Trazado_138216" data-name="Trazado 138216" d="M58.443,158.729a4.593,4.593,0,0,1,.453-2.062,3.306,3.306,0,0,1,1.273-1.411,3.6,3.6,0,0,1,1.887-.492,3.4,3.4,0,0,1,2.558,1.013,3.994,3.994,0,0,1,1.063,2.692l.006.411a4.633,4.633,0,0,1-.442,2.058,3.276,3.276,0,0,1-1.266,1.4,3.611,3.611,0,0,1-1.9.5,3.378,3.378,0,0,1-2.639-1.1,4.2,4.2,0,0,1-.99-2.926Zm1.749.151a3.13,3.13,0,0,0,.5,1.881,1.731,1.731,0,0,0,2.76-.009,3.473,3.473,0,0,0,.492-2.023,3.108,3.108,0,0,0-.507-1.872,1.712,1.712,0,0,0-2.74-.011,3.41,3.41,0,0,0-.5,2.034" transform="translate(49.248 130.416)" fill="#fff"/>
            <path id="Trazado_138217" data-name="Trazado 138217" d="M124.342,96.254V85.773h3.094a4.851,4.851,0,0,1,2.466.619,4.226,4.226,0,0,1,1.668,1.756,5.591,5.591,0,0,1,.59,2.606v.525a5.567,5.567,0,0,1-.593,2.62,4.182,4.182,0,0,1-1.692,1.743,5.1,5.1,0,0,1-2.517.612Zm1.821-9.013V94.8h1.189a2.735,2.735,0,0,0,2.2-.9,3.9,3.9,0,0,0,.781-2.572v-.584a4,4,0,0,0-.743-2.606,2.629,2.629,0,0,0-2.152-.9Z" transform="translate(104.78 72.279)" fill="#fff"/>
            <path id="Trazado_138218" data-name="Trazado 138218" d="M129.478,86.565a.926.926,0,0,1,.256-.671.963.963,0,0,1,.73-.265.982.982,0,0,1,.735.265.927.927,0,0,1,.258.671.9.9,0,0,1-.258.658.989.989,0,0,1-.735.263.97.97,0,0,1-.73-.263.9.9,0,0,1-.256-.658m1.857,9.81h-1.749V88.587h1.749Z" transform="translate(109.108 72.157)" fill="#fff"/>
            <path id="Trazado_138219" data-name="Trazado 138219" d="M136.048,92.971a.793.793,0,0,0-.385-.713,4.144,4.144,0,0,0-1.277-.431,6.579,6.579,0,0,1-1.491-.475,1.988,1.988,0,0,1-1.31-1.835,2.069,2.069,0,0,1,.849-1.684,3.358,3.358,0,0,1,2.16-.676,3.5,3.5,0,0,1,2.257.691,2.191,2.191,0,0,1,.859,1.791h-1.749a1.074,1.074,0,0,0-.374-.838,1.436,1.436,0,0,0-.993-.334,1.558,1.558,0,0,0-.94.265.836.836,0,0,0-.363.713.708.708,0,0,0,.339.627,4.69,4.69,0,0,0,1.367.45,6.5,6.5,0,0,1,1.616.54,2.268,2.268,0,0,1,.87.752,1.919,1.919,0,0,1,.286,1.065,2.03,2.03,0,0,1-.872,1.7,3.71,3.71,0,0,1-2.281.652,4.021,4.021,0,0,1-1.706-.346,2.8,2.8,0,0,1-1.166-.951,2.245,2.245,0,0,1-.418-1.3h1.7a1.232,1.232,0,0,0,.468.955,1.824,1.824,0,0,0,1.144.335,1.773,1.773,0,0,0,1.052-.264.812.812,0,0,0,.359-.687" transform="translate(110.664 73.444)" fill="#fff"/>
            <path id="Trazado_138220" data-name="Trazado 138220" d="M139.214,95.232a3.62,3.62,0,0,1-2.7-1.047,3.8,3.8,0,0,1-1.032-2.79V91.18a4.668,4.668,0,0,1,.45-2.084,3.432,3.432,0,0,1,1.264-1.428,3.331,3.331,0,0,1,1.813-.512,3.06,3.06,0,0,1,2.458,1.015,4.3,4.3,0,0,1,.868,2.873v.7h-5.089a2.34,2.34,0,0,0,.643,1.528,1.937,1.937,0,0,0,1.423.56,2.363,2.363,0,0,0,1.957-.971l.943.9a3.132,3.132,0,0,1-1.249,1.084,3.911,3.911,0,0,1-1.752.385m-.208-6.672a1.473,1.473,0,0,0-1.163.5,2.6,2.6,0,0,0-.564,1.4h3.332v-.129a2.112,2.112,0,0,0-.468-1.329,1.464,1.464,0,0,0-1.137-.45" transform="translate(114.171 73.444)" fill="#fff"/>
            <path id="Trazado_138221" data-name="Trazado 138221" d="M141.574,88.7l.052.9a2.8,2.8,0,0,1,2.266-1.045q2.432,0,2.477,2.786v5.147H144.62V91.439a1.605,1.605,0,0,0-.321-1.1,1.35,1.35,0,0,0-1.048-.356,1.685,1.685,0,0,0-1.575.956v5.543h-1.749V88.7Zm4.247-3.109a1.937,1.937,0,0,1-.457,1.318,1.457,1.457,0,0,1-1.148.525,1.718,1.718,0,0,1-.486-.061,3.019,3.019,0,0,1-.582-.278,2.864,2.864,0,0,0-.533-.258,1.245,1.245,0,0,0-.343-.044.612.612,0,0,0-.464.206.754.754,0,0,0-.19.536l-1.072-.059a1.991,1.991,0,0,1,.457-1.33,1.431,1.431,0,0,1,1.141-.54,2.112,2.112,0,0,1,.99.324,2.092,2.092,0,0,0,.954.322.627.627,0,0,0,.468-.2.757.757,0,0,0,.193-.544Z" transform="translate(117.913 72.049)" fill="#fff"/>
            <path id="Trazado_138222" data-name="Trazado 138222" d="M144.213,91.121a4.593,4.593,0,0,1,.453-2.062,3.306,3.306,0,0,1,1.273-1.411,3.6,3.6,0,0,1,1.887-.492,3.4,3.4,0,0,1,2.558,1.013,3.994,3.994,0,0,1,1.063,2.692l.006.411a4.633,4.633,0,0,1-.442,2.058,3.276,3.276,0,0,1-1.266,1.4,3.611,3.611,0,0,1-1.9.5,3.378,3.378,0,0,1-2.639-1.1,4.2,4.2,0,0,1-.99-2.926Zm1.749.151a3.13,3.13,0,0,0,.5,1.881,1.731,1.731,0,0,0,2.76-.009,3.473,3.473,0,0,0,.492-2.023,3.108,3.108,0,0,0-.507-1.872,1.712,1.712,0,0,0-2.74-.011,3.41,3.41,0,0,0-.5,2.034" transform="translate(121.525 73.444)" fill="#fff"/>
            <path id="Trazado_138223" data-name="Trazado 138223" d="M154.031,92.517l1.583-5.283h1.865l-3.1,8.968a2.513,2.513,0,0,1-2.418,1.964,3.125,3.125,0,0,1-.842-.129v-1.36l.332.022a1.711,1.711,0,0,0,1-.241,1.608,1.608,0,0,0,.529-.809l.251-.669L150.5,87.234h1.885Z" transform="translate(126.82 73.51)" fill="#fff"/>
            <path id="Trazado_138224" data-name="Trazado 138224" d="M123.363,99.273a4.63,4.63,0,0,1-.82,2.882,2.851,2.851,0,0,1-4.255.234v3.693H116.54V95.3h1.612l.072.79a2.571,2.571,0,0,1,2.1-.934,2.655,2.655,0,0,1,2.235,1.061,4.758,4.758,0,0,1,.809,2.946Zm-1.741-.151a3.25,3.25,0,0,0-.464-1.85,1.511,1.511,0,0,0-1.329-.684,1.611,1.611,0,0,0-1.54.884v3.455a1.625,1.625,0,0,0,1.555.908,1.508,1.508,0,0,0,1.306-.674,3.564,3.564,0,0,0,.472-2.04" transform="translate(98.205 80.186)" fill="#fff"/>
            <rect id="Rectángulo_9960" data-name="Rectángulo 9960" width="1.749" height="11.056" transform="translate(223.161 172.218)" fill="#fff"/>
            <path id="Trazado_138225" data-name="Trazado 138225" d="M127.857,103.089a2.684,2.684,0,0,1-.2-.728,2.941,2.941,0,0,1-3.96.2,2.14,2.14,0,0,1-.741-1.655A2.209,2.209,0,0,1,123.88,99a4.48,4.48,0,0,1,2.644-.665H127.6v-.512a1.363,1.363,0,0,0-.337-.967,1.338,1.338,0,0,0-1.03-.363,1.54,1.54,0,0,0-.978.3.923.923,0,0,0-.381.759h-1.749a1.95,1.95,0,0,1,.424-1.2,2.831,2.831,0,0,1,1.155-.873,4.054,4.054,0,0,1,1.631-.317,3.26,3.26,0,0,1,2.18.687,2.453,2.453,0,0,1,.837,1.933v3.512a3.972,3.972,0,0,0,.295,1.677v.123Zm-1.922-1.26a1.972,1.972,0,0,0,.975-.252,1.677,1.677,0,0,0,.687-.676V99.431h-.942a2.563,2.563,0,0,0-1.461.339,1.094,1.094,0,0,0-.49.956,1.025,1.025,0,0,0,.335.8,1.3,1.3,0,0,0,.9.3" transform="translate(103.611 80.186)" fill="#fff"/>
            <path id="Trazado_138226" data-name="Trazado 138226" d="M129.052,95.3l.05.9a2.806,2.806,0,0,1,2.268-1.043q2.432,0,2.477,2.786v5.147H132.1V98.042a1.6,1.6,0,0,0-.319-1.1,1.353,1.353,0,0,0-1.048-.357,1.685,1.685,0,0,0-1.575.958v5.543H127.4V95.3Z" transform="translate(107.359 80.186)" fill="#fff"/>
            <path id="Trazado_138227" data-name="Trazado 138227" d="M131.869,94.565a.932.932,0,0,1,.254-.671,1.144,1.144,0,0,1,1.465,0,.921.921,0,0,1,.26.671.9.9,0,0,1-.26.658,1.15,1.15,0,0,1-1.465,0,.908.908,0,0,1-.254-.658m1.856,9.81h-1.749V96.586h1.749Z" transform="translate(111.123 78.899)" fill="#fff"/>
            <path id="Trazado_138228" data-name="Trazado 138228" d="M134.788,104.586V98.094H133.6V96.8h1.189v-.711a2.67,2.67,0,0,1,.72-2,2.749,2.749,0,0,1,2.014-.706,4.042,4.042,0,0,1,.98.129l-.044,1.367a3.416,3.416,0,0,0-.669-.057,1.124,1.124,0,0,0-1.253,1.288V96.8h1.585v1.3h-1.585v6.492Z" transform="translate(112.581 78.688)" fill="#fff"/>
            <path id="Trazado_138229" data-name="Trazado 138229" d="M136.748,94.565a.925.925,0,0,1,.254-.671,1.144,1.144,0,0,1,1.465,0,.921.921,0,0,1,.26.671.9.9,0,0,1-.26.658,1.15,1.15,0,0,1-1.465,0,.9.9,0,0,1-.254-.658m1.856,9.81h-1.749V96.586H138.6Z" transform="translate(115.234 78.899)" fill="#fff"/>
            <path id="Trazado_138230" data-name="Trazado 138230" d="M142.138,101.836a1.582,1.582,0,0,0,1.087-.381,1.31,1.31,0,0,0,.461-.943h1.647a2.562,2.562,0,0,1-.453,1.358,2.967,2.967,0,0,1-1.152,1,3.445,3.445,0,0,1-1.568.367,3.33,3.33,0,0,1-2.593-1.058,4.2,4.2,0,0,1-.956-2.922v-.181a4.127,4.127,0,0,1,.951-2.847,3.285,3.285,0,0,1,2.591-1.069,3.194,3.194,0,0,1,2.263.809,2.894,2.894,0,0,1,.918,2.128h-1.647a1.607,1.607,0,0,0-.457-1.1,1.475,1.475,0,0,0-1.091-.431,1.537,1.537,0,0,0-1.31.615,3.135,3.135,0,0,0-.468,1.867v.282a3.2,3.2,0,0,0,.457,1.889,1.54,1.54,0,0,0,1.321.623" transform="translate(116.804 80.186)" fill="#fff"/>
            <path id="Trazado_138231" data-name="Trazado 138231" d="M147.743,103.089a2.684,2.684,0,0,1-.2-.728,2.941,2.941,0,0,1-3.96.2,2.14,2.14,0,0,1-.741-1.655A2.209,2.209,0,0,1,143.766,99a4.48,4.48,0,0,1,2.644-.665h1.072v-.512a1.363,1.363,0,0,0-.337-.967,1.338,1.338,0,0,0-1.03-.363,1.54,1.54,0,0,0-.978.3.923.923,0,0,0-.381.759h-1.749a1.95,1.95,0,0,1,.424-1.2,2.831,2.831,0,0,1,1.155-.873,4.054,4.054,0,0,1,1.631-.317,3.26,3.26,0,0,1,2.18.687,2.453,2.453,0,0,1,.837,1.933v3.512a3.971,3.971,0,0,0,.295,1.677v.123Zm-1.922-1.26a1.972,1.972,0,0,0,.975-.252,1.677,1.677,0,0,0,.687-.676V99.431h-.942a2.563,2.563,0,0,0-1.461.339,1.094,1.094,0,0,0-.49.956,1.025,1.025,0,0,0,.335.8,1.3,1.3,0,0,0,.9.3" transform="translate(120.369 80.186)" fill="#fff"/>
            <path id="Trazado_138232" data-name="Trazado 138232" d="M150.653,101.836a1.582,1.582,0,0,0,1.087-.381,1.31,1.31,0,0,0,.461-.943h1.647a2.561,2.561,0,0,1-.453,1.358,2.967,2.967,0,0,1-1.152,1,3.444,3.444,0,0,1-1.568.367,3.33,3.33,0,0,1-2.593-1.058,4.2,4.2,0,0,1-.956-2.922v-.181a4.127,4.127,0,0,1,.951-2.847,3.285,3.285,0,0,1,2.591-1.069,3.194,3.194,0,0,1,2.263.809,2.894,2.894,0,0,1,.918,2.128H152.2a1.607,1.607,0,0,0-.457-1.1,1.474,1.474,0,0,0-1.091-.431,1.537,1.537,0,0,0-1.31.615,3.135,3.135,0,0,0-.468,1.867v.282a3.2,3.2,0,0,0,.457,1.889,1.54,1.54,0,0,0,1.321.623" transform="translate(123.98 80.186)" fill="#fff"/>
            <path id="Trazado_138233" data-name="Trazado 138233" d="M151.494,94.565a.932.932,0,0,1,.254-.671,1.144,1.144,0,0,1,1.465,0,.921.921,0,0,1,.26.671.9.9,0,0,1-.26.658,1.15,1.15,0,0,1-1.465,0,.908.908,0,0,1-.254-.658m1.856,9.81H151.6V96.586h1.749Z" transform="translate(127.66 78.899)" fill="#fff"/>
            <path id="Trazado_138234" data-name="Trazado 138234" d="M153.357,100.552a4.593,4.593,0,0,1,.453-2.062,3.311,3.311,0,0,1,1.275-1.411,3.6,3.6,0,0,1,1.885-.494A3.4,3.4,0,0,1,159.53,97.6a3.989,3.989,0,0,1,1.061,2.692l.007.411a4.639,4.639,0,0,1-.442,2.058,3.28,3.28,0,0,1-1.268,1.4,3.623,3.623,0,0,1-1.9.5,3.382,3.382,0,0,1-2.639-1.1,4.2,4.2,0,0,1-.99-2.924Zm1.751.151a3.13,3.13,0,0,0,.5,1.881,1.616,1.616,0,0,0,1.382.68,1.6,1.6,0,0,0,1.378-.691,3.452,3.452,0,0,0,.494-2.021,3.091,3.091,0,0,0-.509-1.872,1.71,1.71,0,0,0-2.738-.011,3.393,3.393,0,0,0-.5,2.034m2.346-7.242h1.994l-1.994,2.182-1.4,0Z" transform="translate(129.23 78.757)" fill="#fff"/>
            <path id="Trazado_138235" data-name="Trazado 138235" d="M159.724,95.3l.05.9a2.806,2.806,0,0,1,2.268-1.043q2.432,0,2.477,2.786v5.147h-1.751V98.042a1.6,1.6,0,0,0-.319-1.1,1.353,1.353,0,0,0-1.048-.357,1.685,1.685,0,0,0-1.576.958v5.543h-1.751V95.3Z" transform="translate(133.206 80.186)" fill="#fff"/>
            <path id="Trazado_138236" data-name="Trazado 138236" d="M199.318,152.6v3.886H197.5V146.006H201.5a4.056,4.056,0,0,1,2.79.914,3.076,3.076,0,0,1,1.034,2.421,2.979,2.979,0,0,1-1.012,2.4,4.252,4.252,0,0,1-2.832.857Zm0-1.469H201.5a2.156,2.156,0,0,0,1.483-.457,1.681,1.681,0,0,0,.512-1.321,1.808,1.808,0,0,0-.52-1.356,1.989,1.989,0,0,0-1.424-.521h-2.239Z" transform="translate(166.426 123.036)" fill="#fff"/>
            <path id="Trazado_138237" data-name="Trazado 138237" d="M207.255,154.493a2.712,2.712,0,0,1-2.187.907,2.422,2.422,0,0,1-1.92-.741,3.158,3.158,0,0,1-.65-2.145v-5.047h1.749v5.025q0,1.484,1.231,1.483a1.731,1.731,0,0,0,1.721-.914v-5.594h1.749v7.789H207.3Z" transform="translate(170.639 124.267)" fill="#fff"/>
            <path id="Trazado_138238" data-name="Trazado 138238" d="M208.6,147.533l.05.9a2.806,2.806,0,0,1,2.268-1.043q2.432,0,2.477,2.786v5.147h-1.751v-5.047a1.6,1.6,0,0,0-.319-1.1,1.353,1.353,0,0,0-1.048-.357,1.685,1.685,0,0,0-1.575.958v5.543h-1.751v-7.789Z" transform="translate(174.391 124.201)" fill="#fff"/>
            <path id="Trazado_138239" data-name="Trazado 138239" d="M213.988,146.44v1.892h1.375v1.3h-1.375v4.349a.951.951,0,0,0,.177.643.809.809,0,0,0,.628.2,2.718,2.718,0,0,0,.614-.072V156.1a4.306,4.306,0,0,1-1.152.166q-2.018,0-2.016-2.224v-4.413h-1.283v-1.3h1.283V146.44Z" transform="translate(177.768 123.401)" fill="#fff"/>
            <path id="Trazado_138240" data-name="Trazado 138240" d="M213.778,151.354a4.593,4.593,0,0,1,.453-2.062,3.306,3.306,0,0,1,1.273-1.411,3.6,3.6,0,0,1,1.887-.492,3.4,3.4,0,0,1,2.558,1.013,3.994,3.994,0,0,1,1.063,2.692l.006.411a4.633,4.633,0,0,1-.442,2.058,3.276,3.276,0,0,1-1.266,1.4,3.611,3.611,0,0,1-1.9.5,3.378,3.378,0,0,1-2.639-1.1,4.2,4.2,0,0,1-.99-2.926Zm1.749.151a3.13,3.13,0,0,0,.5,1.881,1.731,1.731,0,0,0,2.76-.009,3.473,3.473,0,0,0,.492-2.023,3.108,3.108,0,0,0-.507-1.872,1.712,1.712,0,0,0-2.74-.011,3.41,3.41,0,0,0-.5,2.034" transform="translate(180.146 124.201)" fill="#fff"/>
            <path id="Trazado_138241" data-name="Trazado 138241" d="M220.325,152.8a4.627,4.627,0,0,1,.835-2.889,2.673,2.673,0,0,1,2.239-1.091,2.542,2.542,0,0,1,2,.864v-3.989h1.749v11.058h-1.583l-.087-.807a2.581,2.581,0,0,1-2.1.951,2.66,2.66,0,0,1-2.213-1.1,4.8,4.8,0,0,1-.846-2.994m1.749.151a3.247,3.247,0,0,0,.457,1.854,1.48,1.48,0,0,0,1.3.665,1.654,1.654,0,0,0,1.57-.956v-3.326a1.63,1.63,0,0,0-1.555-.936,1.5,1.5,0,0,0-1.31.673,3.608,3.608,0,0,0-.461,2.027" transform="translate(185.663 122.772)" fill="#fff"/>
            <path id="Trazado_138242" data-name="Trazado 138242" d="M228.584,155.465a3.62,3.62,0,0,1-2.7-1.047,3.8,3.8,0,0,1-1.032-2.79v-.216a4.667,4.667,0,0,1,.45-2.084,3.431,3.431,0,0,1,1.264-1.428,3.331,3.331,0,0,1,1.813-.512,3.06,3.06,0,0,1,2.458,1.015,4.3,4.3,0,0,1,.868,2.873v.7h-5.089a2.34,2.34,0,0,0,.643,1.528,1.938,1.938,0,0,0,1.423.56,2.363,2.363,0,0,0,1.957-.971l.943.9a3.131,3.131,0,0,1-1.249,1.083,3.911,3.911,0,0,1-1.752.385m-.208-6.672a1.473,1.473,0,0,0-1.163.5,2.6,2.6,0,0,0-.564,1.4h3.332v-.129a2.112,2.112,0,0,0-.468-1.329,1.464,1.464,0,0,0-1.137-.45" transform="translate(189.481 124.201)" fill="#fff"/>
            <path id="Trazado_138243" data-name="Trazado 138243" d="M238.124,151.506a4.631,4.631,0,0,1-.82,2.882,2.851,2.851,0,0,1-4.255.234v3.693H231.3V147.533h1.612l.072.79a2.571,2.571,0,0,1,2.1-.934,2.655,2.655,0,0,1,2.235,1.061,4.757,4.757,0,0,1,.809,2.946Zm-1.741-.151a3.25,3.25,0,0,0-.464-1.85,1.511,1.511,0,0,0-1.329-.684,1.611,1.611,0,0,0-1.54.884v3.455a1.625,1.625,0,0,0,1.555.908,1.508,1.508,0,0,0,1.306-.674,3.563,3.563,0,0,0,.472-2.04" transform="translate(194.912 124.201)" fill="#fff"/>
            <path id="Trazado_138244" data-name="Trazado 138244" d="M240.574,155.322a2.683,2.683,0,0,1-.2-.728,2.941,2.941,0,0,1-3.96.2,2.14,2.14,0,0,1-.741-1.655,2.209,2.209,0,0,1,.925-1.911,4.48,4.48,0,0,1,2.644-.665h1.072v-.512a1.363,1.363,0,0,0-.337-.967,1.338,1.338,0,0,0-1.03-.363,1.54,1.54,0,0,0-.978.3.923.923,0,0,0-.381.759h-1.749a1.95,1.95,0,0,1,.424-1.2,2.83,2.83,0,0,1,1.155-.873,4.055,4.055,0,0,1,1.631-.317,3.26,3.26,0,0,1,2.18.687,2.453,2.453,0,0,1,.837,1.933v3.512a3.971,3.971,0,0,0,.295,1.677v.123Zm-1.922-1.26a1.972,1.972,0,0,0,.975-.252,1.677,1.677,0,0,0,.687-.676v-1.469h-.942a2.563,2.563,0,0,0-1.461.339,1.094,1.094,0,0,0-.49.956,1.025,1.025,0,0,0,.335.8,1.3,1.3,0,0,0,.9.3" transform="translate(198.596 124.201)" fill="#fff"/>
            <path id="Trazado_138245" data-name="Trazado 138245" d="M244.215,149.13a4.3,4.3,0,0,0-.713-.057,1.606,1.606,0,0,0-1.62.921v5.325h-1.749v-7.787H241.8l.044.87a1.97,1.97,0,0,1,1.756-1.013,1.657,1.657,0,0,1,.619.1Z" transform="translate(202.354 124.201)" fill="#fff"/>
            <path id="Trazado_138246" data-name="Trazado 138246" d="M245.719,146.44v1.892h1.373v1.3h-1.373v4.349a.962.962,0,0,0,.175.643.814.814,0,0,0,.63.2,2.69,2.69,0,0,0,.612-.072V156.1a4.306,4.306,0,0,1-1.152.166q-2.018,0-2.016-2.224v-4.413h-1.281v-1.3h1.281V146.44Z" transform="translate(204.507 123.401)" fill="#fff"/>
            <path id="Trazado_138247" data-name="Trazado 138247" d="M245.8,146.8a.922.922,0,0,1,.256-.669.966.966,0,0,1,.73-.265.982.982,0,0,1,.735.265.916.916,0,0,1,.258.669.9.9,0,0,1-.258.66.988.988,0,0,1-.735.262.971.971,0,0,1-.73-.262.906.906,0,0,1-.256-.66m1.857,9.812h-1.749v-7.789h1.749Z" transform="translate(207.134 122.914)" fill="#fff"/>
            <path id="Trazado_138248" data-name="Trazado 138248" d="M247.669,152.8a4.628,4.628,0,0,1,.835-2.889,2.673,2.673,0,0,1,2.239-1.091,2.542,2.542,0,0,1,2,.864v-3.989h1.749v11.058H252.91l-.087-.807a2.581,2.581,0,0,1-2.1.951,2.659,2.659,0,0,1-2.213-1.1,4.8,4.8,0,0,1-.846-2.994m1.749.151a3.248,3.248,0,0,0,.457,1.854,1.48,1.48,0,0,0,1.3.665,1.654,1.654,0,0,0,1.57-.956v-3.326a1.63,1.63,0,0,0-1.555-.936,1.5,1.5,0,0,0-1.31.673,3.609,3.609,0,0,0-.461,2.027" transform="translate(208.705 122.772)" fill="#fff"/>
            <path id="Trazado_138249" data-name="Trazado 138249" d="M257.128,155.322a2.685,2.685,0,0,1-.2-.728,2.941,2.941,0,0,1-3.96.2,2.14,2.14,0,0,1-.741-1.655,2.209,2.209,0,0,1,.925-1.911,4.48,4.48,0,0,1,2.644-.665h1.072v-.512a1.363,1.363,0,0,0-.337-.967,1.338,1.338,0,0,0-1.03-.363,1.54,1.54,0,0,0-.978.3.923.923,0,0,0-.381.759h-1.749a1.95,1.95,0,0,1,.424-1.2,2.831,2.831,0,0,1,1.155-.873,4.055,4.055,0,0,1,1.631-.317,3.26,3.26,0,0,1,2.18.687,2.453,2.453,0,0,1,.837,1.933v3.512a3.971,3.971,0,0,0,.295,1.677v.123Zm-1.922-1.26a1.972,1.972,0,0,0,.975-.252,1.677,1.677,0,0,0,.687-.676v-1.469h-.942a2.563,2.563,0,0,0-1.461.339,1.094,1.094,0,0,0-.49.956,1.025,1.025,0,0,0,.335.8,1.3,1.3,0,0,0,.9.3" transform="translate(212.546 124.201)" fill="#fff"/>
            <path id="Trazado_138250" data-name="Trazado 138250" d="M202.628,161.8a4.628,4.628,0,0,1,.835-2.889,2.673,2.673,0,0,1,2.239-1.091,2.542,2.542,0,0,1,2,.864v-3.989h1.749v11.058h-1.583l-.087-.807a2.581,2.581,0,0,1-2.1.951,2.659,2.659,0,0,1-2.213-1.1,4.8,4.8,0,0,1-.846-2.994m1.749.151a3.247,3.247,0,0,0,.457,1.854,1.48,1.48,0,0,0,1.3.665,1.654,1.654,0,0,0,1.57-.956v-3.326a1.63,1.63,0,0,0-1.555-.936,1.5,1.5,0,0,0-1.31.673,3.608,3.608,0,0,0-.461,2.027" transform="translate(170.75 130.356)" fill="#fff"/>
            <path id="Trazado_138251" data-name="Trazado 138251" d="M210.887,164.465a3.621,3.621,0,0,1-2.7-1.047,3.8,3.8,0,0,1-1.032-2.79v-.216a4.668,4.668,0,0,1,.45-2.084,3.431,3.431,0,0,1,1.264-1.428,3.331,3.331,0,0,1,1.813-.512,3.06,3.06,0,0,1,2.458,1.015,4.3,4.3,0,0,1,.868,2.873v.7h-5.089a2.34,2.34,0,0,0,.643,1.528,1.938,1.938,0,0,0,1.423.56,2.363,2.363,0,0,0,1.957-.971l.943.9a3.132,3.132,0,0,1-1.249,1.083,3.911,3.911,0,0,1-1.752.385m-.208-6.672a1.473,1.473,0,0,0-1.163.5,2.6,2.6,0,0,0-.564,1.4h3.332v-.129a2.113,2.113,0,0,0-.468-1.329,1.464,1.464,0,0,0-1.137-.45" transform="translate(174.568 131.785)" fill="#fff"/>
            <rect id="Rectángulo_9961" data-name="Rectángulo 9961" width="1.749" height="11.056" transform="translate(390.048 285.051)" fill="#fff"/>
            <path id="Trazado_138252" data-name="Trazado 138252" d="M215.471,161.8a4.627,4.627,0,0,1,.835-2.889,2.673,2.673,0,0,1,2.239-1.091,2.542,2.542,0,0,1,2,.864v-3.989h1.749v11.058h-1.583l-.087-.807a2.581,2.581,0,0,1-2.1.951,2.66,2.66,0,0,1-2.213-1.1,4.8,4.8,0,0,1-.846-2.994m1.749.151a3.247,3.247,0,0,0,.457,1.854,1.48,1.48,0,0,0,1.3.665,1.654,1.654,0,0,0,1.57-.956v-3.326a1.63,1.63,0,0,0-1.555-.936,1.5,1.5,0,0,0-1.31.673,3.608,3.608,0,0,0-.461,2.027" transform="translate(181.572 130.356)" fill="#fff"/>
            <path id="Trazado_138253" data-name="Trazado 138253" d="M220.167,155.8a.921.921,0,0,1,.254-.669,1.144,1.144,0,0,1,1.465,0,.917.917,0,0,1,.26.669.9.9,0,0,1-.26.66,1.156,1.156,0,0,1-1.465,0,.9.9,0,0,1-.254-.66m1.856,9.812h-1.749v-7.789h1.749Z" transform="translate(185.529 130.498)" fill="#fff"/>
            <path id="Trazado_138254" data-name="Trazado 138254" d="M226.737,162.2a.793.793,0,0,0-.385-.713,4.144,4.144,0,0,0-1.277-.431,6.578,6.578,0,0,1-1.491-.475,1.988,1.988,0,0,1-1.31-1.835,2.069,2.069,0,0,1,.849-1.684,3.358,3.358,0,0,1,2.16-.676,3.5,3.5,0,0,1,2.257.691,2.191,2.191,0,0,1,.859,1.791H226.65a1.074,1.074,0,0,0-.374-.838,1.436,1.436,0,0,0-.993-.334,1.559,1.559,0,0,0-.94.265.836.836,0,0,0-.363.713.708.708,0,0,0,.339.626,4.69,4.69,0,0,0,1.367.45,6.5,6.5,0,0,1,1.616.54,2.268,2.268,0,0,1,.87.752,1.919,1.919,0,0,1,.286,1.065,2.03,2.03,0,0,1-.872,1.7,3.71,3.71,0,0,1-2.281.652,4.02,4.02,0,0,1-1.706-.346,2.8,2.8,0,0,1-1.166-.951,2.245,2.245,0,0,1-.418-1.3h1.7a1.232,1.232,0,0,0,.468.954,1.824,1.824,0,0,0,1.144.335,1.773,1.773,0,0,0,1.052-.264.813.813,0,0,0,.359-.687" transform="translate(187.086 131.785)" fill="#fff"/>
            <path id="Trazado_138255" data-name="Trazado 138255" d="M229.9,164.465a3.621,3.621,0,0,1-2.7-1.047,3.8,3.8,0,0,1-1.032-2.79v-.216a4.643,4.643,0,0,1,.451-2.084,3.427,3.427,0,0,1,1.262-1.428,3.337,3.337,0,0,1,1.815-.512,3.065,3.065,0,0,1,2.458,1.015,4.31,4.31,0,0,1,.866,2.873v.7h-5.088a2.338,2.338,0,0,0,.641,1.528,1.942,1.942,0,0,0,1.424.56,2.359,2.359,0,0,0,1.955-.971l.943.9a3.119,3.119,0,0,1-1.249,1.083,3.905,3.905,0,0,1-1.752.385m-.206-6.672a1.476,1.476,0,0,0-1.165.5,2.613,2.613,0,0,0-.564,1.4H231.3v-.129a2.1,2.1,0,0,0-.468-1.329,1.463,1.463,0,0,0-1.135-.45" transform="translate(190.591 131.785)" fill="#fff"/>
            <path id="Trazado_138256" data-name="Trazado 138256" d="M232.263,157.928l.052.9a2.8,2.8,0,0,1,2.267-1.045q2.432,0,2.477,2.786v5.147h-1.749v-5.045a1.605,1.605,0,0,0-.321-1.1,1.35,1.35,0,0,0-1.048-.356,1.685,1.685,0,0,0-1.576.956v5.543h-1.749v-7.789Zm4.247-3.109a1.937,1.937,0,0,1-.457,1.318,1.457,1.457,0,0,1-1.148.525,1.718,1.718,0,0,1-.487-.061,3.017,3.017,0,0,1-.582-.278,2.863,2.863,0,0,0-.533-.258,1.246,1.246,0,0,0-.343-.044.612.612,0,0,0-.464.206.754.754,0,0,0-.19.536l-1.072-.059a1.991,1.991,0,0,1,.457-1.33,1.43,1.43,0,0,1,1.141-.54,2.112,2.112,0,0,1,.99.324,2.093,2.093,0,0,0,.954.322.627.627,0,0,0,.468-.2.758.758,0,0,0,.194-.544Z" transform="translate(194.335 130.39)" fill="#fff"/>
            <path id="Trazado_138257" data-name="Trazado 138257" d="M239.846,164.322a2.684,2.684,0,0,1-.2-.728,2.941,2.941,0,0,1-3.96.2,2.14,2.14,0,0,1-.741-1.655,2.209,2.209,0,0,1,.925-1.911,4.48,4.48,0,0,1,2.644-.665h1.072v-.512a1.363,1.363,0,0,0-.337-.967,1.338,1.338,0,0,0-1.03-.363,1.54,1.54,0,0,0-.978.3.923.923,0,0,0-.381.759H235.11a1.95,1.95,0,0,1,.424-1.2,2.831,2.831,0,0,1,1.155-.873,4.054,4.054,0,0,1,1.631-.317,3.26,3.26,0,0,1,2.18.687,2.453,2.453,0,0,1,.837,1.933v3.512a3.971,3.971,0,0,0,.295,1.677v.123Zm-1.922-1.26a1.971,1.971,0,0,0,.975-.252,1.677,1.677,0,0,0,.687-.676v-1.469h-.942a2.563,2.563,0,0,0-1.461.339,1.094,1.094,0,0,0-.49.956,1.026,1.026,0,0,0,.335.8,1.3,1.3,0,0,0,.9.3" transform="translate(197.982 131.785)" fill="#fff"/>
            <path id="Trazado_138258" data-name="Trazado 138258" d="M239.229,161.8a4.627,4.627,0,0,1,.835-2.889,2.673,2.673,0,0,1,2.239-1.091,2.542,2.542,0,0,1,2,.864v-3.989h1.749v11.058H244.47l-.087-.807a2.581,2.581,0,0,1-2.1.951,2.659,2.659,0,0,1-2.213-1.1,4.8,4.8,0,0,1-.846-2.994m1.749.151a3.247,3.247,0,0,0,.457,1.854,1.48,1.48,0,0,0,1.3.665,1.654,1.654,0,0,0,1.57-.956v-3.326a1.63,1.63,0,0,0-1.555-.936,1.5,1.5,0,0,0-1.31.673,3.608,3.608,0,0,0-.461,2.027" transform="translate(201.592 130.356)" fill="#fff"/>
            <path id="Trazado_138259" data-name="Trazado 138259" d="M243.745,160.354a4.593,4.593,0,0,1,.453-2.062,3.306,3.306,0,0,1,1.273-1.411,3.6,3.6,0,0,1,1.887-.492,3.4,3.4,0,0,1,2.558,1.013,3.994,3.994,0,0,1,1.063,2.692l.006.411a4.634,4.634,0,0,1-.442,2.058,3.276,3.276,0,0,1-1.266,1.4,3.611,3.611,0,0,1-1.9.5,3.378,3.378,0,0,1-2.639-1.1,4.2,4.2,0,0,1-.99-2.926Zm1.749.151a3.13,3.13,0,0,0,.5,1.881,1.731,1.731,0,0,0,2.76-.009,3.473,3.473,0,0,0,.492-2.023,3.108,3.108,0,0,0-.507-1.872,1.712,1.712,0,0,0-2.74-.011,3.41,3.41,0,0,0-.5,2.034" transform="translate(205.398 131.785)" fill="#fff"/>
            <path id="Trazado_138260" data-name="Trazado 138260" d="M252.557,158.13a4.3,4.3,0,0,0-.713-.057,1.606,1.606,0,0,0-1.62.921v5.325h-1.749v-7.787h1.669l.044.87a1.97,1.97,0,0,1,1.756-1.013,1.656,1.656,0,0,1,.619.1Z" transform="translate(209.384 131.785)" fill="#fff"/>
            <path id="Trazado_138261" data-name="Trazado 138261" d="M287.07,95.211V84.73h3.094a4.851,4.851,0,0,1,2.466.619,4.226,4.226,0,0,1,1.668,1.756,5.591,5.591,0,0,1,.59,2.606v.525a5.567,5.567,0,0,1-.593,2.62A4.182,4.182,0,0,1,292.6,94.6a5.1,5.1,0,0,1-2.517.612Zm1.821-9.013v7.559h1.188a2.735,2.735,0,0,0,2.2-.9,3.9,3.9,0,0,0,.781-2.572V89.7a4,4,0,0,0-.743-2.606,2.629,2.629,0,0,0-2.152-.9Z" transform="translate(241.907 71.4)" fill="#fff"/>
            <path id="Trazado_138262" data-name="Trazado 138262" d="M295.771,94.189a3.621,3.621,0,0,1-2.7-1.047,3.8,3.8,0,0,1-1.032-2.79v-.216a4.668,4.668,0,0,1,.45-2.084,3.432,3.432,0,0,1,1.264-1.428,3.331,3.331,0,0,1,1.813-.512,3.06,3.06,0,0,1,2.458,1.015A4.3,4.3,0,0,1,298.9,90v.7h-5.089a2.34,2.34,0,0,0,.643,1.528,1.938,1.938,0,0,0,1.423.56,2.363,2.363,0,0,0,1.957-.971l.943.9a3.132,3.132,0,0,1-1.249,1.084,3.911,3.911,0,0,1-1.752.385m-.208-6.672a1.473,1.473,0,0,0-1.163.5,2.6,2.6,0,0,0-.564,1.4h3.332V89.3a2.113,2.113,0,0,0-.468-1.329,1.465,1.465,0,0,0-1.137-.45" transform="translate(246.098 72.565)" fill="#fff"/>
            <path id="Trazado_138263" data-name="Trazado 138263" d="M301.027,91.928a.793.793,0,0,0-.385-.713,4.144,4.144,0,0,0-1.277-.431,6.579,6.579,0,0,1-1.491-.475,1.988,1.988,0,0,1-1.31-1.835,2.069,2.069,0,0,1,.85-1.684,3.358,3.358,0,0,1,2.16-.676,3.5,3.5,0,0,1,2.257.691,2.191,2.191,0,0,1,.859,1.791H300.94a1.075,1.075,0,0,0-.374-.838,1.436,1.436,0,0,0-.993-.334,1.559,1.559,0,0,0-.94.265.836.836,0,0,0-.363.713.708.708,0,0,0,.339.626,4.69,4.69,0,0,0,1.367.45,6.5,6.5,0,0,1,1.616.54,2.268,2.268,0,0,1,.87.752,1.919,1.919,0,0,1,.286,1.065,2.03,2.03,0,0,1-.872,1.7,3.71,3.71,0,0,1-2.281.652,4.02,4.02,0,0,1-1.706-.346,2.8,2.8,0,0,1-1.166-.951,2.245,2.245,0,0,1-.418-1.3H298a1.232,1.232,0,0,0,.468.955,1.824,1.824,0,0,0,1.144.335,1.773,1.773,0,0,0,1.052-.264.812.812,0,0,0,.359-.687" transform="translate(249.688 72.565)" fill="#fff"/>
            <path id="Trazado_138264" data-name="Trazado 138264" d="M305.394,94.046a2.682,2.682,0,0,1-.2-.728,2.941,2.941,0,0,1-3.96.2,2.14,2.14,0,0,1-.741-1.655,2.209,2.209,0,0,1,.925-1.911,4.48,4.48,0,0,1,2.644-.665h1.072v-.512a1.363,1.363,0,0,0-.337-.967,1.338,1.338,0,0,0-1.03-.363,1.54,1.54,0,0,0-.978.3.923.923,0,0,0-.381.759h-1.749a1.95,1.95,0,0,1,.424-1.2,2.83,2.83,0,0,1,1.155-.873,4.055,4.055,0,0,1,1.631-.317,3.26,3.26,0,0,1,2.18.687,2.453,2.453,0,0,1,.837,1.933v3.512a3.972,3.972,0,0,0,.295,1.677v.123Zm-1.922-1.26a1.972,1.972,0,0,0,.975-.252,1.677,1.677,0,0,0,.687-.676V90.388h-.942a2.563,2.563,0,0,0-1.461.339,1.094,1.094,0,0,0-.49.956,1.026,1.026,0,0,0,.335.8,1.3,1.3,0,0,0,.9.3" transform="translate(253.217 72.565)" fill="#fff"/>
            <path id="Trazado_138265" data-name="Trazado 138265" d="M309.035,87.854a4.321,4.321,0,0,0-.715-.057,1.606,1.606,0,0,0-1.62.921v5.325h-1.749V86.257h1.669l.046.87a1.968,1.968,0,0,1,1.756-1.013,1.669,1.669,0,0,1,.619.1Z" transform="translate(256.976 72.565)" fill="#fff"/>
            <path id="Trazado_138266" data-name="Trazado 138266" d="M311.846,87.854a4.3,4.3,0,0,0-.713-.057,1.606,1.606,0,0,0-1.62.921v5.325h-1.749V86.257h1.669l.044.87a1.97,1.97,0,0,1,1.756-1.013,1.656,1.656,0,0,1,.619.1Z" transform="translate(259.346 72.565)" fill="#fff"/>
            <path id="Trazado_138267" data-name="Trazado 138267" d="M310.262,90.078a4.593,4.593,0,0,1,.453-2.062,3.3,3.3,0,0,1,1.271-1.412,3.6,3.6,0,0,1,1.889-.492,3.4,3.4,0,0,1,2.558,1.013,4,4,0,0,1,1.063,2.692l0,.411a4.632,4.632,0,0,1-.44,2.058,3.291,3.291,0,0,1-1.268,1.4,3.611,3.611,0,0,1-1.9.5,3.378,3.378,0,0,1-2.639-1.1,4.2,4.2,0,0,1-.988-2.926Zm1.749.151a3.143,3.143,0,0,0,.5,1.881,1.731,1.731,0,0,0,2.76-.009,3.473,3.473,0,0,0,.492-2.023,3.1,3.1,0,0,0-.507-1.872,1.712,1.712,0,0,0-2.74-.011,3.41,3.41,0,0,0-.5,2.034" transform="translate(261.45 72.565)" fill="#fff"/>
            <rect id="Rectángulo_9962" data-name="Rectángulo 9962" width="1.749" height="11.056" transform="translate(580.542 155.555)" fill="#fff"/>
            <rect id="Rectángulo_9963" data-name="Rectángulo 9963" width="1.749" height="11.056" transform="translate(584.307 155.555)" fill="#fff"/>
            <path id="Trazado_138268" data-name="Trazado 138268" d="M318.9,90.078a4.593,4.593,0,0,1,.453-2.062,3.306,3.306,0,0,1,1.273-1.412,3.6,3.6,0,0,1,1.887-.492,3.4,3.4,0,0,1,2.558,1.013,3.993,3.993,0,0,1,1.063,2.692l.006.411a4.633,4.633,0,0,1-.442,2.058,3.276,3.276,0,0,1-1.266,1.4,3.611,3.611,0,0,1-1.9.5,3.378,3.378,0,0,1-2.639-1.1,4.2,4.2,0,0,1-.99-2.926Zm1.749.151a3.13,3.13,0,0,0,.5,1.881,1.731,1.731,0,0,0,2.76-.009,3.473,3.473,0,0,0,.492-2.023,3.108,3.108,0,0,0-.507-1.872,1.712,1.712,0,0,0-2.74-.011,3.41,3.41,0,0,0-.5,2.034" transform="translate(268.731 72.565)" fill="#fff"/>
            <path id="Trazado_138269" data-name="Trazado 138269" d="M325.449,91.522a4.627,4.627,0,0,1,.835-2.889,2.673,2.673,0,0,1,2.239-1.091,2.542,2.542,0,0,1,2,.864V84.417h1.749V95.475H330.69l-.087-.807a2.581,2.581,0,0,1-2.1.951,2.66,2.66,0,0,1-2.213-1.1,4.8,4.8,0,0,1-.846-2.994m1.749.151a3.247,3.247,0,0,0,.457,1.854,1.48,1.48,0,0,0,1.3.665,1.654,1.654,0,0,0,1.57-.956V89.91a1.63,1.63,0,0,0-1.555-.936,1.5,1.5,0,0,0-1.31.673,3.608,3.608,0,0,0-.461,2.027" transform="translate(274.248 71.136)" fill="#fff"/>
            <path id="Trazado_138270" data-name="Trazado 138270" d="M333.708,94.189a3.62,3.62,0,0,1-2.7-1.047,3.8,3.8,0,0,1-1.032-2.79v-.216a4.668,4.668,0,0,1,.45-2.084,3.432,3.432,0,0,1,1.264-1.428,3.331,3.331,0,0,1,1.813-.512,3.06,3.06,0,0,1,2.458,1.015A4.3,4.3,0,0,1,336.833,90v.7h-5.09a2.34,2.34,0,0,0,.643,1.528,1.937,1.937,0,0,0,1.423.56,2.363,2.363,0,0,0,1.957-.971l.943.9A3.131,3.131,0,0,1,335.46,93.8a3.911,3.911,0,0,1-1.752.385m-.208-6.672a1.473,1.473,0,0,0-1.163.5,2.6,2.6,0,0,0-.564,1.4H335.1V89.3a2.112,2.112,0,0,0-.468-1.329,1.464,1.464,0,0,0-1.137-.45" transform="translate(278.066 72.565)" fill="#fff"/>
            <rect id="Rectángulo_9964" data-name="Rectángulo 9964" width="1.749" height="11.056" transform="translate(543.114 170.296)" fill="#fff"/>
            <path id="Trazado_138271" data-name="Trazado 138271" d="M301.492,102.046a2.685,2.685,0,0,1-.2-.728,2.941,2.941,0,0,1-3.96.2,2.14,2.14,0,0,1-.741-1.655,2.209,2.209,0,0,1,.925-1.911,4.48,4.48,0,0,1,2.644-.665h1.072v-.512a1.363,1.363,0,0,0-.337-.967,1.338,1.338,0,0,0-1.03-.363,1.541,1.541,0,0,0-.979.3.923.923,0,0,0-.381.759h-1.749a1.95,1.95,0,0,1,.424-1.2,2.83,2.83,0,0,1,1.155-.873,4.055,4.055,0,0,1,1.631-.317,3.26,3.26,0,0,1,2.18.687,2.453,2.453,0,0,1,.837,1.933v3.512a3.972,3.972,0,0,0,.295,1.677v.123Zm-1.922-1.26a1.972,1.972,0,0,0,.975-.252,1.677,1.677,0,0,0,.687-.676V98.388h-.942a2.563,2.563,0,0,0-1.461.339,1.094,1.094,0,0,0-.49.956,1.026,1.026,0,0,0,.335.8,1.3,1.3,0,0,0,.9.3" transform="translate(249.929 79.307)" fill="#fff"/>
            <path id="Trazado_138272" data-name="Trazado 138272" d="M306.609,102.189a3.616,3.616,0,0,1-2.694-1.047,3.791,3.791,0,0,1-1.032-2.79v-.216a4.692,4.692,0,0,1,.448-2.084,3.424,3.424,0,0,1,1.266-1.428,3.327,3.327,0,0,1,1.813-.512,3.059,3.059,0,0,1,2.456,1.015,4.3,4.3,0,0,1,.87,2.873v.7h-5.089a2.322,2.322,0,0,0,.643,1.528,1.932,1.932,0,0,0,1.423.56,2.359,2.359,0,0,0,1.955-.971l.943.9a3.126,3.126,0,0,1-1.247,1.084,3.919,3.919,0,0,1-1.754.385m-.206-6.672a1.476,1.476,0,0,0-1.165.5,2.6,2.6,0,0,0-.564,1.4h3.332V97.3a2.1,2.1,0,0,0-.468-1.329,1.46,1.46,0,0,0-1.135-.45" transform="translate(255.232 79.307)" fill="#fff"/>
            <path id="Trazado_138273" data-name="Trazado 138273" d="M311.867,99.928a.793.793,0,0,0-.385-.713,4.144,4.144,0,0,0-1.277-.431,6.577,6.577,0,0,1-1.491-.475,1.988,1.988,0,0,1-1.31-1.835,2.069,2.069,0,0,1,.849-1.684,3.358,3.358,0,0,1,2.16-.676,3.5,3.5,0,0,1,2.257.691,2.191,2.191,0,0,1,.859,1.791H311.78a1.075,1.075,0,0,0-.374-.838,1.436,1.436,0,0,0-.993-.334,1.559,1.559,0,0,0-.94.265.836.836,0,0,0-.363.713.708.708,0,0,0,.339.627,4.691,4.691,0,0,0,1.367.45,6.5,6.5,0,0,1,1.616.54,2.268,2.268,0,0,1,.87.752,1.919,1.919,0,0,1,.286,1.065,2.03,2.03,0,0,1-.872,1.7,3.71,3.71,0,0,1-2.281.652,4.02,4.02,0,0,1-1.706-.346,2.8,2.8,0,0,1-1.166-.951,2.246,2.246,0,0,1-.418-1.3h1.7a1.232,1.232,0,0,0,.468.955,1.824,1.824,0,0,0,1.144.335,1.772,1.772,0,0,0,1.052-.264.812.812,0,0,0,.359-.687" transform="translate(258.823 79.307)" fill="#fff"/>
            <path id="Trazado_138274" data-name="Trazado 138274" d="M314.816,100.793a1.582,1.582,0,0,0,1.087-.381,1.31,1.31,0,0,0,.461-.943h1.647a2.562,2.562,0,0,1-.453,1.358,2.967,2.967,0,0,1-1.152,1,3.445,3.445,0,0,1-1.568.367,3.33,3.33,0,0,1-2.593-1.058,4.2,4.2,0,0,1-.956-2.922v-.181a4.127,4.127,0,0,1,.951-2.847,3.285,3.285,0,0,1,2.591-1.069,3.194,3.194,0,0,1,2.263.809,2.894,2.894,0,0,1,.918,2.128h-1.647a1.607,1.607,0,0,0-.457-1.1,1.474,1.474,0,0,0-1.091-.431,1.537,1.537,0,0,0-1.31.615A3.135,3.135,0,0,0,313.038,98v.282a3.2,3.2,0,0,0,.457,1.889,1.54,1.54,0,0,0,1.321.623" transform="translate(262.316 79.307)" fill="#fff"/>
            <path id="Trazado_138275" data-name="Trazado 138275" d="M319.22,102.189a3.62,3.62,0,0,1-2.7-1.047,3.8,3.8,0,0,1-1.032-2.79v-.216a4.667,4.667,0,0,1,.45-2.084,3.432,3.432,0,0,1,1.264-1.428,3.331,3.331,0,0,1,1.813-.512,3.06,3.06,0,0,1,2.458,1.015A4.3,4.3,0,0,1,322.345,98v.7h-5.089a2.34,2.34,0,0,0,.643,1.528,1.938,1.938,0,0,0,1.423.56,2.362,2.362,0,0,0,1.957-.971l.943.9a3.131,3.131,0,0,1-1.249,1.084,3.911,3.911,0,0,1-1.752.385m-.208-6.672a1.472,1.472,0,0,0-1.163.5,2.6,2.6,0,0,0-.564,1.4h3.332V97.3a2.112,2.112,0,0,0-.468-1.329,1.464,1.464,0,0,0-1.137-.45" transform="translate(265.857 79.307)" fill="#fff"/>
            <path id="Trazado_138276" data-name="Trazado 138276" d="M321.582,94.257l.05.9a2.805,2.805,0,0,1,2.268-1.043q2.432,0,2.477,2.786v5.147h-1.75V97a1.6,1.6,0,0,0-.319-1.1,1.353,1.353,0,0,0-1.049-.357,1.685,1.685,0,0,0-1.576.958v5.543h-1.751V94.257Z" transform="translate(269.6 79.307)" fill="#fff"/>
            <path id="Trazado_138277" data-name="Trazado 138277" d="M329.162,102.046a2.682,2.682,0,0,1-.2-.728,2.941,2.941,0,0,1-3.96.2,2.14,2.14,0,0,1-.741-1.655,2.209,2.209,0,0,1,.925-1.911,4.48,4.48,0,0,1,2.644-.665H328.9v-.512a1.363,1.363,0,0,0-.337-.967,1.338,1.338,0,0,0-1.03-.363,1.541,1.541,0,0,0-.979.3.923.923,0,0,0-.381.759h-1.749a1.95,1.95,0,0,1,.424-1.2,2.831,2.831,0,0,1,1.155-.873,4.055,4.055,0,0,1,1.631-.317,3.26,3.26,0,0,1,2.18.687,2.453,2.453,0,0,1,.837,1.933v3.512a3.97,3.97,0,0,0,.295,1.677v.123Zm-1.922-1.26a1.972,1.972,0,0,0,.975-.252,1.677,1.677,0,0,0,.687-.676V98.388h-.942a2.563,2.563,0,0,0-1.461.339,1.094,1.094,0,0,0-.49.956,1.025,1.025,0,0,0,.335.8,1.3,1.3,0,0,0,.9.3" transform="translate(273.247 79.307)" fill="#fff"/>
            <path id="Trazado_138278" data-name="Trazado 138278" d="M223.8,226.771a14.087,14.087,0,0,1-8.146-2.276,13.552,13.552,0,0,1-4.951-6.075,24,24,0,0,1-1.561-8.979V184.325c0-5.377,1.229-9.554,3.613-12.622,2.5-3.1,6.145-4.645,11.045-4.645,4.826,0,8.491,1.542,10.914,4.645,2.493,3.068,3.731,7.339,3.731,12.622V209.44c0,5.231-1.273,9.449-3.77,12.571-2.5,3.182-6.123,4.76-10.875,4.76m0-6.844q6.244,0,6.254-10.487V184.325c0-1.185-.052-2.195-.109-3.1a18.107,18.107,0,0,0-.549-2.841,8.078,8.078,0,0,0-1.12-2.353,4.941,4.941,0,0,0-1.778-1.544,5.851,5.851,0,0,0-2.7-.557,5.945,5.945,0,0,0-2.736.557,5.051,5.051,0,0,0-1.809,1.544,7.559,7.559,0,0,0-1.069,2.353,13.966,13.966,0,0,0-.569,2.841c-.074.908-.088,1.918-.088,3.1V209.44a22.636,22.636,0,0,0,.258,3.8,14.519,14.519,0,0,0,.932,3.243A5.28,5.28,0,0,0,220.694,219a5.182,5.182,0,0,0,3.1.923" transform="translate(176.236 140.775)" fill="#fff"/>
            <path id="Trazado_138279" data-name="Trazado 138279" d="M242.753,226.771c-4.76,0-8.351-1.334-10.9-4.026-2.493-2.652-3.741-6.374-3.741-11.229V209.44h8.379c0,1.3.017,2.432.112,3.357a18.569,18.569,0,0,0,.488,2.816,6.863,6.863,0,0,0,.993,2.318,5.1,5.1,0,0,0,1.839,1.386,6.119,6.119,0,0,0,2.834.61,5.832,5.832,0,0,0,2.79-.61,4.934,4.934,0,0,0,1.856-1.386,7,7,0,0,0,1.03-2.318,18.513,18.513,0,0,0,.479-2.816c.087-.925.122-2.058.122-3.357a13.578,13.578,0,0,0-1.944-7.748c-1.3-1.787-3.461-2.685-6.425-2.685v-8.379c3.035,0,5.2-.6,6.47-1.881,1.271-1.238,1.9-3.427,1.9-6.5a11.329,11.329,0,0,0-1.395-6.215c-.9-1.43-2.545-2.1-4.881-2.1a6.458,6.458,0,0,0-2.834.558,5.117,5.117,0,0,0-1.839,1.395,6.912,6.912,0,0,0-.993,2.353,17.252,17.252,0,0,0-.488,2.781c-.1.925-.112,2-.112,3.313h-8.379v-2.084c0-4.767,1.247-8.456,3.792-11.176q3.753-4.013,10.853-4.01c4.76,0,8.37,1.334,10.879,3.984q3.74,3.989,3.731,11.2a14.022,14.022,0,0,1-2.206,8.159,11.16,11.16,0,0,1-6.129,4.446,10.992,10.992,0,0,1,6.241,5.091,19.352,19.352,0,0,1,2.093,9.5c0,5.5-1.152,9.729-3.486,12.781-2.39,3.068-6.085,4.55-11.124,4.55" transform="translate(192.22 140.775)" fill="#fff"/>
          </g>
        </g>
      </g>
    </g>
  </g>
</svg>
