<svg xmlns="http://www.w3.org/2000/svg" xmlns:xlink="http://www.w3.org/1999/xlink" width="400" height="271.437" viewBox="0 0 400 271.437">
  <defs>
    <clipPath id="clip-path">
      <rect id="Rect치ngulo_10100" data-name="Rect치ngulo 10100" width="251.906" height="271.437" fill="none"/>
    </clipPath>
    <linearGradient id="linear-gradient" x1="0.5" x2="0.5" y2="1" gradientUnits="objectBoundingBox">
      <stop offset="0" stop-color="#fff8e3"/>
      <stop offset="0.586" stop-color="#fffefd"/>
      <stop offset="1" stop-color="#fff"/>
    </linearGradient>
  </defs>
  <g id="Grupo_68384" data-name="Grupo 68384" transform="translate(-600 -1188.081)">
    <rect id="Rect치ngulo_10116" data-name="Rect치ngulo 10116" width="400" height="17" rx="8.5" transform="translate(600 1419)" fill="#f8e2e2"/>
    <g id="Grupo_68360" data-name="Grupo 68360" transform="translate(674 1188.081)">
      <g id="Grupo_68359" data-name="Grupo 68359" clip-path="url(#clip-path)">
        <path id="Trazado_139246" data-name="Trazado 139246" d="M251.906,181.723a126.065,126.065,0,0,1-81.4,117.85q-3.855,1.46-7.829,2.668-2.589.793-5.228,1.471-3.414.877-6.908,1.565-.951.194-1.912.364-2.978.546-6,.942-4.706.625-9.524.893-2.174.126-4.366.172-1.387.031-2.784.031-4.717,0-9.342-.343l-.56-.042h0c-.056,0-.116-.01-.172-.014A125.211,125.211,0,0,1,52.432,284q-2.2-1.576-4.314-3.242-4.485-3.535-8.635-7.458a125.952,125.952,0,1,1,212.423-91.579" transform="translate(0 -36.242)" fill="url(#linear-gradient)"/>
        <path id="Trazado_139247" data-name="Trazado 139247" d="M177.824,162.947s25.538-30.688,39.057-11.052c0,0,10.086,4.185,13.735,21.353,3.722,17.516-7.926,30.831-13.949,27.54-3.863-2.11-6.787,4.65-6.787,4.65Z" transform="translate(-115.559 -94.445)" fill="#233862"/>
        <path id="Trazado_139248" data-name="Trazado 139248" d="M281.4,136.122s3.434-13.734,23.606-9.443c0,0-9.657-1.216-12.3,2.5,0,0,7.654-3.505,12.447-.572s5.58,12.8,4.864,15.809-6.009,11.946-9.514,11.946-7.654-3.076-7.654-3.076Z" transform="translate(-182.868 -81.782)" fill="#233862"/>
        <path id="Trazado_139249" data-name="Trazado 139249" d="M218.219,470.039q-1.387.031-2.784.031-5,0-9.9-.385h0a125.209,125.209,0,0,1-63.615-23.292c2.392-12.2,2.265-21.282,1.226-28.923-1.25-9.188-3.82-16.282-4.92-24.157a50.008,50.008,0,0,1-.42-10.368c.546-8.4,3.246-17.021,6.471-24.619a.007.007,0,0,1,0-.01,135.863,135.863,0,0,1,8.131-15.967c2.826-4.769,4.927-7.686,4.927-7.686a.194.194,0,0,1,.042,0c.014,0,.032,0,.053-.007.245-.024.952-.091,2.017-.189.116-.01.235-.024.361-.035,1.208-.634,1.53-5.693,1.516-11.033,0-.312,0-.623-.007-.938,0-.623-.014-1.25-.028-1.87-.007-.389-.017-.774-.028-1.156,0-.189-.011-.378-.014-.567s-.011-.378-.018-.56c-.01-.273-.018-.543-.028-.809q-.026-.688-.053-1.334c0-.035,0-.067,0-.1-.014-.319-.028-.63-.042-.928-.011-.2-.017-.4-.028-.588-.018-.3-.032-.6-.046-.875,0-.109-.01-.214-.018-.319-.049-.9-.095-1.656-.126-2.2l-.011-.147c-.035-.522-.056-.816-.056-.816l14.713-2.913h0l5.658-1.117,1.229-.245,1.285-.256v.007c0,1.352.025,2.665.081,3.932.571,12.823,4.086,21.184,6.695,23.268a2.325,2.325,0,0,0,.858.473,10.466,10.466,0,0,1,4.181,2.15c9.955,7.8,22.042,34.458,18.348,59.361a55.328,55.328,0,0,1-2.672,10.7q-.9,2.474-1.695,4.633c0,.007,0,.014-.007.021-4.24,11.5-6.4,16.818-6.285,21.786.168,7.08,4.965,13.439,15,35.933a2.739,2.739,0,0,1,.018,2.111" transform="translate(-89.482 -198.633)" fill="#ffb27d"/>
        <path id="Trazado_139250" data-name="Trazado 139250" d="M203.707,310.665s.492,6.8.506,13.2c12.089-.341,18.479-11.369,21.1-17.482Z" transform="translate(-132.379 -199.105)" fill="#e8945b"/>
        <path id="Trazado_139251" data-name="Trazado 139251" d="M202.291,217.287s6.335-10.01,7.856-18.57c1.086-6.111-2.027-28.763-24.789-25.5a30.922,30.922,0,0,0-12.826,4.849c-4.942,3.338-12.075,10.544-4.1,30.311l2.072,6.677Z" transform="translate(-107.128 -112.357)" fill="#233862"/>
        <path id="Trazado_139252" data-name="Trazado 139252" d="M174.5,246.351s28.6.472,28.623-17.345,3.725-29.756-14.537-30.81-21.817,5.74-23.27,11.685,1.744,35.888,9.184,36.47" transform="translate(-107.205 -128.726)" fill="#ffb27d"/>
        <path id="Trazado_139253" data-name="Trazado 139253" d="M173.866,195.671s-5.849,4.667-7.274,9.2-2.067,13.877-4.79,13.56c0,0-5.9-14.208.731-22.245,7.031-8.522,11.333-.519,11.333-.519" transform="translate(-103.575 -124.942)" fill="#233862"/>
        <path id="Trazado_139254" data-name="Trazado 139254" d="M343.8,516.479a125.338,125.338,0,0,1-14.818,2.871c-7.339-13.176-14.923-27.75-16.2-33.8-.809-3.827-2.745-11.345-5.032-19.857-.087-.336-.182-.676-.273-1.019-.364-1.352-.735-2.724-1.11-4.107-.073-.277-.151-.553-.224-.83,0-.007,0-.017-.007-.028-.648-2.378-1.306-4.783-1.961-7.164,0-.01-.007-.024-.01-.038s-.007-.024-.011-.035c-4.107-14.948-8.067-28.9-8.067-28.9l-2.115-9.156-4.261-18.46v0L286.76,383.18s.207.021.585.063c.942.109,2.955.357,5.476.756a78.1,78.1,0,0,1,15.438,3.813c.074.028.144.056.214.088l.056.024c.039.014.074.031.112.046a11.9,11.9,0,0,1,5.028,3.34.156.156,0,0,0,.021.024,3.909,3.909,0,0,1,.378.644c5.932,13.047,11.856,45.968,16.019,69.452.105.585.207,1.163.308,1.737,2.167,12.245,3.824,21.6,4.7,23.663,1.513,3.526,4.843,16.352,8.7,29.647" transform="translate(-186.351 -249.009)" fill="#ffb27d"/>
        <path id="Trazado_139255" data-name="Trazado 139255" d="M123.638,406.99,120.5,423.717l-2.77,14.773-1.73,9.237s-4.387,18.345-8.32,35.593c-.459,2.01-.91,4-1.348,5.953-1.821,8.1-3.4,15.414-4.191,19.728q-4.485-3.535-8.635-7.458A125.134,125.134,0,0,1,83.14,490.5c.154-1.145.312-2.321.473-3.522,1.38-10.263,3.018-22.315,4.871-33.755,2.413-14.913,5.189-28.789,8.236-36.3.522-1.282,1.908-2.448,3.8-3.494v0c.455-.249.945-.5,1.457-.735a48.055,48.055,0,0,1,6.586-2.413c2.878-.854,5.851-1.551,8.386-2.076.844-.175,1.642-.329,2.367-.469,2.591-.487,4.324-.739,4.324-.739" transform="translate(-54.028 -264.482)" fill="#ffb27d"/>
        <path id="Trazado_139256" data-name="Trazado 139256" d="M199.5,464.67c.788-.364,1.586-.77,2.388-1.212-4.846-23.653-11.737-56.809-18.639-69.95a3.921,3.921,0,0,0-.455-.672.15.15,0,0,1-.021-.025,7,7,0,0,0-1.222-1.089c.042-.056.066-.084.066-.084a21.379,21.379,0,0,0-3.985-2.213l-.056-.025c-.07-.032-.14-.06-.214-.088-6.737-2.878-15.435-3.824-15.435-3.824a.027.027,0,0,1,0,.011c-.021.094-.179.788-.438,1.866-.546,2.29-1.551,6.327-2.675,10.077v0c-1.177,3.915-2.479,7.514-3.533,8.477-1.873,1.716-22.1,4.223-33.348,3.82-4.233-.154-7.2-.714-7.43-1.887-.48-2.4,3.06-8.862,6.24-14.1,2.262-3.726,4.342-6.831,4.671-7.416a20.218,20.218,0,0,0-2.017.189c-.021,0-.039,0-.053.007a.193.193,0,0,0-.042,0c-4.258.56-7.259.987-9.426,1.355a30.535,30.535,0,0,0-4.23.945l-.024.006c-.686.186-17.092,5.04-24.286,45.541,0,0,5.843,8.009,14.073,10.371.216.062.435.116.653.169v0c-.7,11.688-3.162,27.175-5.123,42.638q4.144,3.924,8.635,7.458,2.122,1.665,4.314,3.242A125.208,125.208,0,0,0,171.5,521.562h0q4.9.383,9.9.385,1.4,0,2.784-.032,2.2-.047,4.366-.172c-.1-.459-.2-.921-.308-1.39-.21-.939-.427-1.894-.658-2.875-.112-.49-.228-.984-.343-1.485q-.415-1.754-.851-3.582t-.893-3.725q-.594-2.463-1.212-5.025c-.14-.585-.28-1.169-.42-1.761s-.291-1.212-.434-1.821c-.606-2.542-1.215-5.14-1.814-7.773-.1-.434-.2-.868-.294-1.306q-.378-1.67-.746-3.354c-.091-.417-.182-.837-.273-1.257q-.278-1.271-.543-2.549c-.091-.427-.182-.854-.266-1.282q-.184-.888-.364-1.782-.546-2.684-1.043-5.375c-.112-.613-.224-1.225-.333-1.842q-.347-1.928-.662-3.852c-.07-.427-.14-.854-.207-1.282s-.133-.851-.2-1.278l.158.042A34.081,34.081,0,0,0,199.5,464.67" transform="translate(-55.454 -250.51)" fill="#fa9300"/>
        <path id="Trazado_139257" data-name="Trazado 139257" d="M316.839,625.763q-2.174.126-4.366.172-1.387.031-2.784.031-5,0-9.9-.385h0q-2.421-2.715-5-6.037c-26.048-33.671-2.209-73.238.984-73.973,1.59-.368,3.88,5.96,5.774,12.416,0,.01.007.025.01.035s.007.028.01.038c.735,2.5,1.411,5.018,1.961,7.164,0,.01,0,.021.007.028.073.291.147.574.217.851.756,2.98,1.233,5.063,1.233,5.063.067.427.133.851.2,1.278s.137.854.207,1.282q.315,1.922.662,3.852c.108.616.221,1.229.333,1.842q.5,2.689,1.044,5.375.179.893.364,1.782c.088.427.175.854.266,1.281q.263,1.276.543,2.549c.091.42.182.84.273,1.257q.368,1.686.746,3.354c.1.438.2.872.294,1.306.6,2.633,1.208,5.231,1.814,7.773.144.609.291,1.218.434,1.821s.28,1.177.42,1.761q.614,2.558,1.212,5.025.457,1.9.893,3.726t.851,3.582c.116.5.231.994.343,1.485.231.981.448,1.936.658,2.875.105.469.207.931.308,1.39" transform="translate(-183.736 -354.529)" fill="#e18b11"/>
        <path id="Trazado_139258" data-name="Trazado 139258" d="M197.641,193.452s5.58,21.889,20.745,28.9c0,0-15.165-13.448-16.453-27.9s-4.292-1-4.292-1" transform="translate(-128.437 -122.016)" fill="#233862"/>
        <path id="Trazado_139259" data-name="Trazado 139259" d="M195.2,190.43s7.831,20.9,19.85,23.993,17.232-.13,17.232-.13a34.034,34.034,0,0,1-11.132-20.107s-20.043-13.705-25.95-3.756" transform="translate(-126.85 -121.397)" fill="#233862"/>
        <path id="Trazado_139260" data-name="Trazado 139260" d="M444.957,419.283c-21.762,6.867-59.418-11.666-59.418-11.666s20.065-15.06,19.014-46.371l16.827,13.561,11.43,9.21a137.089,137.089,0,0,1-1.3,14.946c-.329,2.5-.74,5.293-1.258,8.343a52.083,52.083,0,0,1,14.7,11.977" transform="translate(-250.543 -234.756)" fill="#ffb27d"/>
        <path id="Trazado_139261" data-name="Trazado 139261" d="M467.968,408.578a136.915,136.915,0,0,1-1.3,14.947c-12.665-2.173-27.031-22.644-27.031-22.644a40.348,40.348,0,0,1,16.9-1.513Z" transform="translate(-285.699 -259.316)" fill="#ed975d"/>
        <path id="Trazado_139262" data-name="Trazado 139262" d="M459.749,314.435s-35.946,5.972-39.321-16.471-10.287-36.787,12.522-41.549,28.565,3.13,31.514,10.347,4.549,45.541-4.715,47.673" transform="translate(-270.826 -165.689)" fill="#ffb27d"/>
        <path id="Trazado_139263" data-name="Trazado 139263" d="M433.181,523.919c-4.359-17.543-14.388-29.1-23.541-37.6l-7.518-6.646c-.62.126-1.247.238-1.873.336a35.3,35.3,0,0,1-21.555-3.172c-8.61-4.247-17.984-8.827-19.51-7.735-.13.094-.256.193-.382.291a37.284,37.284,0,0,0-7.57,8.127c-.024.032-.046.063-.07.1-12.507,17.833-18.716,51.595-18.576,89.141,0,1.25.018,2.507.035,3.768q.005.588.021,1.176v.105q.037,2.006.1,4.023,4.627.341,9.342.343,1.4,0,2.784-.032,2.2-.047,4.366-.172,4.811-.263,9.524-.893,3.02-.4,6-.942.961-.168,1.912-.364,3.493-.683,6.908-1.565,2.637-.677,5.228-1.471,3.971-1.2,7.829-2.668a126.12,126.12,0,0,0,48.7-33.18c-.651-4.125-1.369-7.815-2.153-10.974" transform="translate(-216.129 -304.742)" fill="#d44f4a"/>
        <path id="Trazado_139264" data-name="Trazado 139264" d="M410.935,265.764s3.689-.617,3.094-5.7-.588-11.722,3.544-10.485,4.336,4.545,6.034,2.614,1.728-10.069,14.02-10.635,17.287,3.712,23,1.2,6.018-11.165,6.018-11.165-1.626,3.089-4.081,4.072c0,0,9.536-13.043-1.5-21.987s-22.3-3.089-28.689-2.7c-14.077.852-23.171,1.7-27.769,10.947s-2.7,34.935,6.332,43.839" transform="translate(-261.362 -135.649)" fill="#233862"/>
        <path id="Trazado_139265" data-name="Trazado 139265" d="M449,673.07a.011.011,0,0,1,0,.007.144.144,0,0,1-.007.021c0,.01-.007.025-.014.042a95.856,95.856,0,0,0-2.637,27.585q-3.855,1.46-7.829,2.668-2.589.793-5.228,1.47-3.414.877-6.908,1.565-.951.195-1.912.364.982-2.447,2-4.814v-.007c6.481-15.039,14.153-27.028,22.539-28.9" transform="translate(-275.835 -437.394)" fill="#bc332e"/>
        <path id="Trazado_139266" data-name="Trazado 139266" d="M344.666,539.14s-6.086,35.218-11.72,69.778v.007q-.7,4.27-1.38,8.5v.007q-.32,2-.637,3.967c.056,0,.116.011.172.014h0l.56.042q4.627.341,9.342.343,1.4,0,2.784-.031,2.2-.047,4.366-.172,4.811-.263,9.524-.893,3.02-.4,6-.942.961-.168,1.912-.364,3.493-.683,6.908-1.565,2.637-.677,5.228-1.471c5.469-15.97,10.095-29.189,10.466-30.253.007-.018.01-.032.014-.042a.139.139,0,0,0,.007-.021.011.011,0,0,0,0-.007Z" transform="translate(-215.054 -350.359)" fill="#d44f4a"/>
      </g>
    </g>
    <g id="rana" transform="translate(906 1366.718)">
      <g id="Grupo_68380" data-name="Grupo 68380" transform="translate(42.111 33.394)">
        <path id="Trazado_139382" data-name="Trazado 139382" d="M382.651,292.291c-1.927-2.74-7.293-2.082-15.734,1.969l-.337,15.3,2.168,2.683C374.062,307.946,386.159,297.3,382.651,292.291Z" transform="translate(-366.58 -290.633)" fill="#53b324"/>
      </g>
      <g id="Grupo_68381" data-name="Grupo 68381" transform="translate(0 33.393)">
        <path id="Trazado_139383" data-name="Trazado 139383" d="M16.451,294.253C8,290.2,2.634,289.542.717,292.285c-3.508,5.012,8.589,15.654,13.9,19.949l2.168-2.683Z" transform="translate(-0.089 -290.625)" fill="#7acc29"/>
      </g>
      <path id="Trazado_139384" data-name="Trazado 139384" d="M98.918,264.007V248.381a15.788,15.788,0,0,0-6.4-12.673H74.3a15.788,15.788,0,0,0-6.4,12.673v15.627H61v3.447H74.788v-3.448l1.724-3.446,1.724,3.446H88.576L90.3,260.56l1.724,3.446v3.448h13.788v-3.447Z" transform="translate(-54.001 -208.625)" fill="#a8e62e"/>
      <path id="Trazado_139385" data-name="Trazado 139385" d="M262.894,260.56l1.724,3.446v3.448h13.788v-3.447h-6.894V248.381a15.788,15.788,0,0,0-6.4-12.673H256v28.3h5.171Z" transform="translate(-226.595 -208.625)" fill="#7acc29"/>
      <path id="Trazado_139386" data-name="Trazado 139386" d="M84.342,176.133H62.058c1.152,6.141,10.524,10.785,22.284,10.785s21.133-4.644,22.284-10.785Z" transform="translate(-54.938 -155.895)" fill="#7acc29"/>
      <path id="Trazado_139387" data-name="Trazado 139387" d="M278.284,176.133H256v10.785C267.76,186.918,277.133,182.274,278.284,176.133Z" transform="translate(-226.595 -155.895)" fill="#53b324"/>
      <path id="Trazado_139388" data-name="Trazado 139388" d="M102.36,44.252,90.3,35.933a22.519,22.519,0,0,0-2.552,1.252A8.974,8.974,0,0,1,83.406,38.7a8.974,8.974,0,0,1-4.344-1.513,22.519,22.519,0,0,0-2.552-1.252L64.685,44.058A9.1,9.1,0,0,0,61,50.763a6.94,6.94,0,0,0,.122,1.279,66.768,66.768,0,0,0,22.284,3.841,66.769,66.769,0,0,0,22.284-3.841,6.941,6.941,0,0,0,.122-1.279A8.988,8.988,0,0,0,102.36,44.252Z" transform="translate(-54.001 -31.804)" fill="#a8e62e"/>
      <path id="Trazado_139389" data-name="Trazado 139389" d="M278.406,50.763a8.988,8.988,0,0,0-3.452-6.511L262.9,35.933a22.517,22.517,0,0,0-2.552,1.252A8.974,8.974,0,0,1,256,38.7V55.883a66.769,66.769,0,0,0,22.284-3.841A6.939,6.939,0,0,0,278.406,50.763Z" transform="translate(-226.595 -31.804)" fill="#7acc29"/>
      <path id="Trazado_139390" data-name="Trazado 139390" d="M181,361h3.447v13.9H181Z" transform="translate(-160.213 -319.521)" fill="#7acc29"/>
      <path id="Trazado_139391" data-name="Trazado 139391" d="M301,361h3.447v13.9H301Z" transform="translate(-266.425 -319.521)" fill="#53b324"/>
      <path id="Trazado_139392" data-name="Trazado 139392" d="M69.618,17.235a8.618,8.618,0,1,1,8.618-8.618A8.628,8.628,0,0,1,69.618,17.235Z" transform="translate(-54.001)" fill="#7acc29"/>
      <path id="Trazado_139393" data-name="Trazado 139393" d="M309.618,17.235a8.618,8.618,0,1,1,8.618-8.618A8.628,8.628,0,0,1,309.618,17.235Z" transform="translate(-266.425)" fill="#53b324"/>
      <ellipse id="Elipse_4465" data-name="Elipse 4465" cx="5.171" cy="5.171" rx="5.171" ry="5.171" transform="translate(10.446 3.447)" fill="#e6eef2"/>
      <ellipse id="Elipse_4466" data-name="Elipse 4466" cx="5.171" cy="5.171" rx="5.171" ry="5.171" transform="translate(38.022 3.447)" fill="#cfdfe6"/>
      <g id="Grupo_68382" data-name="Grupo 68382" transform="translate(13.893 6.894)">
        <path id="Trazado_139394" data-name="Trazado 139394" d="M121,60h3.447v3.447H121Z" transform="translate(-121 -60)" fill="#66283d"/>
      </g>
      <g id="Grupo_68383" data-name="Grupo 68383" transform="translate(41.469 6.894)">
        <path id="Trazado_139395" data-name="Trazado 139395" d="M361,60h3.447v3.447H361Z" transform="translate(-361 -60)" fill="#4d1729"/>
      </g>
    </g>
    <g id="rana_1_" data-name="rana (1)" transform="translate(633.16 1366.718)">
      <path id="Trazado_139396" data-name="Trazado 139396" d="M55.59,44.038C58.732,40,59.584,37.076,58.2,35.094c-1.082-1.545-3.249-2.014-6.444-1.395A36.112,36.112,0,0,0,44.5,36.128a15.729,15.729,0,0,0-3.493-6.746,26.459,26.459,0,0,0,3.809-1.528c4.52-2.261,7.01-5.405,7.01-8.854a7.85,7.85,0,0,0-1.892-4.963A8.613,8.613,0,1,0,35.7,4.428c-.683.307-1.32.655-1.941.994A8.983,8.983,0,0,1,29.42,6.934a8.983,8.983,0,0,1-4.343-1.512c-.62-.339-1.258-.687-1.941-.994a8.614,8.614,0,1,0-14.23,9.608A7.85,7.85,0,0,0,7.014,19c0,3.449,2.49,6.593,7.01,8.854a26.46,26.46,0,0,0,3.809,1.528,15.729,15.729,0,0,0-3.493,6.746A36.112,36.112,0,0,0,7.087,33.7c-3.193-.619-5.361-.151-6.444,1.395C-.745,37.076.108,40,3.249,44.038A71.207,71.207,0,0,0,13.908,54.52v.9H7.014v3.447H24.249V55.424H34.591v3.447H51.826V55.424H44.932v-.9A71.207,71.207,0,0,0,55.59,44.038ZM13.908,39.8V50.009a63.306,63.306,0,0,1-7.676-7.755C3.284,38.566,3.445,37.2,3.471,37.07c.377-.3,3.237-.665,10.438,2.64,0,.029,0,.057,0,.086Zm29.3-36.31a5.171,5.171,0,1,1-5.171,5.171A5.177,5.177,0,0,1,43.208,3.487Zm-27.577,0a5.171,5.171,0,1,1-5.171,5.171A5.177,5.177,0,0,1,15.631,3.487ZM11.548,16.245a8.613,8.613,0,0,0,12.7-7.356,10.816,10.816,0,0,0,5.176,1.493A10.816,10.816,0,0,0,34.6,8.889a8.613,8.613,0,0,0,12.7,7.356,5.134,5.134,0,0,1,.885,1.56,64.133,64.133,0,0,1-37.514,0,5.134,5.134,0,0,1,.885-1.56Zm4.018,8.525a11.651,11.651,0,0,1-4.107-3.138A67,67,0,0,0,29.42,24.079,67,67,0,0,0,47.38,21.632a11.651,11.651,0,0,1-4.107,3.138A31.744,31.744,0,0,1,29.42,27.617,31.744,31.744,0,0,1,15.566,24.77ZM41.485,55.424H38.038V41.52H34.591V51.978H24.249V41.52H20.8v13.9H17.355V39.8a12.249,12.249,0,0,1,4.4-9.432,41.3,41.3,0,0,0,7.663.7,41.3,41.3,0,0,0,7.663-.7,12.249,12.249,0,0,1,4.4,9.432ZM44.931,39.71c7.2-3.306,10.062-2.94,10.438-2.64.026.134.187,1.5-2.761,5.184a63.306,63.306,0,0,1-7.676,7.755s0-10.27,0-10.3Z" transform="translate(0 -0.04)" fill="#636363"/>
      <path id="Trazado_139397" data-name="Trazado 139397" d="M121.04,60.04h3.447v3.447H121.04Z" transform="translate(-107.132 -53.146)" fill="#636363"/>
      <path id="Trazado_139398" data-name="Trazado 139398" d="M361.04,60.04h3.447v3.447H361.04Z" transform="translate(-319.555 -53.146)" fill="#636363"/>
    </g>
  </g>
</svg>
