<svg xmlns="http://www.w3.org/2000/svg" xmlns:xlink="http://www.w3.org/1999/xlink" width="486" height="293.306" viewBox="0 0 486 293.306">
  <defs>
    <clipPath id="clip-path">
      <rect id="Rectángulo_10186" data-name="Rectángulo 10186" width="171.087" height="269.306" fill="none"/>
    </clipPath>
  </defs>
  <g id="Grupo_70305" data-name="Grupo 70305" transform="translate(-2710 5767)">
    <g id="Grupo_70299" data-name="Grupo 70299">
      <rect id="Rectángulo_10184" data-name="Rectángulo 10184" width="486" height="293" rx="22" transform="translate(2710 -5767)" fill="#fff"/>
      <g id="Grupo_70216" data-name="Grupo 70216" transform="translate(2867 -5743)">
        <g id="Grupo_70215" data-name="Grupo 70215" clip-path="url(#clip-path)">
          <path id="Trazado_156921" data-name="Trazado 156921" d="M171.087,225.96c-19.572-9.5-41.014-18.4-58.5-28.9-7.247-4.354-24.871-7.832-27.307-6.763-2.477-.973-21.667,3.37-28.738,8-16.387,10.738-36.234,20.109-54.49,29.9C24.6,256.7,99.39,305.466,171.087,225.96" fill="#4e3b35"/>
          <path id="Trazado_156922" data-name="Trazado 156922" d="M87.468,236.816H81.709a22.308,22.308,0,0,1-22.242-22.243V183.682A22.308,22.308,0,0,1,81.709,161.44h5.759a22.308,22.308,0,0,1,22.243,22.242v30.891a22.309,22.309,0,0,1-22.243,22.243" fill="#f49f7d"/>
          <path id="Trazado_156923" data-name="Trazado 156923" d="M109.711,193.374C90.777,223.462,60,199.146,59.572,195.408c0,0,1.34-39.132-.982-50.467,0,0,55.26-12.47,51.121,48.433" fill="#ea8a6c"/>
          <path id="Trazado_156924" data-name="Trazado 156924" d="M9.086,134.338c5.335,11.047,15.36,17.247,22.393,13.848a9.213,9.213,0,0,0,1.915-1.24c5.323-4.463,5.967-14.96,1.159-24.918-5.335-11.047-15.36-17.247-22.393-13.848s-8.409,15.111-3.074,26.158" fill="#f49f7d"/>
          <path id="Trazado_156925" data-name="Trazado 156925" d="M28.894,125.5c.974,3.1-4.673,3.672-4.988,6.191-.481,3.842,3.577,9.022.639,9.541-4.864.86-10.8-4.789-13.263-12.618s-.514-14.872,4.349-15.732,10.8,4.789,13.263,12.618" fill="#ea8a6c"/>
          <path id="Trazado_156926" data-name="Trazado 156926" d="M159.037,134.338c-5.335,11.047-15.36,17.247-22.393,13.848a9.213,9.213,0,0,1-1.915-1.24c-5.323-4.463-5.967-14.96-1.159-24.918,5.335-11.047,15.36-17.247,22.393-13.848s8.409,15.111,3.074,26.158" fill="#f49f7d"/>
          <path id="Trazado_156927" data-name="Trazado 156927" d="M139.229,125.5c-.974,3.1,4.673,3.672,4.988,6.191.481,3.842-3.577,9.022-.639,9.541,4.864.86,10.8-4.789,13.263-12.618s.514-14.872-4.349-15.732-10.8,4.789-13.263,12.618" fill="#ea8a6c"/>
          <path id="Trazado_156928" data-name="Trazado 156928" d="M127.694,36.588l-43.105.037-43.1-.037c-6.114-.005-18.6,4.861-18.61,10.764l5.743,90.884C28.59,169.65,51.84,196.353,84.164,196.99v.026c.143,0,.283-.011.425-.013s.282.013.424.013v-.026c32.325-.637,55.575-27.34,55.548-58.754L146.3,47.352c0-5.9-12.495-10.769-18.609-10.764" fill="#ffb294"/>
          <path id="Trazado_156929" data-name="Trazado 156929" d="M121.054,111.315c.149,6.007-2.778,10.951-6.538,11.045s-6.929-4.7-7.078-10.707,2.778-10.951,6.538-11.045,6.929,4.7,7.078,10.707" fill="#242d22"/>
          <path id="Trazado_156930" data-name="Trazado 156930" d="M63.008,111.662c.451,5.991-2.224,11.077-5.974,11.359s-7.156-4.345-7.608-10.336,2.224-11.077,5.975-11.36,7.156,4.346,7.607,10.337" fill="#242d22"/>
          <path id="Trazado_156931" data-name="Trazado 156931" d="M66.573,93.953a64.815,64.815,0,0,0-26.052,1.83l-.94-8.2A52.3,52.3,0,0,1,66.517,85.8Z" fill="#744628"/>
          <path id="Trazado_156932" data-name="Trazado 156932" d="M100.224,93.953a64.815,64.815,0,0,1,26.052,1.83l.94-8.2A52.3,52.3,0,0,0,100.28,85.8Z" fill="#744628"/>
          <path id="Trazado_156933" data-name="Trazado 156933" d="M93.69,131.518s-2.821,8.774-10.462,8.774c-7.534,0-10.685-8.368-10.685-8.368s5.724,2.456,10.319,2.381,10.828-2.787,10.828-2.787" fill="#d38462"/>
          <path id="Trazado_156934" data-name="Trazado 156934" d="M22.118,128.026,0,63.66,26.375,27.29,27.965,127a3.006,3.006,0,0,1-5.847,1.03" fill="#744628"/>
          <path id="Trazado_156935" data-name="Trazado 156935" d="M144.964,133.97,167.082,69.6l-26.375-36.37-1.59,99.706a3.006,3.006,0,0,0,5.847,1.03" fill="#744628"/>
          <path id="Trazado_156936" data-name="Trazado 156936" d="M161.479,20.325c-.7-.616-1.4-1.233-2.1-1.836-4,1.678-15.593,2.842-46.376-11.905C93.957-2.54,39.242-8.894,14.6,35.234,8.254,46.592,7.047,62.929,7.047,62.929l.02,0c.29.072,9.293,2.308,23.614,4.275,23.247,3.194,60.487,5.672,97.182-2.981,5.237-1.235,10.464-2.694,15.637-4.413a29.127,29.127,0,0,0,5.57-4.4c7.06-7.037,12.967-19.147,12.409-35.09m-5.754,2.525C124.894,64.782,17.439,44.477,17.439,44.477s.763-10.329,4.774-17.511C37.795-.934,72.389,3.084,84.43,8.852c26.568,12.728,71.3,14,71.3,14" fill="#935827"/>
          <path id="Trazado_156937" data-name="Trazado 156937" d="M17.439,44.477s.763-10.329,4.774-17.511C37.794-.934,72.389,3.083,84.43,8.852c26.568,12.728,71.3,14,71.3,14C124.893,64.782,17.439,44.477,17.439,44.477" fill="#a05f2e"/>
          <path id="Trazado_156938" data-name="Trazado 156938" d="M84.419,149.867c-18.289.231-20.066,5.7-20.066,6.195,0,0,1.493,4,8.837,6.313,2.872.9,6.327-1.752,11.229-1.934Z" fill="#242d22"/>
          <path id="Trazado_156939" data-name="Trazado 156939" d="M84.1,149.867c18.289.231,20.066,5.7,20.066,6.195,0,0-1.493,4-8.837,6.313-2.872.9-6.327-1.752-11.229-1.934Z" fill="#242d22"/>
          <path id="Trazado_156940" data-name="Trazado 156940" d="M68.277,152.5s5.007-2.629,15.23-2.629c10.9,0,12.659,1.023,15.608,2.157,0,0-1.3,3.457-4.5,3.457h-23.9c-1.561,0-1.986-1.71-2.44-2.985" fill="#fff"/>
          <path id="Trazado_156941" data-name="Trazado 156941" d="M84.661,161.512a39.662,39.662,0,0,1,7.949.886,7.408,7.408,0,0,0,5.3-1s-.881-4-6.4-4.753c-1.533-.209-5.82-.12-7.873-.143-4.265-.048-7.51-.331-9.693.358-2.651.836-3.722,4.36-3.722,4.36.183.337,2.307,1.409,5.159,1.34a37.229,37.229,0,0,1,9.278-1.049" fill="#fff"/>
        </g>
      </g>
      <path id="Rectángulo_10185" data-name="Rectángulo 10185" d="M0,0H486a0,0,0,0,1,0,0V24a22,22,0,0,1-22,22H21A21,21,0,0,1,0,25V0A0,0,0,0,1,0,0Z" transform="translate(2710 -5520)" fill="#d44f4a"/>
      <text id="_CH_-_J_-_SH_" data-name="( CH - J - SH )" transform="translate(2876 -5488)" fill="#fff" font-size="25" font-family="Roboto-Bold, Roboto" font-weight="700"><tspan x="0" y="0">( CH - J - SH )</tspan></text>
    </g>
  </g>
</svg>
